<?xml version="1.0" standalone="no"?>
<!DOCTYPE svg PUBLIC "-//W3C//DTD SVG 1.1//EN" "http://www.w3.org/Graphics/SVG/1.1/DTD/svg11.dtd" >
<svg xmlns="http://www.w3.org/2000/svg" xmlns:xlink="http://www.w3.org/1999/xlink" version="1.1">
<metadata>
Created by FontForge 20170731 at Tue Jul 15 07:55:51 2003
 By Aleksey,,,
The programs to draw the splines of this font are Copyright (c) 2000,2001 by George Williams.
</metadata>
<defs>
<font id="MonospaceOblique" horiz-adv-x="600" >
  <font-face 
    font-family="Monospace"
    font-weight="500"
    font-style="oblique"
    font-stretch="normal"
    units-per-em="1000"
    panose-1="2 0 6 3 0 0 0 0 0 0"
    ascent="800"
    descent="-200"
    x-height="426"
    cap-height="562"
    bbox="-1081 -392.352 975 1159.53"
    underline-thickness="37"
    underline-position="-154"
    slope="-10"
    unicode-range="U+000D-FFFD"
  />
<missing-glyph horiz-adv-x="432" 
d="M33 0v666h333v-666h-333zM66 33h267v600h-267v-600z" />
    <glyph glyph-name="uniFB4F" unicode="&#x5d0;&#x5dc;" 
d="M155 554l296 -543l-34 -22l-257 475l-82 -464h-37l90 509q-21 28 -8 57q2 5 6 11q29 55 68 114q19 29 2 43l-29 21l27 30q36 -30 41 -36q21 -27 -10 -74q-29 -43 -68 -110zM361 551l133 -239l-34 -22l-133 239z" />
    <glyph glyph-name=".notdef" horiz-adv-x="432" 
d="M33 0v666h333v-666h-333zM66 33h267v600h-267v-600z" />
    <glyph glyph-name=".null" horiz-adv-x="0" 
 />
    <glyph glyph-name="nonmarkingreturn" unicode="&#xd;" horiz-adv-x="333" 
 />
    <glyph glyph-name="space" unicode=" " 
 />
    <glyph glyph-name="exclam" unicode="!" 
d="M352 610l-90 -454h-37l70 454h57zM158 38q6 34 44 50q15 6 30 6q39 0 52 -30q5 -12 3 -26q-7 -34 -44 -50q-15 -6 -30 -6q-40 0 -53 30q-5 12 -2 26z" />
    <glyph glyph-name="quotedbl" unicode="&#x22;" 
d="M220 591l-32 -182h-37l32 182h37zM383 591l-32 -182h-37l32 182h37z" />
    <glyph glyph-name="numbersign" unicode="#" 
d="M254 403l-84 -193h112l84 193h-112zM347 616l-77 -176h111l77 176h38l-77 -176h158l-6 -37h-168l-84 -193h125l-7 -37h-135l-75 -173h-37l75 173h-112l-75 -173h-37l75 173h-140l7 37h150l84 193h-109l6 37h118l77 176h38z" />
    <glyph glyph-name="dollar" unicode="$" 
d="M522 580l-30 -52q-5 -9 -6 -16q-9 -50 11 -83h-35q-12 47 -57 75q-28 18 -60 18q-88 0 -134 -48q-20 -22 -25 -49q-12 -67 58 -100q12 -6 95 -33q83 -28 105 -68q15 -29 8 -72q-15 -86 -110 -124q-34 -13 -73 -17l-15 -85h-37l15 84q-58 6 -97 49q-13 -36 -28 -59h-34
l21 42q14 27 17 44q4 25 -9 63q-1 3 -2 5h34l8 -29q24 -60 82 -75q15 -4 31 -4q83 0 131 50q23 24 29 56q10 61 -57 92q-9 4 -94 33q-86 28 -108 72q-15 31 -7 75q14 84 113 119q31 11 66 15l17 96h37l-17 -96q53 -5 91 -43q5 25 32 65h34z" />
    <glyph glyph-name="percent" unicode="%" 
d="M353 207q72 0 107 -42q22 -26 16 -60q-9 -56 -78 -85q-39 -17 -81 -17q-70 0 -105 41q-23 27 -17 61q10 55 78 85q39 17 80 17zM347 170q-50 0 -92 -33q-20 -17 -23 -32q-5 -31 31 -51q25 -14 61 -14q67 0 102 40q11 12 13 25q10 30 -33 51q-27 14 -59 14zM276 566
q70 0 105 -41q23 -26 17 -60q-10 -55 -78 -85q-39 -17 -80 -17q-72 0 -107 41q-22 26 -16 60q9 56 78 85q39 17 81 17zM269 529q-67 0 -102 -39q-11 -13 -13 -25q-6 -31 31 -51q25 -14 61 -14q67 0 101 39q11 13 14 25q5 31 -31 51q-25 14 -61 14zM43 161l501 285l14 -31
l-501 -285z" />
    <glyph glyph-name="ampersand" unicode="&#x26;" 
d="M228 292q-154 -71 -166 -142q-11 -58 42 -89q30 -18 71 -18q48 0 90 37q-1 -1 51 50l22 22zM549 334l-141 -158q-9 -10 -19 -21l120 -142l-31 -26l-118 139l-20 -20q-58 -56 -71 -66q-45 -34 -101 -34q-76 0 -119 49q-34 40 -24 95q16 92 172 165q4 3 10 5l-8 10l-39 50
q-17 27 -11 63q15 82 93 105q23 7 48 7h64l-6 -37h-64q-76 0 -95 -63q-2 -6 -3 -12q-4 -25 32 -72q14 -18 17 -22q74 -99 132 -168q21 22 113 126q20 24 43 49z" />
    <glyph glyph-name="quotesingle" unicode="'" 
d="M302 591l-32 -182h-37l32 182h37z" />
    <glyph glyph-name="parenleft" unicode="(" 
d="M512 615l-38 -39q-141 -145 -181 -316l-6 -28q-21 -123 28 -259q28 -77 70 -127h-48l-14 19q-97 147 -78 330q2 18 5 37q26 145 125 281q43 60 92 102h45z" />
    <glyph glyph-name="parenright" unicode=")" 
d="M149 615h45q76 -95 87 -250q5 -69 -7 -133q-32 -184 -176 -341q-12 -13 -25 -26l-21 -19h-48q105 87 178 232q43 83 55 154q31 173 -53 324l-12 20z" />
    <glyph glyph-name="asterisk" unicode="*" 
d="M81 154l150 167l-184 62l18 35l183 -62l37 207h37l-37 -207l207 62l6 -35l-207 -62l91 -167l-34 -21l-91 166l-150 -166z" />
    <glyph glyph-name="plus" unicode="+" 
d="M319 461l-31 -172h176l-6 -37h-176l-31 -174h-37l31 174h-171l6 37h171l31 172h37z" />
    <glyph glyph-name="comma" unicode="," 
d="M250 112l-164 -246h-46l126 246h84z" />
    <glyph glyph-name="hyphen" unicode="-" 
d="M80 290h385l-6 -37h-385z" />
    <glyph glyph-name="period" unicode="." 
d="M119 46q6 36 46 54q18 8 36 8q42 0 57 -33q6 -14 3 -29q-6 -36 -46 -54q-18 -8 -36 -8q-42 0 -57 33q-6 14 -3 29z" />
    <glyph glyph-name="slash" unicode="/" 
d="M19 -84l494 716h40l-493 -716h-41z" />
    <glyph glyph-name="zero" unicode="0" 
d="M350 564q161 0 122 -257q-2 -12 -4 -25q-45 -253 -183 -280q-17 -3 -35 -3q-161 0 -122 257q2 12 4 25q45 255 184 280q16 3 34 3zM343 527q-105 0 -152 -151q-12 -41 -22 -94q-36 -204 45 -238q18 -8 43 -8q91 0 144 137q20 50 30 108q43 246 -88 246z" />
    <glyph glyph-name="one" unicode="1" 
d="M83 31h159l86 487l-163 -104l-15 24l196 124h23l-94 -531h159l-6 -31h-159h-33h-159z" />
    <glyph glyph-name="two" unicode="2" 
d="M141 362l9 47q50 111 131 140q36 13 80 13q84 0 121 -50q26 -34 17 -83q-15 -85 -105 -146q-15 -10 -95 -56l-85 -48q-62 -41 -72 -99l-9 -46h262l16 89h34l-22 -123h-333l15 80q13 78 110 139l151 86q21 14 37 27q49 42 59 97q10 58 -46 84q-28 13 -67 13
q-112 0 -156 -111q-10 -25 -15 -53h-37z" />
    <glyph glyph-name="three" unicode="3" 
d="M417 311q59 -43 47 -134q0 -5 -1 -11q-15 -84 -101 -133q-57 -33 -122 -33q-74 0 -122 56q-4 5 -31 40l32 26q36 -49 52 -62q30 -23 76 -23q79 0 135 52q36 33 44 77q12 68 -25 108q-20 21 -47 21h-66l7 37h66q55 0 91 45q15 20 19 42q13 71 -59 96q-29 11 -70 11
q-88 0 -169 -89l-26 21q90 104 202 105q108 0 147 -63q20 -34 12 -81q-11 -62 -72 -98q-9 -6 -19 -10z" />
    <glyph glyph-name="four" unicode="4" 
d="M424 492l-298 -297h246zM409 195h81l-7 -37h-81l-22 -124h89l-6 -34h-216l6 34h90l22 124h-300l5 29l376 375h28z" />
    <glyph glyph-name="five" unicode="5" 
d="M78 105q69 -60 150 -68q14 -1 29 -1q95 0 156 59q37 36 45 84q17 96 -67 122q-26 8 -60 8h-153l45 253h340l-7 -37h-303l-31 -179h116q113 0 148 -73q19 -39 9 -94q-18 -100 -118 -150q-60 -30 -127 -30q-107 0 -190 69q-5 3 -9 7z" />
    <glyph glyph-name="six" unicode="6" 
d="M154 181q-18 -101 45 -134q24 -12 57 -12q85 0 129 70q18 29 24 63q12 68 -34 107q-28 24 -69 24q-60 0 -111 -48q-35 -32 -41 -70zM170 276q73 55 143 60q78 0 116 -62q28 -47 17 -106q-16 -90 -88 -138q-49 -32 -109 -32q-100 0 -128 82q-15 43 -4 101l34 197
q15 85 96 140q63 44 134 44h136l-7 -37h-136q-78 0 -137 -59q-40 -39 -49 -88z" />
    <glyph glyph-name="seven" unicode="7" 
d="M217 0l258 525h-273l-16 -93h-34l23 130h350l-5 -23l-265 -539h-38z" />
    <glyph glyph-name="eight" unicode="8" 
d="M414 178q14 80 -34 116q-20 16 -46 16h-58q-59 0 -97 -56q-21 -32 -29 -76q-16 -89 19 -119q27 -23 88 -23q132 0 157 142zM283 347h58q52 0 88 44q18 21 22 46q10 57 -49 80q-25 10 -59 10q-81 0 -120 -49q-16 -18 -20 -42q-8 -48 32 -75q21 -14 48 -14zM451 178
q-24 -135 -132 -168q-31 -10 -69 -10q-140 0 -143 117q0 26 6 61q18 102 94 148q3 1 5 3q-48 30 -48 88q1 9 2 19q14 77 100 111q41 16 84 16q80 0 119 -45q28 -33 19 -81q-11 -63 -71 -101q-7 -4 -15 -8q55 -38 52 -120q-1 -15 -3 -30z" />
    <glyph glyph-name="nine" unicode="9" 
d="M391 385q18 103 -47 135q-23 11 -54 11q-85 0 -130 -70q-18 -29 -24 -63q-12 -67 35 -107q28 -24 68 -24q61 0 111 48q34 32 41 70zM374 290q-60 -54 -129 -59q-7 -1 -13 -1q-77 0 -114 62q-28 47 -18 106q16 91 89 139q48 31 107 31q101 0 128 -84q14 -42 4 -99
l-35 -198q-15 -85 -95 -142q-63 -45 -133 -45h-136l6 37h136q77 0 136 60q40 41 49 90z" />
    <glyph glyph-name="colon" unicode=":" 
d="M221 351q7 38 48 55q16 7 34 7q43 0 57 -33q6 -13 3 -29q-7 -36 -46 -54q-18 -8 -36 -8q-43 0 -57 33q-6 14 -3 29zM167 46q7 36 46 54q18 8 36 8q43 0 57 -33q6 -14 3 -29q-6 -37 -47 -55q-17 -7 -35 -7q-42 0 -57 33q-6 14 -3 29z" />
    <glyph glyph-name="semicolon" unicode=";" 
d="M231 351q7 38 48 55q17 7 34 7q43 0 57 -33q6 -13 3 -29q-6 -36 -46 -54q-17 -8 -36 -8q-42 0 -57 33q-5 14 -3 29zM313 112l-163 -246h-46l125 246h84z" />
    <glyph glyph-name="less" unicode="&#x3c;" 
d="M579 440l-431 -188l363 -199l-7 -38l-442 237l524 229z" />
    <glyph glyph-name="equal" unicode="=" 
d="M132 368h311l-7 -37h-311zM111 248h311l-7 -37h-311z" />
    <glyph glyph-name="greater" unicode="&#x3e;" 
d="M86 440l7 41l444 -229l-526 -237l7 38l433 199z" />
    <glyph glyph-name="question" unicode="?" 
d="M205 147l10 58q8 45 71 92l68 50q47 40 55 84q10 61 -58 87q-31 11 -70 11q-84 0 -127 -41q-18 -17 -22 -39l-3 -18h-37l3 18q12 70 100 100q42 15 91 15q99 0 141 -52q27 -33 19 -81q-11 -63 -89 -121l-70 -53q-31 -27 -35 -52l-10 -58h-37zM137 46q6 36 46 54
q17 8 36 8q42 0 57 -33q6 -14 3 -29q-7 -36 -47 -54q-17 -8 -35 -8q-43 0 -57 33q-6 14 -3 29z" />
    <glyph glyph-name="at" unicode="@" 
d="M434 416q-3 81 -54 101q-24 9 -62 9q-102 0 -149 -98q-26 -54 -43 -150q-28 -159 14 -208q28 -33 91 -33h108l-7 -37h-107q-131 0 -146 121q-7 58 10 157q33 188 115 248q50 37 121 37q131 0 145 -127q6 -59 -12 -158l-18 -104q-15 -33 -43 -36h-69q-63 0 -74 78
q-5 32 1 66q13 75 61 112q27 22 61 22h57zM403 175l18 103q10 55 12 101h-63q-41 0 -66 -56q-8 -19 -12 -41q-12 -70 17 -97q11 -10 25 -10h69z" />
    <glyph glyph-name="A" unicode="A" 
d="M226 283h152l-34 238zM317 34h96l-31 212h-172l-107 -212h95l-6 -34h-213l6 34h79l246 494h-144l6 34h207l73 -528h75l-6 -34h-210z" />
    <glyph glyph-name="B" unicode="B" 
d="M221 361h176q59 0 93 44q14 18 18 39q8 48 -33 72q-21 12 -47 12h-177zM163 34h176q52 0 91 56q27 38 37 94q13 76 -30 121q-21 22 -45 22h-177zM454 340q50 -42 50 -121q0 -18 -3 -35q-19 -107 -90 -158q-37 -26 -77 -26h-303l6 34h89l88 494h-89l6 34h302q62 0 94 -44
q22 -31 15 -74q-13 -71 -84 -102z" />
    <glyph glyph-name="C" unicode="C" 
d="M375 564q81 0 117 -44q9 -7 11 0q7 24 20 42h34q-20 -36 -26 -70q-3 -18 8 -66h-35q-7 59 -70 87q-31 14 -66 14q-88 0 -163 -81q-64 -70 -81 -165q-20 -116 40 -190q46 -56 118 -56q66 0 127 44q13 10 24 21l27 -21q-56 -58 -141 -76q-23 -5 -44 -5q-101 0 -156 86
q-52 82 -32 197q22 124 113 208q81 75 175 75z" />
    <glyph glyph-name="D" unicode="D" 
d="M141 34h162q66 0 133 84q62 77 78 166q12 73 -14 148q-33 96 -109 96h-162zM8 34h96l88 494h-96l6 34h295q101 0 140 -114q26 -80 12 -162q-16 -92 -74 -175q-77 -111 -178 -111h-295z" />
    <glyph glyph-name="E" unicode="E" 
d="M456 402l-25 -143h-34l11 62h-194l-51 -287h273l28 87h34l-34 -121h-440l6 34h97l88 494h-97l6 34h440l-12 -115h-34l6 81h-273l-31 -173h194l8 47h34z" />
    <glyph glyph-name="F" unicode="F" 
d="M251 528l-31 -173h120l8 47h35l-25 -143h-34l11 62h-121l-51 -287h169l-6 -34h-303l6 34h97l88 494h-97l6 34h440l-14 -159h-34l9 125h-273z" />
    <glyph glyph-name="G" unicode="G" 
d="M368 564q80 0 115 -38q3 -3 5 -6q9 -8 12 0q8 28 20 42h34q-20 -36 -26 -70q-3 -18 8 -66h-35q-8 58 -71 86q-33 15 -69 15q-88 0 -163 -81q-64 -70 -81 -165q-21 -121 36 -193q42 -53 111 -53q97 0 163 93q37 52 52 120h-110l6 34h145l-6 -34q-28 -133 -119 -203
q-62 -47 -138 -47q-103 0 -153 90q-44 81 -24 193q22 123 113 207q81 76 175 76z" />
    <glyph glyph-name="H" unicode="H" 
d="M179 367h273l29 161h-98l6 34h230l-6 -34h-95l-88 -494h94l-6 -34h-230l6 34h99l53 296h-273l-53 -296h97l-6 -34h-230l6 34h96l88 494h-96l6 34h230l-6 -34h-97z" />
    <glyph glyph-name="I" unicode="I" 
d="M329 528h-195l6 34h421l-6 -34h-190l-88 -494h189l-6 -34h-421l6 34h196z" />
    <glyph glyph-name="J" unicode="J" 
d="M144 227q-16 -87 -14 -113q3 -78 79 -78q70 0 104 69q9 19 13 38l68 385h-173l6 34h307l-6 -34h-97l-68 -385q-11 -63 -59 -106q-43 -38 -102 -38q-80 0 -105 73q-12 35 -5 71l15 84h37z" />
    <glyph glyph-name="K" unicode="K" 
d="M364 562h209l-6 -34h-121q-115 -136 -242 -239q87 -25 141 -118q28 -48 61 -137h118l-6 -34h-139q-56 150 -107 203q-42 44 -106 56q-14 -10 -23 -16l-37 -209h91l-6 -34h-209l6 34h82l88 494h-82l6 34h209l-6 -34h-91l-42 -237q123 93 248 237h-42z" />
    <glyph glyph-name="L" unicode="L" 
d="M227 528h-84l6 34h208l-6 -34h-87l-88 -494h247l55 189h34l-60 -223h-404l6 34h85z" />
    <glyph glyph-name="M" unicode="M" 
d="M586 528l-88 -494h46l-6 -34h-188l6 34h105l88 494h-5l-260 -407h-21l-120 407h-8l-88 -494h104l-6 -34h-187l6 34h47l88 494h-47l6 34h120l-2 -11l107 -364l236 367l2 8h121l-6 -34h-50z" />
    <glyph glyph-name="N" unicode="N" 
d="M469 54l83 474h-105l6 34h188l-6 -34h-46l-94 -535h-37l-320 535h-2l-87 -494h104l-6 -34h-187l6 34h47l87 494h-47l6 34h107z" />
    <glyph glyph-name="O" unicode="O" 
d="M350 564q100 0 155 -85q53 -83 33 -198q-22 -123 -113 -207q-81 -76 -175 -76q-100 0 -155 85q-53 83 -33 198q22 123 113 207q81 76 175 76zM343 527q-88 0 -163 -81q-64 -70 -81 -165q-20 -116 40 -190q46 -56 118 -56q88 0 163 81q64 70 81 165q20 116 -40 190
q-46 56 -118 56z" />
    <glyph glyph-name="P" unicode="P" 
d="M180 245h200q47 0 98 40q53 41 64 101q15 86 -51 125q-29 17 -61 17h-200zM9 34h96l88 494h-96l6 34h333q64 0 107 -46q47 -50 33 -130q-17 -93 -108 -146q-51 -29 -94 -29h-200l-32 -177h136l-6 -34h-269z" />
    <glyph glyph-name="Q" unicode="Q" 
d="M354 527q-88 0 -163 -81q-64 -70 -81 -165q-20 -116 40 -190q46 -56 118 -56q88 0 163 81q64 70 81 165q21 116 -40 190q-46 56 -118 56zM195 10l-45 -46q17 3 38 3q27 0 59 -33q26 -27 41 -28q26 0 67 31l12 9l17 -26l-48 -34q-24 -14 -53 -14q-28 0 -61 34
q-25 27 -39 27q-52 0 -139 -53l-11 9l133 135q-80 49 -95 157q-7 48 2 100q22 123 113 207q81 76 175 76q100 0 155 -85q53 -83 33 -198q-22 -123 -112 -207q-82 -76 -176 -76q-32 0 -66 12z" />
    <glyph glyph-name="R" unicode="R" 
d="M143 281h216q61 0 109 39q41 33 50 84q16 93 -68 117q-22 7 -47 7h-216zM326 247q53 -58 76 -148q6 -22 14 -65h70l-6 -34h-94q-22 110 -39 148q-23 53 -74 99h-137l-38 -213h130l-6 -34h-263l6 34h97l88 494h-97l6 34h350q80 0 120 -48q35 -42 23 -110
q-17 -96 -116 -138q-43 -19 -83 -19h-27z" />
    <glyph glyph-name="S" unicode="S" 
d="M510 570q-18 -33 -22 -57q-8 -49 11 -75h-32q-2 1 -3 2q-12 47 -56 75q-28 18 -60 18q-83 0 -131 -47q-24 -24 -29 -54q-12 -67 58 -100q12 -6 95 -33q83 -28 105 -68q15 -29 8 -72q-15 -82 -100 -125q-50 -25 -105 -25q-62 0 -106 43q-6 8 -12 -7q-10 -22 -23 -45h-34
l21 42q14 27 17 44q4 25 -9 63q-1 3 -2 5h34l8 -29q23 -60 82 -75q15 -4 31 -4q77 0 127 50q28 28 34 63q11 61 -56 92q-11 5 -94 33q-85 29 -108 71q-16 32 -8 77q14 80 105 118q48 20 98 20q52 0 95 -36q9 -8 12 1q7 22 15 35h34z" />
    <glyph glyph-name="T" unicode="T" 
d="M536 358l20 170h-194l-88 -494h149l-6 -34h-333l6 34h148l88 494h-193l-40 -170h-35l46 204h491l-25 -204h-34z" />
    <glyph glyph-name="U" unicode="U" 
d="M616 528h-71l-61 -349q-11 -60 -73 -117q-74 -69 -161 -69q-88 0 -139 75q-39 57 -29 111l61 349h-71l6 34h204l-6 -34h-100l-61 -349q-7 -39 28 -89q45 -63 112 -63q80 0 147 72q41 43 48 80l61 349h-99l6 34h204z" />
    <glyph glyph-name="V" unicode="V" 
d="M632 528h-50l-316 -544h-33l-125 544h-50l6 34h196l-6 -34h-106l111 -489l283 489h-106l6 34h196z" />
    <glyph glyph-name="W" unicode="W" 
d="M453 562h198l-6 -34h-24l-238 -543h-22l-44 385l-180 -385h-22l-46 543h-24l6 34h198l-6 -34h-136l38 -444l174 373h26l44 -373l194 444h-136z" />
    <glyph glyph-name="X" unicode="X" 
d="M550 528l-227 -247l139 -247h42l-6 -34h-141l6 34h53l-121 216l-199 -216h53l-6 -34h-141l6 34h42l227 247l-139 247h-35l6 34h141l-6 -34h-60l121 -216l199 216h-60l6 34h141l-6 -34h-35z" />
    <glyph glyph-name="Y" unicode="Y" 
d="M273 34h58l-6 -34h-152l6 34h57l43 239l-141 255h-35l6 34h141l-6 -34h-60l121 -216l199 216h-60l6 34h141l-6 -34h-35l-234 -255z" />
    <glyph glyph-name="Z" unicode="Z" 
d="M388 34l39 156h35l-48 -190h-339l4 20l377 508h-248l-34 -153h-35l42 187h331l-5 -23l-375 -505h256z" />
    <glyph glyph-name="bracketleft" unicode="[" 
d="M288 562h124l-6 -34h-87l-112 -632h86l-6 -34h-124z" />
    <glyph glyph-name="backslash" unicode="\" 
d="M467 -84h-42l-240 716h40z" />
    <glyph glyph-name="bracketright" unicode="]" 
d="M328 562l-123 -700h-124l6 34h86l112 632h-87l6 34h124z" />
    <glyph glyph-name="asciicircum" unicode="^" 
d="M489 357l-26 -22l-153 146l-213 -146l-18 22l242 205z" />
    <glyph glyph-name="underscore" unicode="_" 
d="M38 -72h531l-6 -34h-531z" />
    <glyph glyph-name="grave" unicode="`" 
d="M206 657h93l92 -175h-47z" />
    <glyph glyph-name="a" unicode="a" 
d="M414 239q-100 27 -181 27q-78 0 -130 -53q-30 -31 -37 -70q-11 -64 51 -99q38 -21 89 -21q80 0 143 49q19 15 42 38zM415 34h93l-6 -34h-130l9 54q-74 -63 -164 -68h-18q-87 0 -138 50q-43 43 -32 107q15 83 98 130q54 30 112 30q84 0 182 -26l3 17q7 42 -43 76
q-46 30 -111 30q-62 0 -167 -43l-8 34l63 23q75 23 119 23q96 0 151 -51q42 -40 33 -92z" />
    <glyph glyph-name="b" unicode="b" 
d="M357 390q-88 0 -156 -64q-52 -49 -63 -113q-15 -85 46 -138q45 -39 110 -39q92 0 160 69q48 47 59 108q14 83 -43 136q-45 41 -113 41zM168 591l-81 -15v34l125 22l-53 -301q71 80 172 94q16 2 32 2q100 0 154 -70q48 -61 33 -144q-17 -97 -105 -161q-72 -53 -157 -53
q-99 0 -153 70q-10 12 -17 26l-17 -95h-118l6 34h80z" />
    <glyph glyph-name="c" unicode="c" 
d="M483 377l9 22l31 -7l-21 -56q7 -13 12 -36l-37 -12q-21 67 -90 92q-29 10 -62 10q-92 0 -161 -69q-47 -47 -58 -108q-14 -81 45 -134q48 -42 121 -42q58 0 130 37q14 7 25 14l14 -33q-59 -42 -145 -53q-16 -2 -31 -2q-108 0 -164 72q-46 60 -32 141q17 97 105 160
q73 54 158 54q79 0 136 -52q11 -8 15 2z" />
    <glyph glyph-name="d" unicode="d" 
d="M526 0h-117l17 95q-71 -80 -172 -94q-16 -2 -32 -2q-100 0 -154 70q-48 61 -33 144q17 97 105 161q72 53 157 53q99 0 153 -70q10 -12 17 -26l45 258l-165 -30l6 34l204 39l-106 -598h81zM447 213q15 85 -46 138q-45 39 -110 39q-92 0 -161 -69q-47 -47 -58 -108
q-15 -83 43 -136q45 -41 113 -41q88 0 156 64q52 49 63 113z" />
    <glyph glyph-name="e" unicode="e" 
d="M484 247q-3 77 -67 118q-40 25 -92 25q-92 0 -160 -69q-33 -33 -49 -74h368zM519 213h-413q-14 -81 45 -134q47 -42 117 -42q81 0 164 49l10 6l19 -28q-73 -53 -171 -63q-15 -1 -29 -1q-98 0 -155 68q-52 61 -37 145q17 97 105 160q73 54 158 54q101 0 155 -70
q47 -60 32 -144z" />
    <glyph glyph-name="f" unicode="f" 
d="M135 34l63 358h-73l6 34h72l14 79q11 61 82 101q47 26 91 26q80 0 139 -49l-27 -30q-50 42 -119 42q-54 0 -99 -42q-25 -23 -30 -48l-14 -79h250l-6 -34h-250l-63 -358h167l-6 -34h-276l6 34h73z" />
    <glyph glyph-name="g" unicode="g" 
d="M317 390q-92 0 -160 -69q-48 -47 -59 -108q-14 -83 43 -136q45 -41 113 -41q92 0 161 69q48 47 58 108q15 83 -43 136q-45 41 -113 41zM630 426l-6 -34h-82l-75 -423q-11 -63 -95 -116q-81 -50 -161 -50q-94 0 -183 58l22 33q40 -31 114 -48q29 -6 53 -6q69 0 144 49
q62 40 69 80l23 127q-68 -78 -166 -94q-19 -3 -38 -3q-100 0 -155 70q-47 61 -33 144q17 97 105 161q73 53 157 53q100 0 154 -71q10 -12 17 -26l17 96h119z" />
    <glyph glyph-name="h" unicode="h" 
d="M157 376q86 43 114 52q39 12 72 12q72 0 118 -55q35 -43 26 -89l-46 -261h85l-6 -35h-208l6 35h87l46 261q7 35 -32 72q-36 35 -83 35q-66 0 -188 -71l-53 -297h85l-6 -35h-208l6 35h87l98 555l-91 -22l6 34l130 30z" />
    <glyph glyph-name="i" unicode="i" 
d="M356 584l-18 -97h-74l18 97h74zM321 392h-186l6 34h223l-70 -392h173l-6 -34h-396l6 34h186z" />
    <glyph glyph-name="j" unicode="j" 
d="M357 583l-18 -97h-74l18 97h74zM32 -134q29 -22 92 -26h13q50 0 94 59q27 35 33 70l75 423h-131l6 34h168l-81 -457q-10 -61 -63 -114q-51 -52 -108 -52q-80 0 -120 30z" />
    <glyph glyph-name="k" unicode="k" 
d="M300 34h35l-126 198l-37 -27l-36 -205h-137l6 34h100l97 551l-106 -36l6 34l146 49l-67 -378l189 138h-33l6 34h170l-6 -34h-80l-186 -136l142 -222h94l-6 -34h-177z" />
    <glyph glyph-name="l" unicode="l" 
d="M303 589l-170 -40l6 34l209 49l-106 -598h216l-6 -34h-416l6 34h163z" />
    <glyph glyph-name="m" unicode="m" 
d="M340 373q45 45 101 64q11 3 17 3q80 0 78 -85q-1 -21 -8 -59l-46 -261h85l-6 -35h-123l52 296q11 62 4 82q-9 25 -42 25q-38 0 -113 -70l-53 -298h85l-6 -35h-122l52 296q19 107 -39 107q-39 0 -110 -68l-3 -3l-53 -297h85l-6 -35h-208l6 35h87l63 357h-87l6 34h123
l-8 -50q21 31 82 56q20 8 30 8q71 0 77 -67z" />
    <glyph glyph-name="n" unicode="n" 
d="M173 376l42 21q88 43 145 43q67 0 113 -53q40 -44 31 -91l-46 -262h85l-6 -34h-208l6 34h87l46 262q7 35 -32 72q-37 35 -83 35q-67 0 -188 -71l-53 -298h85l-6 -34h-208l6 34h87l63 358h-87l6 34h124q-5 -13 -9 -50z" />
    <glyph glyph-name="o" unicode="o" 
d="M338 427q99 0 154 -70q48 -61 33 -144q-17 -97 -105 -160q-73 -54 -158 -54q-99 0 -154 70q-48 61 -33 144q17 97 105 160q73 54 158 54zM331 390q-90 0 -159 -68q-49 -48 -60 -109q-15 -83 43 -136q45 -41 114 -41q96 0 163 69q45 46 56 108q16 89 -47 141
q-44 36 -110 36z" />
    <glyph glyph-name="p" unicode="p" 
d="M328 36q90 0 159 68q49 48 60 109q14 83 -43 136q-45 41 -113 41q-88 0 -156 -64q-52 -48 -63 -113q-16 -89 46 -141q44 -36 110 -36zM71 -146l96 538h-81l6 34h117l-16 -95q71 80 172 94q16 2 32 2q99 0 154 -70q47 -61 33 -144q-17 -97 -105 -161q-73 -53 -157 -53
q-100 0 -156 72q-8 11 -15 24l-43 -241h123l-6 -34h-239l6 34h79z" />
    <glyph glyph-name="q" unicode="q" 
d="M242 36q93 0 160 68q47 46 58 109q15 87 -48 140q-45 37 -109 37q-91 0 -159 -68q-48 -48 -59 -109q-15 -81 43 -135q45 -42 114 -42zM433 -146h79l-6 -34h-239l6 34h123l43 241q-72 -82 -175 -94q-15 -2 -30 -2q-99 0 -153 70q-48 61 -33 144q17 97 104 160
q73 54 159 54q98 0 153 -71q10 -12 17 -25l16 95h117l-6 -34h-81z" />
    <glyph glyph-name="r" unicode="r" 
d="M487 363q-9 15 -53 31q-23 9 -40 9q-65 0 -176 -60q-10 -6 -19 -11l-53 -297h85l-6 -35h-209l6 35h87l63 357h-87l6 34h124l-8 -50l42 21q85 43 151 43q63 0 111 -41q6 -6 11 -12z" />
    <glyph glyph-name="s" unicode="s" 
d="M499 432q-16 -24 -20 -49q-8 -40 13 -62h-34q-14 36 -59 59q-30 15 -62 15q-108 0 -143 -45q-9 -11 -12 -25q-9 -51 60 -75q8 -3 101 -26q92 -23 111 -63q10 -21 5 -49q-12 -64 -96 -98q-49 -19 -103 -19q-63 0 -108 33q-7 6 -12 -5l-21 -35h-34l20 33q12 20 16 39
q3 19 -10 50q-2 4 -4 6h34l10 -22q28 -53 96 -61q10 -1 20 -1q96 0 137 45q14 16 18 35q8 47 -58 69l-137 35q-84 28 -84 89q0 10 2 20q12 64 104 93q46 14 94 14q51 0 96 -27q10 -7 12 0q6 18 14 27h34z" />
    <glyph glyph-name="t" unicode="t" 
d="M81 426h78l23 132h37l-23 -132h252l-6 -34h-252l-45 -251q-9 -53 39 -92q37 -31 88 -31q72 0 207 115l24 -24q-95 -87 -182 -117q-31 -11 -56 -11q-76 0 -124 54q-42 47 -32 106l45 251h-79z" />
    <glyph glyph-name="u" unicode="u" 
d="M426 51q-37 -18 -43 -21q-88 -43 -145 -43q-66 0 -113 53q-40 44 -31 91l46 261h-85l6 34h122l-53 -295q-6 -35 32 -72q37 -35 83 -35q67 0 188 71l53 297h-85l6 34h122l-69 -391h86l-6 -35h-123z" />
    <glyph glyph-name="v" unicode="v" 
d="M623 392h-76l-272 -405h-28l-128 405h-76l6 34h191l-6 -34h-74l111 -350l235 350h-74l6 34h191z" />
    <glyph glyph-name="w" unicode="w" 
d="M110 392l46 -336l152 269h28l56 -269l166 336h-125l6 34h201l-6 -34h-37l-204 -416h-24l-59 282l-159 -282h-24l-56 416h-37l6 34h201l-6 -34h-125z" />
    <glyph glyph-name="x" unicode="x" 
d="M134 0h-159l6 34h57l234 178l-173 180h-54l6 34h159l-6 -34h-49l149 -155l205 155h-49l6 34h159l-6 -34h-54l-237 -180l170 -178h57l-6 -34h-159l6 34h46l-147 153l-201 -153h46z" />
    <glyph glyph-name="y" unicode="y" 
d="M232 -168h-284l6 34h213l89 134l-124 392h-76l6 34h191l-6 -34h-74l112 -350l234 350h-74l6 34h191l-6 -34h-76l-352 -526h30z" />
    <glyph glyph-name="z" unicode="z" 
d="M531 392l-412 -358h332l7 36h34l-13 -70h-418l6 34l412 358h-330l-7 -36h-34l13 70h416z" />
    <glyph glyph-name="braceleft" unicode="{" 
d="M207 245q36 -28 32 -81q0 -5 -1 -9l-24 -136q-13 -74 44 -95q18 -6 40 -6h20l-6 -38h-20q-83 0 -108 63q-13 33 -6 76l24 136q7 37 -21 59q-15 12 -38 12l6 37q49 0 75 47q7 13 9 25l24 136q15 83 85 120q36 19 78 19h20l-6 -37h-20q-77 0 -108 -66q-8 -17 -11 -36
l-24 -136q-8 -46 -50 -80q-7 -6 -14 -10z" />
    <glyph glyph-name="bar" unicode="|" 
d="M381 562l-124 -705h-38l124 705h38z" />
    <glyph glyph-name="braceright" unicode="}" 
d="M320 245q-36 28 -32 81q0 5 1 9l24 136q13 73 -43 95q-18 7 -41 7h-20l6 37h20q84 0 109 -63q13 -33 6 -76l-24 -136q-7 -38 21 -60q15 -12 37 -12l-6 -37q-49 0 -75 -46q-7 -13 -9 -25l-24 -136q-15 -84 -86 -121q-35 -18 -77 -18h-20l6 38h20q77 0 108 64q9 17 12 37
l24 136q9 49 52 82q5 4 11 8z" />
    <glyph glyph-name="asciitilde" unicode="~" 
d="M40 252q65 51 104 62q21 6 44 6q58 0 111 -46q45 -39 55 -46q30 -18 64 -18q47 0 112 50q4 3 13 10l17 -26q-69 -52 -109 -63q-19 -5 -39 -5q-58 0 -112 46q-45 39 -55 45q-29 19 -63 19q-47 0 -106 -45q-4 -3 -19 -15z" />
    <glyph glyph-name="uni00A0" unicode="&#xa0;" 
 />
    <glyph glyph-name="exclamdown" unicode="&#xa1;" 
d="M183 -18l90 454h37l-70 -454h-57zM377 554q-6 -34 -43 -50q-15 -6 -30 -6q-40 0 -53 30q-5 12 -3 26q7 34 45 50q15 6 30 6q39 0 52 -30q5 -12 2 -26z" />
    <glyph glyph-name="cent" unicode="&#xa2;" 
d="M432 432l9 23l32 -7l-22 -56q7 -13 13 -36l-37 -12q-22 65 -90 90q-29 11 -63 11q-92 0 -160 -68q-48 -48 -59 -108q-14 -82 46 -135q48 -42 120 -42q57 0 131 37q14 7 24 14l14 -33q-58 -42 -145 -52q-12 -2 -22 -2l-21 -118h-34l21 119q-100 9 -147 83q-36 57 -24 128
q17 97 106 161q64 47 140 52l24 137h34l-24 -137q69 -4 120 -50q11 -10 14 1z" />
    <glyph glyph-name="sterling" unicode="&#xa3;" 
d="M88 330h69q-14 46 -7 88q18 99 116 152q63 34 132 34q72 0 123 -48q15 -14 37 -39l-29 -24q-47 55 -82 68q-23 9 -55 9q-92 0 -155 -58q-43 -40 -53 -94q-7 -40 11 -88h222l-6 -34h-204q14 -50 7 -91q-13 -73 -71 -150q27 7 57 7q34 0 72 -30q34 -27 58 -28q52 0 91 35
q6 5 12 11l22 -22q-53 -54 -118 -58h-13q-34 0 -72 30q-33 27 -58 28q-67 0 -108 -35l-6 -5v0l-19 24v0l5 5q61 53 95 129q14 31 19 59q6 39 -11 91h-87z" />
    <glyph glyph-name="currency" unicode="&#xa4;" 
d="M337 447q78 0 128 -51l74 63l20 -25l-74 -62q40 -58 26 -135q-14 -78 -76 -138l49 -59l-28 -25l-50 60q-65 -49 -143 -49q-77 0 -127 50l-70 -60l-20 23l70 61q-41 59 -27 136q13 76 74 136l-52 62l28 25l52 -63q66 51 146 51zM331 410q-85 0 -149 -67q-46 -47 -56 -106
q-15 -83 41 -135q41 -39 102 -39q85 0 149 67q45 47 56 106q14 83 -41 135q-41 39 -102 39z" />
    <glyph glyph-name="yen" unicode="&#xa5;" 
d="M273 34h58l-6 -34h-152l6 34h57l25 138h-177l6 34h177l12 67l-17 30h-155l6 34h130l-105 191h-35l6 34h141l-6 -34h-60l108 -191h36l176 191h-60l6 34h141l-6 -34h-35l-176 -191h132l-6 -34h-157l-27 -30l-12 -67h179l-6 -34h-179z" />
    <glyph glyph-name="brokenbar" unicode="&#xa6;" 
d="M312 167l-55 -310h-38l55 310h38zM301 321l42 241h38l-42 -241h-38z" />
    <glyph glyph-name="section" unicode="&#xa7;" 
d="M243 371l-3 -2q-68 -46 -74 -82q-9 -52 87 -120q-27 19 21 -15q32 -23 50 -38l3 2q68 46 74 82q9 50 -82 118l-26 18q-48 35 -50 37zM129 10l-12 -68h186q41 0 51 29q2 5 3 13q9 49 -61 105l-102 77q-73 61 -62 121q8 50 87 106q-53 52 -43 109q13 76 94 76h231l-18 -102
h-34l12 68h-197q-41 0 -51 -29q-2 -5 -3 -13q-9 -49 62 -106l100 -76q74 -62 63 -122q-9 -49 -82 -102q-2 -2 -4 -3q52 -55 42 -109q-13 -76 -94 -76h-220l18 102h34z" />
    <glyph glyph-name="dieresis" unicode="&#xa8;" 
d="M129 520q5 26 31 36q7 2 14 2q25 0 31 -24q1 -7 0 -14q-5 -26 -31 -36q-7 -2 -14 -2q-25 0 -31 24q-1 7 0 14zM286 520q5 26 31 36q7 2 14 2q25 0 31 -24q1 -7 0 -14q-5 -26 -31 -36q-7 -2 -14 -2q-25 0 -31 24q-1 7 0 14z" />
    <glyph glyph-name="copyright" unicode="&#xa9;" 
d="M350 554q118 0 187 -84q68 -82 47 -199q-21 -121 -123 -205q-96 -79 -211 -79q-118 0 -187 84q-68 82 -47 199q21 121 123 205q96 79 211 79zM344 520q-112 0 -201 -83q-76 -71 -93 -166q-19 -110 49 -184q60 -66 157 -66q112 0 201 83q76 71 93 166q19 110 -49 184
q-60 66 -157 66zM390 155q-53 -49 -117 -49q-73 0 -108 60q-26 44 -16 100q14 78 81 126q46 34 98 34q71 0 105 -55l-30 -21q-28 42 -80 42q-62 0 -106 -54q-27 -33 -34 -72q-12 -67 33 -104q26 -22 62 -22q51 0 91 38z" />
    <glyph glyph-name="ordfeminine" unicode="&#xaa;" 
d="M415 162h-288l6 34h288zM387 432q-58 16 -109 16q-53 0 -84 -40q-12 -16 -15 -34q-7 -42 38 -62q20 -9 46 -9q53 0 95 37q7 6 16 14zM388 309h56l-4 -21h-78l6 33q-47 -41 -109 -41q-61 0 -90 38q-18 24 -13 56q10 56 69 83q28 13 57 13q47 0 109 -15l2 10q5 29 -33 49
q-26 14 -59 14q-37 0 -100 -25l-6 20l39 14q46 13 71 13q66 0 97 -37q18 -22 13 -48z" />
    <glyph glyph-name="guillemotleft" unicode="&#xab;" 
d="M362 422l-246 -182l182 -181l-35 -32l-250 213l326 213zM553 422l-246 -182l182 -181l-35 -32l-250 213l326 213z" />
    <glyph glyph-name="logicalnot" unicode="&#xac;" 
d="M86 347h368l-30 -171h-37l23 133h-331z" />
    <glyph glyph-name="uni00AD" unicode="&#xad;" 
d="M121 290h311l-6 -37h-311z" />
    <glyph glyph-name="registered" unicode="&#xae;" 
d="M262 300h78q29 0 39 36l2 8q7 38 -15 49q-5 3 -12 3h-75zM331 266l45 -122h-37l-47 122h-36l-22 -125h-34l51 289h109q44 0 55 -45q4 -18 0 -39q-9 -56 -51 -74q-14 -6 -30 -6h-3zM350 554q118 0 187 -84q68 -82 47 -199q-21 -121 -123 -205q-96 -79 -211 -79
q-118 0 -187 84q-68 82 -47 199q21 121 123 205q96 79 211 79zM344 520q-112 0 -201 -83q-76 -71 -93 -166q-19 -110 49 -184q60 -66 157 -66q112 0 201 83q76 71 93 166q19 110 -49 184q-60 66 -157 66z" />
    <glyph glyph-name="macron" unicode="&#xaf;" 
d="M74 562h347l-6 -34h-347z" />
    <glyph glyph-name="degree" unicode="&#xb0;" 
d="M434 613q64 0 94 -51q20 -34 12 -76q-12 -66 -72 -104q-38 -24 -78 -24q-64 0 -94 51q-20 34 -12 76q12 66 72 104q38 24 78 24zM428 579q-53 0 -89 -46q-16 -22 -21 -47q-9 -52 30 -80q21 -14 48 -14q53 0 89 46q16 22 21 47q9 52 -30 80q-21 14 -48 14z" />
    <glyph glyph-name="plusminus" unicode="&#xb1;" 
d="M313 417l-17 -99h177l-7 -37h-176l-15 -88h-37l15 88h-171l7 37h170l17 99h37zM54 124h385l-6 -37h-385z" />
    <glyph glyph-name="twosuperior" unicode="&#xb2;" 
d="M205 507l4 28q43 92 128 92q57 0 77 -37q10 -18 6 -43q-10 -54 -73 -94q-1 0 -48 -27l-56 -33q-33 -23 -38 -55l-5 -28h157l9 53h21l-13 -73h-200l9 48q8 49 76 90l84 47q10 7 18 14q31 24 37 58q7 39 -36 53q-14 5 -32 5q-74 0 -98 -76q-3 -11 -5 -22h-22z" />
    <glyph glyph-name="threesuperior" unicode="&#xb3;" 
d="M370 477q38 -26 28 -87q-10 -56 -71 -85q-31 -14 -63 -14q-48 0 -79 41q-2 3 -13 17l19 15q25 -34 38 -41q16 -10 39 -10q56 0 89 39q15 17 19 38q8 47 -20 69q-11 9 -24 9h-39l4 22h39q39 0 59 33q6 9 7 19q9 48 -45 61q-14 3 -32 3q-55 0 -101 -53l-15 13q54 63 120 63
q73 0 92 -46q7 -18 3 -41q-7 -43 -54 -65z" />
    <glyph glyph-name="acute" unicode="&#xb4;" 
d="M418 657l-199 -175h-46l152 175h93z" />
    <glyph glyph-name="mu" unicode="&#xb5;" 
d="M82 426h121l-55 -312q-4 -63 55 -84q22 -8 51 -8q78 0 171 87q4 3 8 7l48 276h-85l6 34h122l-69 -392h85l-6 -34h-122l12 66q-84 -75 -166 -81h-11q-79 0 -113 44l-38 -221h-38l102 584h-84z" />
    <glyph glyph-name="paragraph" unicode="&#xb6;" 
d="M341 262l47 266h-67q-86 0 -147 -46q-46 -35 -55 -87q-16 -94 80 -123q32 -10 69 -10h73zM425 528l-104 -587h-165l6 34h128l45 253h-73q-94 0 -144 47q-46 44 -33 120q18 103 134 147q54 20 108 20h275l-6 -34h-38l-98 -553h65l-6 -34h-101l104 587h-97z" />
    <glyph glyph-name="periodcentered" unicode="&#xb7;" 
d="M232 248q6 36 46 54q18 8 36 8q42 0 57 -33q6 -14 3 -29q-6 -36 -46 -54q-18 -8 -36 -8q-42 0 -57 33q-6 14 -3 29z" />
    <glyph glyph-name="cedilla" unicode="&#xb8;" 
d="M353 26l-19 -54q64 12 92 -29q14 -22 10 -49q-10 -52 -72 -75q-47 -18 -115 -11l11 34q90 -12 128 28q9 9 10 18q9 50 -46 53q-17 0 -38 -4l-26 -6l28 94z" />
    <glyph glyph-name="onesuperior" unicode="&#xb9;" 
d="M170 311h95l51 291l-97 -61l-9 14l118 74h14l-56 -318h95l-4 -18h-95h-21h-95z" />
    <glyph glyph-name="ordmasculine" unicode="&#xba;" 
d="M415 162h-288l6 34h288zM332 548q67 0 98 -51q21 -34 13 -77q-11 -65 -74 -104q-39 -24 -82 -24q-67 0 -99 51q-21 34 -14 77q12 65 74 103q40 25 84 25zM328 526q-63 0 -105 -51q-21 -25 -27 -55q-9 -56 34 -88q26 -18 61 -18q62 0 104 50q21 26 26 56q10 56 -33 88
q-25 18 -60 18z" />
    <glyph glyph-name="guillemotright" unicode="&#xbb;" 
d="M297 422l35 31l250 -213l-326 -213l-23 32l246 181zM105 422l35 31l250 -213l-326 -213l-23 32l246 181z" />
    <glyph glyph-name="onequarter" unicode="&#xbc;" 
d="M143 5l317 627l30 -10l-317 -627zM504 331l-199 -199h164zM493 132h55l-4 -25h-55l-15 -84h60l-4 -23h-144l4 23h60l15 84h-200l3 20l250 250h18zM29 309h95l51 290l-96 -61l-10 15l117 73h14l-56 -317h95l-3 -19h-95h-20h-95z" />
    <glyph glyph-name="onehalf" unicode="&#xbd;" 
d="M143 5l317 627l31 -9l-318 -628zM29 309h95l51 290l-96 -61l-10 15l117 73h14l-56 -317h95l-3 -19h-95h-20h-95zM357 216l5 28q42 92 126 92q60 0 79 -39q9 -18 5 -41q-10 -54 -73 -94q-1 0 -47 -27l-57 -32q-32 -23 -38 -55l-5 -28h157l10 53h21l-13 -73h-200l8 48
q9 49 77 89l83 47q10 7 19 14q30 24 36 58q7 40 -37 53q-14 5 -32 5q-72 0 -96 -75q-4 -11 -6 -23h-22z" />
    <glyph glyph-name="threequarters" unicode="&#xbe;" 
d="M140 5l317 627l31 -9l-318 -628zM504 331l-199 -199h164zM493 132h55l-4 -25h-55l-15 -84h60l-4 -23h-144l4 23h60l15 84h-200l3 20l250 250h18zM236 477q38 -26 27 -87q-9 -56 -70 -85q-31 -14 -63 -14q-48 0 -79 41q-3 3 -13 17l19 15q25 -34 38 -41q16 -10 39 -10
q56 0 89 40q14 17 17 37q9 47 -18 69q-11 9 -24 9h-40l4 22h40q39 0 59 33q6 9 7 19q9 47 -44 60q-15 4 -33 4q-55 0 -101 -53l-16 13q56 63 121 63q73 0 92 -46q7 -18 3 -41q-7 -44 -54 -65z" />
    <glyph glyph-name="questiondown" unicode="&#xbf;" 
d="M278 403l-11 -58q-8 -45 -71 -92l-68 -50q-47 -40 -55 -84q-10 -62 59 -87q30 -11 68 -11q85 0 128 41q18 17 22 39l3 18h37l-3 -18q-12 -69 -97 -100q-45 -17 -95 -17q-94 0 -138 51q-29 34 -21 84q12 63 89 121l70 53q31 27 35 52l11 58h37zM345 504q-6 -36 -46 -54
q-17 -8 -36 -8q-42 0 -56 33q-6 14 -4 29q7 36 47 54q17 8 35 8q43 0 57 -33q6 -14 3 -29z" />
    <glyph glyph-name="Agrave" unicode="&#xc0;" 
d="M150 799h93l92 -175h-47zM226 283h152l-34 238zM317 34h96l-31 212h-172l-107 -212h95l-6 -34h-213l6 34h79l246 494h-144l6 34h207l73 -528h75l-6 -34h-210z" />
    <glyph glyph-name="Aacute" unicode="&#xc1;" 
d="M538 799l-199 -175h-46l152 175h93zM226 283h152l-34 238zM317 34h96l-31 212h-172l-107 -212h95l-6 -34h-213l6 34h79l246 494h-144l6 34h207l73 -528h75l-6 -34h-210z" />
    <glyph glyph-name="Acircumflex" unicode="&#xc2;" 
d="M464 638l-17 -14l-99 93l-135 -93l-11 14l142 121h21zM226 283h152l-34 238zM317 34h96l-31 212h-172l-107 -212h95l-6 -34h-213l6 34h79l246 494h-144l6 34h207l73 -528h75l-6 -34h-210z" />
    <glyph glyph-name="Atilde" unicode="&#xc3;" 
d="M184 625q9 43 52 67q19 11 37 11q15 1 40 -22q14 -13 23 -12q34 3 59 30h5q-4 -40 -36 -63q-16 -11 -34 -11q-23 1 -43 22q-13 13 -25 13q-40 -1 -68 -35h-10zM226 283h152l-34 238zM317 34h96l-31 212h-172l-107 -212h95l-6 -34h-213l6 34h79l246 494h-144l6 34h207
l73 -528h75l-6 -34h-210z" />
    <glyph glyph-name="Adieresis" unicode="&#xc4;" 
d="M209 662q5 26 31 36q7 2 14 2q25 0 31 -24q1 -7 0 -14q-5 -26 -31 -36q-7 -2 -14 -2q-25 0 -31 24q-1 7 0 14zM366 662q5 26 31 36q7 2 14 2q25 0 31 -24q1 -7 0 -14q-5 -26 -31 -36q-7 -2 -14 -2q-25 0 -31 24q-1 7 0 14zM226 283h152l-34 238zM317 34h96l-31 212h-172
l-107 -212h95l-6 -34h-213l6 34h79l246 494h-144l6 34h207l73 -528h75l-6 -34h-210z" />
    <glyph glyph-name="Aring" unicode="&#xc5;" 
d="M343 785q49 0 69 -42q11 -22 6 -49q-9 -51 -57 -78q-25 -13 -50 -13q-49 0 -69 42q-11 22 -6 49q9 51 57 78q25 13 50 13zM337 751q-36 0 -58 -34q-7 -11 -9 -23q-6 -34 22 -51q11 -6 25 -6q36 0 58 34q7 11 9 23q6 34 -22 51q-11 6 -25 6zM226 283h152l-34 238zM317 34
h96l-31 212h-172l-107 -212h95l-6 -34h-213l6 34h79l246 494h-144l6 34h207l73 -528h75l-6 -34h-210z" />
    <glyph glyph-name="AE" unicode="&#xc6;" 
d="M312 283l42 238l-125 -238h83zM507 402l-25 -143h-34l11 62h-103l-51 -287h182l28 87h34l-34 -121h-253l44 246h-96l-112 -212h95l-6 -34h-213l6 34h79l261 494h-159l6 34h448l-12 -115h-34l6 81h-182l-31 -173h103l8 47h34z" />
    <glyph glyph-name="Ccedilla" unicode="&#xc7;" 
d="M358 6l-19 -54q64 12 92 -29q14 -22 10 -49q-10 -52 -72 -75q-47 -18 -115 -11l11 34q90 -12 128 28q9 9 10 18q9 50 -46 53q-17 0 -38 -4l-26 -6l28 94zM375 564q81 0 117 -44q9 -7 11 0q7 24 20 42h34q-20 -36 -26 -70q-3 -18 8 -66h-35q-7 59 -70 87q-31 14 -66 14
q-88 0 -163 -81q-64 -70 -81 -165q-20 -116 40 -190q46 -56 118 -56q66 0 127 44q13 10 24 21l27 -21q-56 -58 -141 -76q-23 -5 -44 -5q-101 0 -156 86q-52 82 -32 197q22 124 113 208q81 75 175 75z" />
    <glyph glyph-name="Egrave" unicode="&#xc8;" 
d="M143 799h93l92 -175h-47zM456 402l-25 -143h-34l11 62h-194l-51 -287h273l28 87h34l-34 -121h-440l6 34h97l88 494h-97l6 34h440l-12 -115h-34l6 81h-273l-31 -173h194l8 47h34z" />
    <glyph glyph-name="Eacute" unicode="&#xc9;" 
d="M526 799l-199 -175h-46l152 175h93zM456 402l-25 -143h-34l11 62h-194l-51 -287h273l28 87h34l-34 -121h-440l6 34h97l88 494h-97l6 34h440l-12 -115h-34l6 81h-273l-31 -173h194l8 47h34z" />
    <glyph glyph-name="Ecircumflex" unicode="&#xca;" 
d="M457 638l-17 -14l-99 93l-135 -93l-11 14l142 121h21zM456 402l-25 -143h-34l11 62h-194l-51 -287h273l28 87h34l-34 -121h-440l6 34h97l88 494h-97l6 34h440l-12 -115h-34l6 81h-273l-31 -173h194l8 47h34z" />
    <glyph glyph-name="Edieresis" unicode="&#xcb;" 
d="M202 662q5 26 31 36q7 2 14 2q25 0 31 -24q1 -7 0 -14q-5 -26 -31 -36q-7 -2 -14 -2q-25 0 -31 24q-1 7 0 14zM359 662q5 26 31 36q7 2 14 2q25 0 31 -24q1 -7 0 -14q-5 -26 -31 -36q-7 -2 -14 -2q-25 0 -31 24q-1 7 0 14zM456 402l-25 -143h-34l11 62h-194l-51 -287h273
l28 87h34l-34 -121h-440l6 34h97l88 494h-97l6 34h440l-12 -115h-34l6 81h-273l-31 -173h194l8 47h34z" />
    <glyph glyph-name="Igrave" unicode="&#xcc;" 
d="M150 799h93l92 -175h-47zM329 528h-195l6 34h421l-6 -34h-190l-88 -494h189l-6 -34h-421l6 34h196z" />
    <glyph glyph-name="Iacute" unicode="&#xcd;" 
d="M532 799l-199 -175h-46l152 175h93zM329 528h-195l6 34h421l-6 -34h-190l-88 -494h189l-6 -34h-421l6 34h196z" />
    <glyph glyph-name="Icircumflex" unicode="&#xce;" 
d="M464 638l-17 -14l-99 93l-135 -93l-11 14l142 121h21zM329 528h-195l6 34h421l-6 -34h-190l-88 -494h189l-6 -34h-421l6 34h196z" />
    <glyph glyph-name="Idieresis" unicode="&#xcf;" 
d="M209 662q5 26 31 36q7 2 14 2q25 0 31 -24q1 -7 0 -14q-5 -26 -31 -36q-7 -2 -14 -2q-25 0 -31 24q-1 7 0 14zM366 662q5 26 31 36q7 2 14 2q25 0 31 -24q1 -7 0 -14q-5 -26 -31 -36q-7 -2 -14 -2q-25 0 -31 24q-1 7 0 14zM329 528h-195l6 34h421l-6 -34h-190l-88 -494
h189l-6 -34h-421l6 34h196z" />
    <glyph glyph-name="Eth" unicode="&#xd0;" 
d="M141 34h162q66 0 133 84q62 77 78 166q12 73 -14 148q-33 96 -109 96h-162l-38 -212h69l-6 -34h-69zM8 34h96l44 248h-66l6 34h66l38 212h-96l6 34h295q101 0 140 -114q26 -80 12 -162q-16 -92 -74 -175q-77 -111 -178 -111h-295z" />
    <glyph glyph-name="Ntilde" unicode="&#xd1;" 
d="M177 625q9 43 52 67q19 11 37 11q15 1 40 -22q14 -13 23 -12q34 3 59 30h5q-4 -40 -36 -63q-16 -11 -34 -11q-23 1 -43 22q-13 13 -25 13q-40 -1 -68 -35h-10zM469 54l83 474h-105l6 34h188l-6 -34h-46l-94 -535h-37l-320 535h-2l-87 -494h104l-6 -34h-187l6 34h47
l87 494h-47l6 34h107z" />
    <glyph glyph-name="Ograve" unicode="&#xd2;" 
d="M149 799h93l92 -175h-47zM350 564q100 0 155 -85q53 -83 33 -198q-22 -123 -113 -207q-81 -76 -175 -76q-100 0 -155 85q-53 83 -33 198q22 123 113 207q81 76 175 76zM343 527q-88 0 -163 -81q-64 -70 -81 -165q-20 -116 40 -190q46 -56 118 -56q88 0 163 81
q64 70 81 165q20 116 -40 190q-46 56 -118 56z" />
    <glyph glyph-name="Oacute" unicode="&#xd3;" 
d="M532 799l-199 -175h-46l152 175h93zM350 564q100 0 155 -85q53 -83 33 -198q-22 -123 -113 -207q-81 -76 -175 -76q-100 0 -155 85q-53 83 -33 198q22 123 113 207q81 76 175 76zM343 527q-88 0 -163 -81q-64 -70 -81 -165q-20 -116 40 -190q46 -56 118 -56q88 0 163 81
q64 70 81 165q20 116 -40 190q-46 56 -118 56z" />
    <glyph glyph-name="Ocircumflex" unicode="&#xd4;" 
d="M463 638l-17 -14l-99 93l-135 -93l-11 14l142 121h21zM350 564q100 0 155 -85q53 -83 33 -198q-22 -123 -113 -207q-81 -76 -175 -76q-100 0 -155 85q-53 83 -33 198q22 123 113 207q81 76 175 76zM343 527q-88 0 -163 -81q-64 -70 -81 -165q-20 -116 40 -190
q46 -56 118 -56q88 0 163 81q64 70 81 165q20 116 -40 190q-46 56 -118 56z" />
    <glyph glyph-name="Otilde" unicode="&#xd5;" 
d="M177 625q9 43 52 67q19 11 37 11q15 1 40 -22q14 -13 23 -12q34 3 59 30h5q-4 -40 -36 -63q-16 -11 -34 -11q-23 1 -43 22q-13 13 -25 13q-40 -1 -68 -35h-10zM350 564q100 0 155 -85q53 -83 33 -198q-22 -123 -113 -207q-81 -76 -175 -76q-100 0 -155 85q-53 83 -33 198
q22 123 113 207q81 76 175 76zM343 527q-88 0 -163 -81q-64 -70 -81 -165q-20 -116 40 -190q46 -56 118 -56q88 0 163 81q64 70 81 165q20 116 -40 190q-46 56 -118 56z" />
    <glyph glyph-name="Odieresis" unicode="&#xd6;" 
d="M208 662q5 26 31 36q7 2 14 2q25 0 31 -24q1 -7 0 -14q-5 -26 -31 -36q-7 -2 -14 -2q-25 0 -31 24q-1 7 0 14zM365 662q5 26 31 36q7 2 14 2q25 0 31 -24q1 -7 0 -14q-5 -26 -31 -36q-7 -2 -14 -2q-25 0 -31 24q-1 7 0 14zM350 564q100 0 155 -85q53 -83 33 -198
q-22 -123 -113 -207q-81 -76 -175 -76q-100 0 -155 85q-53 83 -33 198q22 123 113 207q81 76 175 76zM343 527q-88 0 -163 -81q-64 -70 -81 -165q-20 -116 40 -190q46 -56 118 -56q88 0 163 81q64 70 81 165q20 116 -40 190q-46 56 -118 56z" />
    <glyph glyph-name="multiply" unicode="&#xd7;" 
d="M428 357l-104 -88l72 -88l-28 -24l-72 88l-104 -88l-20 24l104 88l-72 88l28 24l72 -88l104 88z" />
    <glyph glyph-name="Oslash" unicode="&#xd8;" 
d="M350 564q75 0 127 -52l71 82l24 -20l-74 -85q61 -86 40 -208q-22 -124 -114 -208q-81 -75 -174 -75q-78 0 -132 55l-70 -81l-24 20l75 86q-58 84 -37 203q22 124 113 208q81 75 175 75zM145 84q45 -49 111 -49q89 0 163 81q65 70 82 165q18 103 -30 176zM343 527
q-89 0 -163 -81q-65 -70 -81 -165q-18 -101 27 -172l324 373q-45 45 -107 45z" />
    <glyph glyph-name="Ugrave" unicode="&#xd9;" 
d="M149 799h93l92 -175h-47zM616 528h-71l-61 -349q-11 -60 -73 -117q-74 -69 -161 -69q-88 0 -139 75q-39 57 -29 111l61 349h-71l6 34h204l-6 -34h-100l-61 -349q-7 -39 28 -89q45 -63 112 -63q80 0 147 72q41 43 48 80l61 349h-99l6 34h204z" />
    <glyph glyph-name="Uacute" unicode="&#xda;" 
d="M532 799l-199 -175h-46l152 175h93zM616 528h-71l-61 -349q-11 -60 -73 -117q-74 -69 -161 -69q-88 0 -139 75q-39 57 -29 111l61 349h-71l6 34h204l-6 -34h-100l-61 -349q-7 -39 28 -89q45 -63 112 -63q80 0 147 72q41 43 48 80l61 349h-99l6 34h204z" />
    <glyph glyph-name="Ucircumflex" unicode="&#xdb;" 
d="M463 638l-17 -14l-99 93l-135 -93l-11 14l142 121h21zM616 528h-71l-61 -349q-11 -60 -73 -117q-74 -69 -161 -69q-88 0 -139 75q-39 57 -29 111l61 349h-71l6 34h204l-6 -34h-100l-61 -349q-7 -39 28 -89q45 -63 112 -63q80 0 147 72q41 43 48 80l61 349h-99l6 34h204z
" />
    <glyph glyph-name="Udieresis" unicode="&#xdc;" 
d="M208 662q5 26 31 36q7 2 14 2q25 0 31 -24q1 -7 0 -14q-5 -26 -31 -36q-7 -2 -14 -2q-25 0 -31 24q-1 7 0 14zM365 662q5 26 31 36q7 2 14 2q25 0 31 -24q1 -7 0 -14q-5 -26 -31 -36q-7 -2 -14 -2q-25 0 -31 24q-1 7 0 14zM616 528h-71l-61 -349q-11 -60 -73 -117
q-74 -69 -161 -69q-88 0 -139 75q-39 57 -29 111l61 349h-71l6 34h204l-6 -34h-100l-61 -349q-7 -39 28 -89q45 -63 112 -63q80 0 147 72q41 43 48 80l61 349h-99l6 34h204z" />
    <glyph glyph-name="Yacute" unicode="&#xdd;" 
d="M532 799l-199 -175h-46l152 175h93zM273 34h58l-6 -34h-152l6 34h57l43 239l-141 255h-35l6 34h141l-6 -34h-60l121 -216l199 216h-60l6 34h141l-6 -34h-35l-234 -255z" />
    <glyph glyph-name="Thorn" unicode="&#xde;" 
d="M178 235h200q137 0 155 101q16 90 -78 100q-16 2 -41 2h-200zM9 34h96l88 494h-96l6 34h230l-7 -36h-96l-9 -54h199q149 0 150 -104q0 -15 -3 -32q-20 -112 -149 -131q-22 -4 -46 -4h-200l-30 -167h96l-6 -34h-229z" />
    <glyph glyph-name="germandbls" unicode="&#xdf;" 
d="M375 630q84 0 134 -53q36 -38 29 -78q-8 -42 -57 -69q-29 -16 -67 -21q-93 -12 -136 -54q-14 -15 -17 -30q-9 -51 59 -75q8 -3 102 -26q91 -23 110 -63q10 -21 5 -49q-11 -64 -95 -97q-49 -20 -104 -20q-62 0 -108 33q-6 6 -11 -5q-13 -23 -23 -35h-34l21 33q13 20 16 39
q3 18 -11 50l-3 6h35l9 -22q28 -53 97 -61q9 -1 19 -1q96 0 137 45q15 16 18 35q9 47 -58 69l-137 35q-83 28 -83 89q0 10 2 20q15 86 173 117q11 2 24 4q63 11 71 53q6 38 -37 68q-36 26 -88 26q-85 0 -146 -36q-39 -22 -44 -52l-88 -505h-110l6 34h73l63 358h-73l6 34h73
l14 79q14 81 133 112q48 13 101 13z" />
    <glyph glyph-name="agrave" unicode="&#xe0;" 
d="M64 672h93l92 -175h-47zM414 239q-100 27 -181 27q-78 0 -130 -53q-30 -31 -37 -70q-11 -64 51 -99q38 -21 89 -21q80 0 143 49q19 15 42 38zM415 34h93l-6 -34h-130l9 54q-74 -63 -164 -68h-18q-87 0 -138 50q-43 43 -32 107q15 83 98 130q54 30 112 30q84 0 182 -26
l3 17q7 42 -43 76q-46 30 -111 30q-62 0 -167 -43l-8 34l63 23q75 23 119 23q96 0 151 -51q42 -40 33 -92z" />
    <glyph glyph-name="aacute" unicode="&#xe1;" 
d="M446 672l-199 -175h-46l152 175h93zM414 239q-100 27 -181 27q-78 0 -130 -53q-30 -31 -37 -70q-11 -64 51 -99q38 -21 89 -21q80 0 143 49q19 15 42 38zM415 34h93l-6 -34h-130l9 54q-74 -63 -164 -68h-18q-87 0 -138 50q-43 43 -32 107q15 83 98 130q54 30 112 30
q84 0 182 -26l3 17q7 42 -43 76q-46 30 -111 30q-62 0 -167 -43l-8 34l63 23q75 23 119 23q96 0 151 -51q42 -40 33 -92z" />
    <glyph glyph-name="acircumflex" unicode="&#xe2;" 
d="M379 511l-17 -14l-99 93l-135 -93l-11 14l142 121h21zM414 239q-100 27 -181 27q-78 0 -130 -53q-30 -31 -37 -70q-11 -64 51 -99q38 -21 89 -21q80 0 143 49q19 15 42 38zM415 34h93l-6 -34h-130l9 54q-74 -63 -164 -68h-18q-87 0 -138 50q-43 43 -32 107q15 83 98 130
q54 30 112 30q84 0 182 -26l3 17q7 42 -43 76q-46 30 -111 30q-62 0 -167 -43l-8 34l63 23q75 23 119 23q96 0 151 -51q42 -40 33 -92z" />
    <glyph glyph-name="atilde" unicode="&#xe3;" 
d="M92 498q9 43 52 67q19 11 37 11q15 1 40 -22q14 -13 23 -12q34 3 59 30h5q-4 -40 -36 -63q-16 -11 -34 -11q-23 1 -43 22q-13 13 -25 13q-40 -1 -68 -35h-10zM414 239q-100 27 -181 27q-78 0 -130 -53q-30 -31 -37 -70q-11 -64 51 -99q38 -21 89 -21q80 0 143 49
q19 15 42 38zM415 34h93l-6 -34h-130l9 54q-74 -63 -164 -68h-18q-87 0 -138 50q-43 43 -32 107q15 83 98 130q54 30 112 30q84 0 182 -26l3 17q7 42 -43 76q-46 30 -111 30q-62 0 -167 -43l-8 34l63 23q75 23 119 23q96 0 151 -51q42 -40 33 -92z" />
    <glyph glyph-name="adieresis" unicode="&#xe4;" 
d="M124 535q5 26 31 36q7 2 14 2q25 0 31 -24q1 -7 0 -14q-5 -26 -31 -36q-7 -2 -14 -2q-25 0 -31 24q-1 7 0 14zM281 535q5 26 31 36q7 2 14 2q25 0 31 -24q1 -7 0 -14q-5 -26 -31 -36q-7 -2 -14 -2q-25 0 -31 24q-1 7 0 14zM414 239q-100 27 -181 27q-78 0 -130 -53
q-30 -31 -37 -70q-11 -64 51 -99q38 -21 89 -21q80 0 143 49q19 15 42 38zM415 34h93l-6 -34h-130l9 54q-74 -63 -164 -68h-18q-87 0 -138 50q-43 43 -32 107q15 83 98 130q54 30 112 30q84 0 182 -26l3 17q7 42 -43 76q-46 30 -111 30q-62 0 -167 -43l-8 34l63 23
q75 23 119 23q96 0 151 -51q42 -40 33 -92z" />
    <glyph glyph-name="aring" unicode="&#xe5;" 
d="M261 679q49 0 69 -42q11 -22 6 -49q-9 -51 -57 -78q-25 -13 -50 -13q-49 0 -69 42q-11 22 -6 49q9 51 57 78q25 13 50 13zM255 645q-36 0 -58 -34q-7 -11 -9 -23q-6 -34 22 -51q11 -6 25 -6q36 0 58 34q7 11 9 23q6 34 -22 51q-11 6 -25 6zM414 239q-100 27 -181 27
q-78 0 -130 -53q-30 -31 -37 -70q-11 -64 51 -99q38 -21 89 -21q80 0 143 49q19 15 42 38zM415 34h93l-6 -34h-130l9 54q-74 -63 -164 -68h-18q-87 0 -138 50q-43 43 -32 107q15 83 98 130q54 30 112 30q84 0 182 -26l3 17q7 42 -43 76q-46 30 -111 30q-62 0 -167 -43l-8 34
l63 23q75 23 119 23q96 0 151 -51q42 -40 33 -92z" />
    <glyph glyph-name="ae" unicode="&#xe6;" 
d="M548 247q9 90 -17 119q-21 24 -67 24q-95 0 -131 -123l-6 -20h221zM289 239l-61 20q-27 7 -58 7q-69 0 -104 -74q-11 -23 -15 -49q-11 -62 28 -97q24 -23 63 -23q44 0 88 46q10 11 36 41zM287 79q-49 -54 -67 -66q-36 -27 -85 -27q-92 0 -121 67q-16 37 -7 90
q19 109 100 146q32 14 69 14q43 0 97 -19q13 -4 23 -7l3 17q18 106 -93 106q-50 0 -112 -35q-6 -3 -13 -7l-8 34q31 23 97 39q26 6 43 6q108 0 123 -83q50 73 135 73q112 0 119 -113q2 -41 -9 -101h-260q-25 -143 54 -170q16 -6 37 -6q51 0 94 41q-30 -29 19 19l18 -28
q-68 -68 -137 -69q-95 0 -119 79z" />
    <glyph glyph-name="ccedilla" unicode="&#xe7;" 
d="M338 8l-19 -54q64 12 92 -29q14 -22 10 -49q-10 -52 -72 -75q-47 -18 -115 -11l11 34q90 -12 128 28q9 9 10 18q9 50 -46 53q-17 0 -38 -4l-26 -6l28 94zM483 377l9 22l31 -7l-21 -56q7 -13 12 -36l-37 -12q-21 67 -90 92q-29 10 -62 10q-92 0 -161 -69q-47 -47 -58 -108
q-14 -81 45 -134q48 -42 121 -42q58 0 130 37q14 7 25 14l14 -33q-59 -42 -145 -53q-16 -2 -31 -2q-108 0 -164 72q-46 60 -32 141q17 97 105 160q73 54 158 54q79 0 136 -52q11 -8 15 2z" />
    <glyph glyph-name="egrave" unicode="&#xe8;" 
d="M119 662h93l92 -175h-47zM484 247q-3 77 -67 118q-40 25 -92 25q-92 0 -160 -69q-33 -33 -49 -74h368zM519 213h-413q-14 -81 45 -134q47 -42 117 -42q81 0 164 49l10 6l19 -28q-73 -53 -171 -63q-15 -1 -29 -1q-98 0 -155 68q-52 61 -37 145q17 97 105 160q73 54 158 54
q101 0 155 -70q47 -60 32 -144z" />
    <glyph glyph-name="eacute" unicode="&#xe9;" 
d="M501 662l-199 -175h-46l152 175h93zM484 247q-3 77 -67 118q-40 25 -92 25q-92 0 -160 -69q-33 -33 -49 -74h368zM519 213h-413q-14 -81 45 -134q47 -42 117 -42q81 0 164 49l10 6l19 -28q-73 -53 -171 -63q-15 -1 -29 -1q-98 0 -155 68q-52 61 -37 145q17 97 105 160
q73 54 158 54q101 0 155 -70q47 -60 32 -144z" />
    <glyph glyph-name="ecircumflex" unicode="&#xea;" 
d="M433 501l-17 -14l-99 93l-135 -93l-11 14l142 121h21zM484 247q-3 77 -67 118q-40 25 -92 25q-92 0 -160 -69q-33 -33 -49 -74h368zM519 213h-413q-14 -81 45 -134q47 -42 117 -42q81 0 164 49l10 6l19 -28q-73 -53 -171 -63q-15 -1 -29 -1q-98 0 -155 68q-52 61 -37 145
q17 97 105 160q73 54 158 54q101 0 155 -70q47 -60 32 -144z" />
    <glyph glyph-name="edieresis" unicode="&#xeb;" 
d="M178 525q5 26 31 36q7 2 14 2q25 0 31 -24q1 -7 0 -14q-5 -26 -31 -36q-7 -2 -14 -2q-25 0 -31 24q-1 7 0 14zM335 525q5 26 31 36q7 2 14 2q25 0 31 -24q1 -7 0 -14q-5 -26 -31 -36q-7 -2 -14 -2q-25 0 -31 24q-1 7 0 14zM484 247q-3 77 -67 118q-40 25 -92 25
q-92 0 -160 -69q-33 -33 -49 -74h368zM519 213h-413q-14 -81 45 -134q47 -42 117 -42q81 0 164 49l10 6l19 -28q-73 -53 -171 -63q-15 -1 -29 -1q-98 0 -155 68q-52 61 -37 145q17 97 105 160q73 54 158 54q101 0 155 -70q47 -60 32 -144z" />
    <glyph glyph-name="igrave" unicode="&#xec;" 
d="M132 662h93l92 -175h-47zM321 392h-186l6 34h223l-70 -392h173l-6 -34h-396l6 34h186z" />
    <glyph glyph-name="iacute" unicode="&#xed;" 
d="M514 662l-199 -175h-46l152 175h93zM321 392h-186l6 34h223l-70 -392h173l-6 -34h-396l6 34h186z" />
    <glyph glyph-name="icircumflex" unicode="&#xee;" 
d="M446 501l-17 -14l-99 93l-135 -93l-11 14l142 121h21zM321 392h-186l6 34h223l-70 -392h173l-6 -34h-396l6 34h186z" />
    <glyph glyph-name="idieresis" unicode="&#xef;" 
d="M191 525q5 26 31 36q7 2 14 2q25 0 31 -24q1 -7 0 -14q-5 -26 -31 -36q-7 -2 -14 -2q-25 0 -31 24q-1 7 0 14zM348 525q5 26 31 36q7 2 14 2q25 0 31 -24q1 -7 0 -14q-5 -26 -31 -36q-7 -2 -14 -2q-25 0 -31 24q-1 7 0 14zM321 392h-186l6 34h223l-70 -392h173l-6 -34
h-396l6 34h186z" />
    <glyph glyph-name="eth" unicode="&#xf0;" 
d="M308 390q-93 0 -161 -69q-48 -47 -59 -108q-14 -83 44 -136q45 -41 113 -41q93 0 161 69q48 47 58 108q15 83 -43 136q-45 41 -113 41zM450 376q-29 89 -92 154l-91 -53l-13 28l80 48q-33 27 -64 37l18 36q41 -15 83 -52l86 51l13 -28l-76 -45q87 -94 108 -221
q10 -60 0 -116l-1 -2q-17 -97 -104 -160q-73 -54 -158 -54q-100 0 -154 70q-48 61 -34 144q17 97 105 160q73 54 158 54q81 0 136 -51z" />
    <glyph glyph-name="ntilde" unicode="&#xf1;" 
d="M154 501q9 43 52 67q19 11 37 11q15 1 40 -22q14 -13 23 -12q34 3 59 30h5q-4 -40 -36 -63q-16 -11 -34 -11q-23 1 -43 22q-13 13 -25 13q-40 -1 -68 -35h-10zM173 376l42 21q88 43 145 43q67 0 113 -53q40 -44 31 -91l-46 -262h85l-6 -34h-208l6 34h87l46 262
q7 35 -32 72q-37 35 -83 35q-67 0 -188 -71l-53 -298h85l-6 -34h-208l6 34h87l63 358h-87l6 34h124q-5 -13 -9 -50z" />
    <glyph glyph-name="ograve" unicode="&#xf2;" 
d="M125 662h93l92 -175h-47zM338 427q99 0 154 -70q48 -61 33 -144q-17 -97 -105 -160q-73 -54 -158 -54q-99 0 -154 70q-48 61 -33 144q17 97 105 160q73 54 158 54zM331 390q-90 0 -159 -68q-49 -48 -60 -109q-15 -83 43 -136q45 -41 114 -41q96 0 163 69q45 46 56 108
q16 89 -47 141q-44 36 -110 36z" />
    <glyph glyph-name="oacute" unicode="&#xf3;" 
d="M507 662l-199 -175h-46l152 175h93zM338 427q99 0 154 -70q48 -61 33 -144q-17 -97 -105 -160q-73 -54 -158 -54q-99 0 -154 70q-48 61 -33 144q17 97 105 160q73 54 158 54zM331 390q-90 0 -159 -68q-49 -48 -60 -109q-15 -83 43 -136q45 -41 114 -41q96 0 163 69
q45 46 56 108q16 89 -47 141q-44 36 -110 36z" />
    <glyph glyph-name="ocircumflex" unicode="&#xf4;" 
d="M439 501l-17 -14l-99 93l-135 -93l-11 14l142 121h21zM338 427q99 0 154 -70q48 -61 33 -144q-17 -97 -105 -160q-73 -54 -158 -54q-99 0 -154 70q-48 61 -33 144q17 97 105 160q73 54 158 54zM331 390q-90 0 -159 -68q-49 -48 -60 -109q-15 -83 43 -136q45 -41 114 -41
q96 0 163 69q45 46 56 108q16 89 -47 141q-44 36 -110 36z" />
    <glyph glyph-name="otilde" unicode="&#xf5;" 
d="M153 488q9 43 52 67q19 11 37 11q15 1 40 -22q14 -13 23 -12q34 3 59 30h5q-4 -40 -36 -63q-16 -11 -34 -11q-23 1 -43 22q-13 13 -25 13q-40 -1 -68 -35h-10zM338 427q99 0 154 -70q48 -61 33 -144q-17 -97 -105 -160q-73 -54 -158 -54q-99 0 -154 70q-48 61 -33 144
q17 97 105 160q73 54 158 54zM331 390q-90 0 -159 -68q-49 -48 -60 -109q-15 -83 43 -136q45 -41 114 -41q96 0 163 69q45 46 56 108q16 89 -47 141q-44 36 -110 36z" />
    <glyph glyph-name="odieresis" unicode="&#xf6;" 
d="M184 525q5 26 31 36q7 2 14 2q25 0 31 -24q1 -7 0 -14q-5 -26 -31 -36q-7 -2 -14 -2q-25 0 -31 24q-1 7 0 14zM341 525q5 26 31 36q7 2 14 2q25 0 31 -24q1 -7 0 -14q-5 -26 -31 -36q-7 -2 -14 -2q-25 0 -31 24q-1 7 0 14zM338 427q99 0 154 -70q48 -61 33 -144
q-17 -97 -105 -160q-73 -54 -158 -54q-99 0 -154 70q-48 61 -33 144q17 97 105 160q73 54 158 54zM331 390q-90 0 -159 -68q-49 -48 -60 -109q-15 -83 43 -136q45 -41 114 -41q96 0 163 69q45 46 56 108q16 89 -47 141q-44 36 -110 36z" />
    <glyph glyph-name="divide" unicode="&#xf7;" 
d="M259 370q4 20 25 27q4 1 8 1q20 0 23 -19q1 -4 0 -9q-3 -20 -24 -27q-4 -1 -8 -1q-20 0 -23 19q-1 4 -1 9zM225 172q3 20 24 27q4 1 8 1q20 0 23 -19q1 -4 1 -9q-4 -20 -25 -27q-4 -1 -8 -1q-20 0 -23 19q-1 4 0 9zM80 290h385l-6 -37h-385z" />
    <glyph glyph-name="oslash" unicode="&#xf8;" 
d="M338 427q69 0 121 -39l71 67l22 -22l-70 -66q59 -63 43 -154q-17 -97 -105 -160q-73 -54 -158 -54q-72 0 -125 41l-72 -69l-22 22l72 68q-56 64 -40 152q17 97 105 160q73 54 158 54zM167 68q43 -32 102 -32q92 0 161 69q47 47 58 108q13 74 -35 126zM331 390
q-92 0 -161 -69q-47 -47 -58 -108q-13 -72 32 -124l286 271q-42 30 -99 30z" />
    <glyph glyph-name="ugrave" unicode="&#xf9;" 
d="M81 662h93l92 -175h-47zM426 51q-37 -18 -43 -21q-88 -43 -145 -43q-66 0 -113 53q-40 44 -31 91l46 261h-85l6 34h122l-53 -295q-6 -35 32 -72q37 -35 83 -35q67 0 188 71l53 297h-85l6 34h122l-69 -391h86l-6 -35h-123z" />
    <glyph glyph-name="uacute" unicode="&#xfa;" 
d="M463 662l-199 -175h-46l152 175h93zM426 51q-37 -18 -43 -21q-88 -43 -145 -43q-66 0 -113 53q-40 44 -31 91l46 261h-85l6 34h122l-53 -295q-6 -35 32 -72q37 -35 83 -35q67 0 188 71l53 297h-85l6 34h122l-69 -391h86l-6 -35h-123z" />
    <glyph glyph-name="ucircumflex" unicode="&#xfb;" 
d="M396 501l-17 -14l-99 93l-135 -93l-11 14l142 121h21zM426 51q-37 -18 -43 -21q-88 -43 -145 -43q-66 0 -113 53q-40 44 -31 91l46 261h-85l6 34h122l-53 -295q-6 -35 32 -72q37 -35 83 -35q67 0 188 71l53 297h-85l6 34h122l-69 -391h86l-6 -35h-123z" />
    <glyph glyph-name="udieresis" unicode="&#xfc;" 
d="M140 525q5 26 31 36q7 2 14 2q25 0 31 -24q1 -7 0 -14q-5 -26 -31 -36q-7 -2 -14 -2q-25 0 -31 24q-1 7 0 14zM297 525q5 26 31 36q7 2 14 2q25 0 31 -24q1 -7 0 -14q-5 -26 -31 -36q-7 -2 -14 -2q-25 0 -31 24q-1 7 0 14zM426 51q-37 -18 -43 -21q-88 -43 -145 -43
q-66 0 -113 53q-40 44 -31 91l46 261h-85l6 34h122l-53 -295q-6 -35 32 -72q37 -35 83 -35q67 0 188 71l53 297h-85l6 34h122l-69 -391h86l-6 -35h-123z" />
    <glyph glyph-name="yacute" unicode="&#xfd;" 
d="M507 662l-199 -175h-46l152 175h93zM232 -168h-284l6 34h213l89 134l-124 392h-76l6 34h191l-6 -34h-74l112 -350l234 350h-74l6 34h191l-6 -34h-76l-352 -526h30z" />
    <glyph glyph-name="thorn" unicode="&#xfe;" 
d="M309 36q91 0 160 68q49 48 60 109q14 83 -43 136q-45 41 -113 41q-89 0 -157 -65q-51 -48 -62 -112q-16 -89 46 -141q44 -36 109 -36zM53 -146l130 736l-80 -15v34l125 23l-53 -301q71 80 172 94q16 2 31 2q100 0 155 -70q47 -61 33 -144q-17 -97 -105 -161
q-73 -53 -157 -53q-101 0 -156 72q-8 11 -15 24l-43 -241h123l-6 -34h-239l6 34h79z" />
    <glyph glyph-name="ydieresis" unicode="&#xff;" 
d="M184 525q5 26 31 36q7 2 14 2q25 0 31 -24q1 -7 0 -14q-5 -26 -31 -36q-7 -2 -14 -2q-25 0 -31 24q-1 7 0 14zM341 525q5 26 31 36q7 2 14 2q25 0 31 -24q1 -7 0 -14q-5 -26 -31 -36q-7 -2 -14 -2q-25 0 -31 24q-1 7 0 14zM232 -168h-284l6 34h213l89 134l-124 392h-76
l6 34h191l-6 -34h-74l112 -350l234 350h-74l6 34h191l-6 -34h-76l-352 -526h30z" />
    <glyph glyph-name="Amacron" unicode="&#x100;" 
d="M145 658h347l-6 -34h-347zM226 283h152l-34 238zM317 34h96l-31 212h-172l-107 -212h95l-6 -34h-213l6 34h79l246 494h-144l6 34h207l73 -528h75l-6 -34h-210z" />
    <glyph glyph-name="amacron" unicode="&#x101;" 
d="M62 531h347l-6 -34h-347zM414 239q-100 27 -181 27q-78 0 -130 -53q-30 -31 -37 -70q-11 -64 51 -99q38 -21 89 -21q80 0 143 49q19 15 42 38zM415 34h93l-6 -34h-130l9 54q-74 -63 -164 -68h-18q-87 0 -138 50q-43 43 -32 107q15 83 98 130q54 30 112 30q84 0 182 -26
l3 17q7 42 -43 76q-46 30 -111 30q-62 0 -167 -43l-8 34l63 23q75 23 119 23q96 0 151 -51q42 -40 33 -92z" />
    <glyph glyph-name="Abreve" unicode="&#x102;" 
d="M401 720q-18 -62 -74 -87q-22 -9 -45 -9q-59 0 -80 49q-9 21 -8 47h24q6 -44 73 -44q58 0 86 44h24zM226 283h152l-34 238zM317 34h96l-31 212h-172l-107 -212h95l-6 -34h-213l6 34h79l246 494h-144l6 34h207l73 -528h75l-6 -34h-210z" />
    <glyph glyph-name="abreve" unicode="&#x103;" 
d="M315 593q-18 -62 -74 -87q-22 -9 -45 -9q-59 0 -80 49q-9 21 -8 47h24q6 -44 73 -44q58 0 86 44h24zM414 239q-100 27 -181 27q-78 0 -130 -53q-30 -31 -37 -70q-11 -64 51 -99q38 -21 89 -21q80 0 143 49q19 15 42 38zM415 34h93l-6 -34h-130l9 54q-74 -63 -164 -68h-18
q-87 0 -138 50q-43 43 -32 107q15 83 98 130q54 30 112 30q84 0 182 -26l3 17q7 42 -43 76q-46 30 -111 30q-62 0 -167 -43l-8 34l63 23q75 23 119 23q96 0 151 -51q42 -40 33 -92z" />
    <glyph glyph-name="Aogonek" unicode="&#x104;" 
d="M131 5h42q-40 -7 -58 -51q-5 -14 -6 -29q-1 -30 40 -41q8 -2 17 -4q52 -9 91 35l16 -25q-45 -56 -110 -55q-60 1 -85 40q-14 22 -9 50q9 54 62 80zM226 283h152l-34 238zM317 34h96l-31 212h-172l-107 -212h95l-6 -34h-213l6 34h79l246 494h-144l6 34h207l73 -528h75
l-6 -34h-210z" />
    <glyph glyph-name="aogonek" unicode="&#x105;" 
d="M427 5h42q-40 -7 -58 -51q-5 -14 -6 -29q-1 -30 40 -41q8 -2 17 -4q52 -9 91 35l16 -25q-45 -56 -110 -55q-60 1 -85 40q-14 22 -9 50q9 54 62 80zM414 239q-100 27 -181 27q-78 0 -130 -53q-30 -31 -37 -70q-11 -64 51 -99q38 -21 89 -21q80 0 143 49q19 15 42 38z
M415 34h93l-6 -34h-130l9 54q-74 -63 -164 -68h-18q-87 0 -138 50q-43 43 -32 107q15 83 98 130q54 30 112 30q84 0 182 -26l3 17q7 42 -43 76q-46 30 -111 30q-62 0 -167 -43l-8 34l63 23q75 23 119 23q96 0 151 -51q42 -40 33 -92z" />
    <glyph glyph-name="Cacute" unicode="&#x106;" 
d="M557 799l-199 -175h-46l152 175h93zM375 564q81 0 117 -44q9 -7 11 0q7 24 20 42h34q-20 -36 -26 -70q-3 -18 8 -66h-35q-7 59 -70 87q-31 14 -66 14q-88 0 -163 -81q-64 -70 -81 -165q-20 -116 40 -190q46 -56 118 -56q66 0 127 44q13 10 24 21l27 -21q-56 -58 -141 -76
q-23 -5 -44 -5q-101 0 -156 86q-52 82 -32 197q22 124 113 208q81 75 175 75z" />
    <glyph glyph-name="cacute" unicode="&#x107;" 
d="M501 662l-199 -175h-46l152 175h93zM483 377l9 22l31 -7l-21 -56q7 -13 12 -36l-37 -12q-21 67 -90 92q-29 10 -62 10q-92 0 -161 -69q-47 -47 -58 -108q-14 -81 45 -134q48 -42 121 -42q58 0 130 37q14 7 25 14l14 -33q-59 -42 -145 -53q-16 -2 -31 -2q-108 0 -164 72
q-46 60 -32 141q17 97 105 160q73 54 158 54q79 0 136 -52q11 -8 15 2z" />
    <glyph glyph-name="Ccircumflex" unicode="&#x108;" 
d="M488 638l-17 -14l-99 93l-135 -93l-11 14l142 121h21zM375 564q81 0 117 -44q9 -7 11 0q7 24 20 42h34q-20 -36 -26 -70q-3 -18 8 -66h-35q-7 59 -70 87q-31 14 -66 14q-88 0 -163 -81q-64 -70 -81 -165q-20 -116 40 -190q46 -56 118 -56q66 0 127 44q13 10 24 21l27 -21
q-56 -58 -141 -76q-23 -5 -44 -5q-101 0 -156 86q-52 82 -32 197q22 124 113 208q81 75 175 75z" />
    <glyph glyph-name="ccircumflex" unicode="&#x109;" 
d="M433 501l-17 -14l-99 93l-135 -93l-11 14l142 121h21zM483 377l9 22l31 -7l-21 -56q7 -13 12 -36l-37 -12q-21 67 -90 92q-29 10 -62 10q-92 0 -161 -69q-47 -47 -58 -108q-14 -81 45 -134q48 -42 121 -42q58 0 130 37q14 7 25 14l14 -33q-59 -42 -145 -53q-16 -2 -31 -2
q-108 0 -164 72q-46 60 -32 141q17 97 105 160q73 54 158 54q79 0 136 -52q11 -8 15 2z" />
    <glyph glyph-name="Cdotaccent" unicode="&#x10a;" 
d="M399 721l-18 -97h-74l18 97h74zM375 564q81 0 117 -44q9 -7 11 0q7 24 20 42h34q-20 -36 -26 -70q-3 -18 8 -66h-35q-7 59 -70 87q-31 14 -66 14q-88 0 -163 -81q-64 -70 -81 -165q-20 -116 40 -190q46 -56 118 -56q66 0 127 44q13 10 24 21l27 -21q-56 -58 -141 -76
q-23 -5 -44 -5q-101 0 -156 86q-52 82 -32 197q22 124 113 208q81 75 175 75z" />
    <glyph glyph-name="cdotaccent" unicode="&#x10b;" 
d="M343 584l-18 -97h-74l18 97h74zM483 377l9 22l31 -7l-21 -56q7 -13 12 -36l-37 -12q-21 67 -90 92q-29 10 -62 10q-92 0 -161 -69q-47 -47 -58 -108q-14 -81 45 -134q48 -42 121 -42q58 0 130 37q14 7 25 14l14 -33q-59 -42 -145 -53q-16 -2 -31 -2q-108 0 -164 72
q-46 60 -32 141q17 97 105 160q73 54 158 54q79 0 136 -52q11 -8 15 2z" />
    <glyph glyph-name="Ccaron" unicode="&#x10c;" 
d="M504 745l-141 -121h-21l-100 121l17 14l103 -93l131 93zM375 564q81 0 117 -44q9 -7 11 0q7 24 20 42h34q-20 -36 -26 -70q-3 -18 8 -66h-35q-7 59 -70 87q-31 14 -66 14q-88 0 -163 -81q-64 -70 -81 -165q-20 -116 40 -190q46 -56 118 -56q66 0 127 44q13 10 24 21
l27 -21q-56 -58 -141 -76q-23 -5 -44 -5q-101 0 -156 86q-52 82 -32 197q22 124 113 208q81 75 175 75z" />
    <glyph glyph-name="ccaron" unicode="&#x10d;" 
d="M449 608l-141 -121h-21l-100 121l17 14l103 -93l131 93zM483 377l9 22l31 -7l-21 -56q7 -13 12 -36l-37 -12q-21 67 -90 92q-29 10 -62 10q-92 0 -161 -69q-47 -47 -58 -108q-14 -81 45 -134q48 -42 121 -42q58 0 130 37q14 7 25 14l14 -33q-59 -42 -145 -53
q-16 -2 -31 -2q-108 0 -164 72q-46 60 -32 141q17 97 105 160q73 54 158 54q79 0 136 -52q11 -8 15 2z" />
    <glyph glyph-name="Dcaron" unicode="&#x10e;" 
d="M479 745l-141 -121h-21l-100 121l17 14l103 -93l131 93zM141 34h162q66 0 133 84q62 77 78 166q12 73 -14 148q-33 96 -109 96h-162zM8 34h96l88 494h-96l6 34h295q101 0 140 -114q26 -80 12 -162q-16 -92 -74 -175q-77 -111 -178 -111h-295z" />
    <glyph glyph-name="dcaron" unicode="&#x10f;" 
d="M508 813l-141 -121h-21l-100 121l17 14l103 -93l131 93zM526 0h-117l17 95q-71 -80 -172 -94q-16 -2 -32 -2q-100 0 -154 70q-48 61 -33 144q17 97 105 161q72 53 157 53q99 0 153 -70q10 -12 17 -26l45 258l-165 -30l6 34l204 39l-106 -598h81zM447 213q15 85 -46 138
q-45 39 -110 39q-92 0 -161 -69q-47 -47 -58 -108q-15 -83 43 -136q45 -41 113 -41q88 0 156 64q52 49 63 113z" />
    <glyph glyph-name="Dcroat" unicode="&#x110;" 
d="M141 34h162q66 0 133 84q62 77 78 166q12 73 -14 148q-33 96 -109 96h-162l-38 -212h69l-6 -34h-69zM8 34h96l44 248h-66l6 34h66l38 212h-96l6 34h295q103 0 141 -113q26 -78 11 -163q-16 -92 -74 -175q-77 -111 -178 -111h-295z" />
    <glyph glyph-name="dcroat" unicode="&#x111;" 
d="M291 390q-92 0 -161 -69q-47 -47 -58 -108q-15 -83 43 -136q45 -41 113 -41q88 0 156 65q51 48 62 112q15 85 -46 138q-44 39 -109 39zM467 332l23 129h-97l6 34h97l16 94l-165 -30l6 34l204 39l-24 -137h83l-6 -34h-83l-76 -427h80l-6 -34h-117l17 95q-73 -83 -176 -94
q-13 -2 -27 -2q-100 0 -154 70q-48 61 -33 144q17 97 105 161q72 53 157 53q103 0 157 -75q7 -9 13 -20z" />
    <glyph glyph-name="Emacron" unicode="&#x112;" 
d="M140 658h347l-6 -34h-347zM456 402l-25 -143h-34l11 62h-194l-51 -287h273l28 87h34l-34 -121h-440l6 34h97l88 494h-97l6 34h440l-12 -115h-34l6 81h-273l-31 -173h194l8 47h34z" />
    <glyph glyph-name="emacron" unicode="&#x113;" 
d="M116 521h347l-6 -34h-347zM484 247q-3 77 -67 118q-40 25 -92 25q-92 0 -160 -69q-33 -33 -49 -74h368zM519 213h-413q-14 -81 45 -134q47 -42 117 -42q81 0 164 49l10 6l19 -28q-73 -53 -171 -63q-15 -1 -29 -1q-98 0 -155 68q-52 61 -37 145q17 97 105 160
q73 54 158 54q101 0 155 -70q47 -60 32 -144z" />
    <glyph glyph-name="Ebreve" unicode="&#x114;" 
d="M393 720q-18 -62 -74 -87q-22 -9 -45 -9q-59 0 -80 49q-9 21 -8 47h24q6 -44 73 -44q58 0 86 44h24zM456 402l-25 -143h-34l11 62h-194l-51 -287h273l28 87h34l-34 -121h-440l6 34h97l88 494h-97l6 34h440l-12 -115h-34l6 81h-273l-31 -173h194l8 47h34z" />
    <glyph glyph-name="ebreve" unicode="&#x115;" 
d="M369 583q-18 -62 -74 -87q-22 -9 -45 -9q-59 0 -80 49q-9 21 -8 47h24q6 -44 73 -44q58 0 86 44h24zM484 247q-3 77 -67 118q-40 25 -92 25q-92 0 -160 -69q-33 -33 -49 -74h368zM519 213h-413q-14 -81 45 -134q47 -42 117 -42q81 0 164 49l10 6l19 -28q-73 -53 -171 -63
q-15 -1 -29 -1q-98 0 -155 68q-52 61 -37 145q17 97 105 160q73 54 158 54q101 0 155 -70q47 -60 32 -144z" />
    <glyph glyph-name="Edotaccent" unicode="&#x116;" 
d="M368 721l-18 -97h-74l18 97h74zM456 402l-25 -143h-34l11 62h-194l-51 -287h273l28 87h34l-34 -121h-440l6 34h97l88 494h-97l6 34h440l-12 -115h-34l6 81h-273l-31 -173h194l8 47h34z" />
    <glyph glyph-name="edotaccent" unicode="&#x117;" 
d="M343 584l-18 -97h-74l18 97h74zM484 247q-3 77 -67 118q-40 25 -92 25q-92 0 -160 -69q-33 -33 -49 -74h368zM519 213h-413q-14 -81 45 -134q47 -42 117 -42q81 0 164 49l10 6l19 -28q-73 -53 -171 -63q-15 -1 -29 -1q-98 0 -155 68q-52 61 -37 145q17 97 105 160
q73 54 158 54q101 0 155 -70q47 -60 32 -144z" />
    <glyph glyph-name="Eogonek" unicode="&#x118;" 
d="M183 5h42q-40 -7 -58 -51q-5 -14 -6 -29q-1 -30 40 -41q8 -2 17 -4q52 -9 91 35l16 -25q-45 -56 -110 -55q-60 1 -85 40q-14 22 -9 50q9 54 62 80zM456 402l-25 -143h-34l11 62h-194l-51 -287h273l28 87h34l-34 -121h-440l6 34h97l88 494h-97l6 34h440l-12 -115h-34l6 81
h-273l-31 -173h194l8 47h34z" />
    <glyph glyph-name="eogonek" unicode="&#x119;" 
d="M293 5h42q-40 -7 -58 -51q-5 -14 -6 -29q-1 -30 40 -41q8 -2 17 -4q52 -9 91 35l16 -25q-45 -56 -110 -55q-60 1 -85 40q-14 22 -9 50q9 54 62 80zM484 247q-3 77 -67 118q-40 25 -92 25q-92 0 -160 -69q-33 -33 -49 -74h368zM519 213h-413q-14 -81 45 -134
q47 -42 117 -42q81 0 164 49l10 6l19 -28q-73 -53 -171 -63q-15 -1 -29 -1q-98 0 -155 68q-52 61 -37 145q17 97 105 160q73 54 158 54q101 0 155 -70q47 -60 32 -144z" />
    <glyph glyph-name="Ecaron" unicode="&#x11a;" 
d="M473 745l-141 -121h-21l-100 121l17 14l103 -93l131 93zM456 402l-25 -143h-34l11 62h-194l-51 -287h273l28 87h34l-34 -121h-440l6 34h97l88 494h-97l6 34h440l-12 -115h-34l6 81h-273l-31 -173h194l8 47h34z" />
    <glyph glyph-name="ecaron" unicode="&#x11b;" 
d="M449 608l-141 -121h-21l-100 121l17 14l103 -93l131 93zM484 247q-3 77 -67 118q-40 25 -92 25q-92 0 -160 -69q-33 -33 -49 -74h368zM519 213h-413q-14 -81 45 -134q47 -42 117 -42q81 0 164 49l10 6l19 -28q-73 -53 -171 -63q-15 -1 -29 -1q-98 0 -155 68
q-52 61 -37 145q17 97 105 160q73 54 158 54q101 0 155 -70q47 -60 32 -144z" />
    <glyph glyph-name="Gcircumflex" unicode="&#x11c;" 
d="M481 638l-17 -14l-99 93l-135 -93l-11 14l142 121h21zM368 564q80 0 115 -38q3 -3 5 -6q9 -8 12 0q8 28 20 42h34q-20 -36 -26 -70q-3 -18 8 -66h-35q-8 58 -71 86q-33 15 -69 15q-88 0 -163 -81q-64 -70 -81 -165q-21 -121 36 -193q42 -53 111 -53q97 0 163 93
q37 52 52 120h-110l6 34h145l-6 -34q-28 -133 -119 -203q-62 -47 -138 -47q-103 0 -153 90q-44 81 -24 193q22 123 113 207q81 76 175 76z" />
    <glyph glyph-name="gcircumflex" unicode="&#x11d;" 
d="M408 501l-17 -14l-99 93l-135 -93l-11 14l142 121h21zM317 390q-92 0 -160 -69q-48 -47 -59 -108q-14 -83 43 -136q45 -41 113 -41q92 0 161 69q48 47 58 108q15 83 -43 136q-45 41 -113 41zM630 426l-6 -34h-82l-75 -423q-11 -63 -95 -116q-81 -50 -161 -50
q-94 0 -183 58l22 33q40 -31 114 -48q29 -6 53 -6q69 0 144 49q62 40 69 80l23 127q-68 -78 -166 -94q-19 -3 -38 -3q-100 0 -155 70q-47 61 -33 144q17 97 105 161q73 53 157 53q100 0 154 -71q10 -12 17 -26l17 96h119z" />
    <glyph glyph-name="Gbreve" unicode="&#x11e;" 
d="M417 720q-18 -62 -74 -87q-22 -9 -45 -9q-59 0 -80 49q-9 21 -8 47h24q6 -44 73 -44q58 0 86 44h24zM368 564q80 0 115 -38q3 -3 5 -6q9 -8 12 0q8 28 20 42h34q-20 -36 -26 -70q-3 -18 8 -66h-35q-8 58 -71 86q-33 15 -69 15q-88 0 -163 -81q-64 -70 -81 -165
q-21 -121 36 -193q42 -53 111 -53q97 0 163 93q37 52 52 120h-110l6 34h145l-6 -34q-28 -133 -119 -203q-62 -47 -138 -47q-103 0 -153 90q-44 81 -24 193q22 123 113 207q81 76 175 76z" />
    <glyph glyph-name="gbreve" unicode="&#x11f;" 
d="M344 583q-18 -62 -74 -87q-22 -9 -45 -9q-59 0 -80 49q-9 21 -8 47h24q6 -44 73 -44q58 0 86 44h24zM317 390q-92 0 -160 -69q-48 -47 -59 -108q-14 -83 43 -136q45 -41 113 -41q92 0 161 69q48 47 58 108q15 83 -43 136q-45 41 -113 41zM630 426l-6 -34h-82l-75 -423
q-11 -63 -95 -116q-81 -50 -161 -50q-94 0 -183 58l22 33q40 -31 114 -48q29 -6 53 -6q69 0 144 49q62 40 69 80l23 127q-68 -78 -166 -94q-19 -3 -38 -3q-100 0 -155 70q-47 61 -33 144q17 97 105 161q73 53 157 53q100 0 154 -71q10 -12 17 -26l17 96h119z" />
    <glyph glyph-name="Gdotaccent" unicode="&#x120;" 
d="M392 721l-18 -97h-74l18 97h74zM368 564q80 0 115 -38q3 -3 5 -6q9 -8 12 0q8 28 20 42h34q-20 -36 -26 -70q-3 -18 8 -66h-35q-8 58 -71 86q-33 15 -69 15q-88 0 -163 -81q-64 -70 -81 -165q-21 -121 36 -193q42 -53 111 -53q97 0 163 93q37 52 52 120h-110l6 34h145
l-6 -34q-28 -133 -119 -203q-62 -47 -138 -47q-103 0 -153 90q-44 81 -24 193q22 123 113 207q81 76 175 76z" />
    <glyph glyph-name="gdotaccent" unicode="&#x121;" 
d="M318 584l-18 -97h-74l18 97h74zM317 390q-92 0 -160 -69q-48 -47 -59 -108q-14 -83 43 -136q45 -41 113 -41q92 0 161 69q48 47 58 108q15 83 -43 136q-45 41 -113 41zM630 426l-6 -34h-82l-75 -423q-11 -63 -95 -116q-81 -50 -161 -50q-94 0 -183 58l22 33
q40 -31 114 -48q29 -6 53 -6q69 0 144 49q62 40 69 80l23 127q-68 -78 -166 -94q-19 -3 -38 -3q-100 0 -155 70q-47 61 -33 144q17 97 105 161q73 53 157 53q100 0 154 -71q10 -12 17 -26l17 96h119z" />
    <glyph glyph-name="Gcommaaccent" unicode="&#x122;" 
d="M341 6l-19 -54q64 12 92 -29q14 -22 10 -49q-10 -52 -72 -75q-47 -18 -115 -11l11 34q90 -12 128 28q9 9 10 18q9 50 -46 53q-17 0 -38 -4l-26 -6l28 94zM368 564q80 0 115 -38q3 -3 5 -6q9 -8 12 0q8 28 20 42h34q-20 -36 -26 -70q-3 -18 8 -66h-35q-8 58 -71 86
q-33 15 -69 15q-88 0 -163 -81q-64 -70 -81 -165q-21 -121 36 -193q42 -53 111 -53q97 0 163 93q37 52 52 120h-110l6 34h145l-6 -34q-28 -133 -119 -203q-62 -47 -138 -47q-103 0 -153 90q-44 81 -24 193q22 123 113 207q81 76 175 76z" />
    <glyph glyph-name="gcommaaccent" unicode="&#x123;" 
d="M164 487l174 204h46l-127 -204h-93zM317 390q-92 0 -160 -69q-48 -47 -59 -108q-14 -83 43 -136q45 -41 113 -41q92 0 161 69q48 47 58 108q15 83 -43 136q-45 41 -113 41zM630 426l-6 -34h-82l-75 -423q-11 -63 -95 -116q-81 -50 -161 -50q-94 0 -183 58l22 33
q40 -31 114 -48q29 -6 53 -6q69 0 144 49q62 40 69 80l23 127q-68 -78 -166 -94q-19 -3 -38 -3q-100 0 -155 70q-47 61 -33 144q17 97 105 161q73 53 157 53q100 0 154 -71q10 -12 17 -26l17 96h119z" />
    <glyph glyph-name="Hcircumflex" unicode="&#x124;" 
d="M463 638l-17 -14l-99 93l-135 -93l-11 14l142 121h21zM179 367h273l29 161h-98l6 34h230l-6 -34h-95l-88 -494h94l-6 -34h-230l6 34h99l53 296h-273l-53 -296h97l-6 -34h-230l6 34h96l88 494h-96l6 34h230l-6 -34h-97z" />
    <glyph glyph-name="hcircumflex" unicode="&#x125;" 
d="M474 706l-17 -14l-99 93l-135 -93l-11 14l142 121h21zM157 376q86 43 114 52q39 12 72 12q72 0 118 -55q35 -43 26 -89l-46 -261h85l-6 -35h-208l6 35h87l46 261q7 35 -32 72q-36 35 -83 35q-66 0 -188 -71l-53 -297h85l-6 -35h-208l6 35h87l98 555l-91 -22l6 34l130 30z
" />
    <glyph glyph-name="Hbar" unicode="&#x126;" 
d="M465 441l16 87h-98l6 34h230l-6 -34h-95l-16 -87h77l-6 -34h-77l-66 -373h94l-6 -34h-230l6 34h99l44 249h-273l-44 -249h97l-6 -34h-230l6 34h96l66 372h-65l6 34h65l16 88h-96l6 34h230l-6 -34h-97l-16 -87h273zM171 320h273l15 87h-273z" />
    <glyph glyph-name="hbar" unicode="&#x127;" 
d="M157 376q87 45 126 56q31 8 60 8q72 0 118 -55q35 -43 26 -89l-46 -262h85l-6 -34h-208l6 34h87l46 262q7 35 -32 72q-36 35 -83 35q-66 0 -188 -71l-53 -298h85l-6 -34h-208l6 34h87l79 449h-80l6 34h80l13 73l-91 -23l6 34l129 31l-21 -115h82l-6 -34h-81z" />
    <glyph glyph-name="Itilde" unicode="&#x128;" 
d="M178 625q9 43 52 67q19 11 37 11q15 1 40 -22q14 -13 23 -12q34 3 59 30h5q-4 -40 -36 -63q-16 -11 -34 -11q-23 1 -43 22q-13 13 -25 13q-40 -1 -68 -35h-10zM329 528h-195l6 34h421l-6 -34h-190l-88 -494h189l-6 -34h-421l6 34h196z" />
    <glyph glyph-name="itilde" unicode="&#x129;" 
d="M160 488q9 43 52 67q19 11 37 11q15 1 40 -22q14 -13 23 -12q34 3 59 30h5q-4 -40 -36 -63q-16 -11 -34 -11q-23 1 -43 22q-13 13 -25 13q-40 -1 -68 -35h-10zM321 392h-186l6 34h223l-70 -392h173l-6 -34h-396l6 34h186z" />
    <glyph glyph-name="Imacron" unicode="&#x12a;" 
d="M146 658h347l-6 -34h-347zM329 528h-195l6 34h421l-6 -34h-190l-88 -494h189l-6 -34h-421l6 34h196z" />
    <glyph glyph-name="imacron" unicode="&#x12b;" 
d="M129 521h347l-6 -34h-347zM321 392h-186l6 34h223l-70 -392h173l-6 -34h-396l6 34h186z" />
    <glyph glyph-name="Ibreve" unicode="&#x12c;" 
d="M400 720q-18 -62 -74 -87q-22 -9 -45 -9q-59 0 -80 49q-9 21 -8 47h24q6 -44 73 -44q58 0 86 44h24zM329 528h-195l6 34h421l-6 -34h-190l-88 -494h189l-6 -34h-421l6 34h196z" />
    <glyph glyph-name="ibreve" unicode="&#x12d;" 
d="M382 583q-18 -62 -74 -87q-22 -9 -45 -9q-59 0 -80 49q-9 21 -8 47h24q6 -44 73 -44q58 0 86 44h24zM321 392h-186l6 34h223l-70 -392h173l-6 -34h-396l6 34h186z" />
    <glyph glyph-name="Iogonek" unicode="&#x12e;" 
d="M294 5h42q-40 -7 -58 -51q-5 -14 -6 -29q-1 -30 40 -41q8 -2 17 -4q52 -9 91 35l16 -25q-45 -56 -110 -55q-60 1 -85 40q-14 22 -9 50q9 54 62 80zM329 528h-195l6 34h421l-6 -34h-190l-88 -494h189l-6 -34h-421l6 34h196z" />
    <glyph glyph-name="iogonek" unicode="&#x12f;" 
d="M295 5h42q-40 -7 -58 -51q-5 -14 -6 -29q-1 -30 40 -41q8 -2 17 -4q52 -9 91 35l16 -25q-45 -56 -110 -55q-60 1 -85 40q-14 22 -9 50q9 54 62 80zM356 584l-18 -97h-74l18 97h74zM321 392h-186l6 34h223l-70 -392h173l-6 -34h-396l6 34h186z" />
    <glyph glyph-name="Idotaccent" unicode="&#x130;" 
d="M374 721l-18 -97h-74l18 97h74zM329 528h-195l6 34h421l-6 -34h-190l-88 -494h189l-6 -34h-421l6 34h196z" />
    <glyph glyph-name="dotlessi" unicode="&#x131;" 
d="M321 392h-186l6 34h223l-70 -392h173l-6 -34h-396l6 34h186z" />
    <glyph glyph-name="IJ" unicode="&#x132;" 
d="M176 528h-96l6 34h230l-6 -34h-97l-87 -494h96l-6 -34h-230l6 34h97zM307 227q-16 -87 -15 -113q4 -78 79 -78q71 0 105 69q9 19 13 38l68 385h-174l6 34h307l-6 -34h-96l-68 -385q-11 -64 -60 -106q-43 -38 -102 -38q-79 0 -104 73q-12 35 -5 71l15 84h37z" />
    <glyph glyph-name="ij" unicode="&#x133;" 
d="M283 392h-186l6 34h223l-69 -392h173l-6 -34h-396l6 34h186zM350 562l-17 -97h-74l17 97h74zM611 562l-17 -97h-74l17 97h74zM238 -134q29 -22 92 -26h13q50 0 94 59q27 35 33 70l75 423h-131l6 34h168l-81 -457q-10 -61 -63 -114q-51 -52 -108 -52q-79 0 -120 30z" />
    <glyph glyph-name="Jcircumflex" unicode="&#x134;" 
d="M494 638l-17 -14l-99 93l-135 -93l-11 14l142 121h21zM144 227q-16 -87 -14 -113q3 -78 79 -78q70 0 104 69q9 19 13 38l68 385h-173l6 34h307l-6 -34h-97l-68 -385q-11 -63 -59 -106q-43 -38 -102 -38q-80 0 -105 73q-12 35 -5 71l15 84h37z" />
    <glyph glyph-name="jcircumflex" unicode="&#x135;" 
d="M447 500l-17 -14l-99 93l-135 -93l-11 14l142 121h21zM32 -134q29 -22 92 -26h13q50 0 94 59q27 35 33 70l75 423h-131l6 34h168l-81 -457q-10 -61 -63 -114q-51 -52 -108 -52q-80 0 -120 30z" />
    <glyph glyph-name="Kcommaaccent" unicode="&#x136;" 
d="M167 8l-19 -54q64 12 92 -29q14 -22 10 -49q-10 -52 -72 -75q-47 -18 -115 -11l11 34q90 -12 128 28q9 9 10 18q9 50 -46 53q-17 0 -38 -4l-26 -6l28 94zM364 562h209l-6 -34h-121q-115 -136 -242 -239q87 -25 141 -118q28 -48 61 -137h118l-6 -34h-139q-56 150 -107 203
q-42 44 -106 56q-14 -10 -23 -16l-37 -209h91l-6 -34h-209l6 34h82l88 494h-82l6 34h209l-6 -34h-91l-42 -237q123 93 248 237h-42z" />
    <glyph glyph-name="kcommaaccent" unicode="&#x137;" 
d="M208 8l-19 -54q64 12 92 -29q14 -22 10 -49q-10 -52 -72 -75q-47 -18 -115 -11l11 34q90 -12 128 28q9 9 10 18q9 50 -46 53q-17 0 -38 -4l-26 -6l28 94zM300 34h35l-126 198l-37 -27l-36 -205h-137l6 34h100l97 551l-106 -36l6 34l146 49l-67 -378l189 138h-33l6 34h170
l-6 -34h-80l-186 -136l142 -222h94l-6 -34h-177z" />
    <glyph glyph-name="kgreenlandic" unicode="&#x138;" 
d="M338 426h209l-6 -34h-121q-51 -60 -115 -104q-46 -32 -69 -51q91 -42 151 -196q1 -3 2 -7h118l-6 -34h-139q-37 100 -107 167q-30 29 -57 40q-14 -10 -23 -16l-28 -157h91l-6 -34h-209l6 34h82l64 358h-82l6 34h166l-6 -34h-48l-27 -153l108 74q39 29 82 79h-42z" />
    <glyph glyph-name="Lacute" unicode="&#x139;" 
d="M542 799l-199 -175h-46l152 175h93zM227 528h-84l6 34h208l-6 -34h-87l-88 -494h247l55 189h34l-60 -223h-404l6 34h85z" />
    <glyph glyph-name="lacute" unicode="&#x13a;" 
d="M517 867l-199 -175h-46l152 175h93zM303 589l-170 -40l6 34l209 49l-106 -598h216l-6 -34h-416l6 34h163z" />
    <glyph glyph-name="Lcommaaccent" unicode="&#x13b;" 
d="M335 8l-19 -54q64 12 92 -29q14 -22 10 -49q-10 -52 -72 -75q-47 -18 -115 -11l11 34q90 -12 128 28q9 9 10 18q9 50 -46 53q-17 0 -38 -4l-26 -6l28 94zM227 528h-84l6 34h208l-6 -34h-87l-88 -494h247l55 189h34l-60 -223h-404l6 34h85z" />
    <glyph glyph-name="lcommaaccent" unicode="&#x13c;" 
d="M335 8l-19 -54q64 12 92 -29q14 -22 10 -49q-10 -52 -72 -75q-47 -18 -115 -11l11 34q90 -12 128 28q9 9 10 18q9 50 -46 53q-17 0 -38 -4l-26 -6l28 94zM303 589l-170 -40l6 34l209 49l-106 -598h216l-6 -34h-416l6 34h163z" />
    <glyph glyph-name="Lcaron" unicode="&#x13d;" 
d="M489 745l-141 -121h-21l-100 121l17 14l103 -93l131 93zM227 528h-84l6 34h208l-6 -34h-87l-88 -494h247l55 189h34l-60 -223h-404l6 34h85z" />
    <glyph glyph-name="lcaron" unicode="&#x13e;" 
d="M464 813l-141 -121h-21l-100 121l17 14l103 -93l131 93zM303 589l-170 -40l6 34l209 49l-106 -598h216l-6 -34h-416l6 34h163z" />
    <glyph glyph-name="Ldot" unicode="&#x13f;" 
d="M244 282q6 36 46 54q18 8 36 8q42 0 57 -33q6 -14 3 -29q-6 -36 -46 -54q-18 -8 -36 -8q-42 0 -57 33q-6 14 -3 29zM227 528h-84l6 34h208l-6 -34h-87l-88 -494h247l55 189h34l-60 -223h-404l6 34h85z" />
    <glyph glyph-name="ldot" unicode="&#x140;" horiz-adv-x="1200" 
d="M832 248q6 36 46 54q18 8 36 8q42 0 57 -33q6 -14 3 -29q-6 -36 -46 -54q-18 -8 -36 -8q-42 0 -57 33q-6 14 -3 29zM303 589l-170 -40l6 34l209 49l-106 -598h216l-6 -34h-416l6 34h163z" />
    <glyph glyph-name="Lslash" unicode="&#x141;" 
d="M227 528h-84l6 34h208l-6 -34h-87l-34 -191l155 79l-7 -39l-155 -79l-47 -264h247l62 195h34l-67 -229h-404l6 34h85l43 243l-83 -43l7 39l83 43z" />
    <glyph glyph-name="lslash" unicode="&#x142;" 
d="M188 283l67 34l48 272l-170 -40l6 34l209 49l-52 -294l171 88l-6 -39l-172 -87l-47 -266h216l-6 -34h-416l6 34h163l43 245l-67 -35z" />
    <glyph glyph-name="Nacute" unicode="&#x143;" 
d="M532 799l-199 -175h-46l152 175h93zM469 54l83 474h-105l6 34h188l-6 -34h-46l-94 -535h-37l-320 535h-2l-87 -494h104l-6 -34h-187l6 34h47l87 494h-47l6 34h107z" />
    <glyph glyph-name="nacute" unicode="&#x144;" 
d="M509 675l-199 -175h-46l152 175h93zM173 376l42 21q88 43 145 43q67 0 113 -53q40 -44 31 -91l-46 -262h85l-6 -34h-208l6 34h87l46 262q7 35 -32 72q-37 35 -83 35q-67 0 -188 -71l-53 -298h85l-6 -34h-208l6 34h87l63 358h-87l6 34h124q-5 -13 -9 -50z" />
    <glyph glyph-name="Ncommaaccent" unicode="&#x145;" 
d="M108 1l-19 -54q64 12 92 -29q14 -22 10 -49q-10 -52 -72 -75q-47 -18 -115 -11l11 34q90 -12 128 28q9 9 10 18q9 50 -46 53q-17 0 -38 -4l-26 -6l28 94zM469 54l83 474h-105l6 34h188l-6 -34h-46l-94 -535h-37l-320 535h-2l-87 -494h104l-6 -34h-187l6 34h47l87 494h-47
l6 34h107z" />
    <glyph glyph-name="ncommaaccent" unicode="&#x146;" 
d="M162 8l-19 -54q64 12 92 -29q14 -22 10 -49q-10 -52 -72 -75q-47 -18 -115 -11l11 34q90 -12 128 28q9 9 10 18q9 50 -46 53q-17 0 -38 -4l-26 -6l28 94zM173 376l42 21q88 43 145 43q67 0 113 -53q40 -44 31 -91l-46 -262h85l-6 -34h-208l6 34h87l46 262q7 35 -32 72
q-37 35 -83 35q-67 0 -188 -71l-53 -298h85l-6 -34h-208l6 34h87l63 358h-87l6 34h124q-5 -13 -9 -50z" />
    <glyph glyph-name="Ncaron" unicode="&#x147;" 
d="M479 745l-141 -121h-21l-100 121l17 14l103 -93l131 93zM469 54l83 474h-105l6 34h188l-6 -34h-46l-94 -535h-37l-320 535h-2l-87 -494h104l-6 -34h-187l6 34h47l87 494h-47l6 34h107z" />
    <glyph glyph-name="ncaron" unicode="&#x148;" 
d="M456 621l-141 -121h-21l-100 121l17 14l103 -93l131 93zM173 376l42 21q88 43 145 43q67 0 113 -53q40 -44 31 -91l-46 -262h85l-6 -34h-208l6 34h87l46 262q7 35 -32 72q-37 35 -83 35q-67 0 -188 -71l-53 -298h85l-6 -34h-208l6 34h87l63 358h-87l6 34h124
q-5 -13 -9 -50z" />
    <glyph glyph-name="napostrophe" unicode="&#x149;" 
d="M466 707l-147 -173h-40l108 173h79zM173 376l42 21q88 43 145 43q67 0 113 -53q40 -44 31 -91l-46 -262h85l-6 -34h-208l6 34h87l46 262q7 35 -32 72q-37 35 -83 35q-67 0 -188 -71l-53 -298h85l-6 -34h-208l6 34h87l63 358h-87l6 34h124q-5 -13 -9 -50z" />
    <glyph glyph-name="Eng" unicode="&#x14a;" 
d="M278 0q-12 -67 -8 -91q8 -63 79 -63q72 0 106 69q9 19 12 38l7 40l-320 535h-2l-87 -494h104l-6 -34h-187l6 34h47l87 494h-47l6 34h106l304 -508l83 474h-105l6 34h188l-6 -34h-46l-101 -575q-11 -63 -59 -106q-43 -38 -101 -38q-81 0 -105 73q-12 35 -6 71l8 47h37z
" />
    <glyph glyph-name="eng" unicode="&#x14b;" 
d="M196 -134q29 -22 92 -26h12q52 0 96 58q26 35 32 71l58 327q6 35 -32 72q-37 35 -83 35q-67 0 -189 -71l-52 -298h85l-6 -34h-208l6 34h87l63 358h-87l6 34h123l-9 -50q36 18 43 21q87 43 144 43q66 0 114 -52q40 -45 32 -92l-58 -327q-12 -70 -68 -122q-48 -44 -102 -44
q-81 0 -121 30z" />
    <glyph glyph-name="Omacron" unicode="&#x14c;" 
d="M146 658h347l-6 -34h-347zM350 564q100 0 155 -85q53 -83 33 -198q-22 -123 -113 -207q-81 -76 -175 -76q-100 0 -155 85q-53 83 -33 198q22 123 113 207q81 76 175 76zM343 527q-88 0 -163 -81q-64 -70 -81 -165q-20 -116 40 -190q46 -56 118 -56q88 0 163 81
q64 70 81 165q20 116 -40 190q-46 56 -118 56z" />
    <glyph glyph-name="omacron" unicode="&#x14d;" 
d="M122 521h347l-6 -34h-347zM338 427q99 0 154 -70q48 -61 33 -144q-17 -97 -105 -160q-73 -54 -158 -54q-99 0 -154 70q-48 61 -33 144q17 97 105 160q73 54 158 54zM331 390q-90 0 -159 -68q-49 -48 -60 -109q-15 -83 43 -136q45 -41 114 -41q96 0 163 69q45 46 56 108
q16 89 -47 141q-44 36 -110 36z" />
    <glyph glyph-name="Obreve" unicode="&#x14e;" 
d="M399 720q-18 -62 -74 -87q-22 -9 -45 -9q-59 0 -80 49q-9 21 -8 47h24q6 -44 73 -44q58 0 86 44h24zM350 564q100 0 155 -85q53 -83 33 -198q-22 -123 -113 -207q-81 -76 -175 -76q-100 0 -155 85q-53 83 -33 198q22 123 113 207q81 76 175 76zM343 527q-88 0 -163 -81
q-64 -70 -81 -165q-20 -116 40 -190q46 -56 118 -56q88 0 163 81q64 70 81 165q20 116 -40 190q-46 56 -118 56z" />
    <glyph glyph-name="obreve" unicode="&#x14f;" 
d="M375 583q-18 -62 -74 -87q-22 -9 -45 -9q-59 0 -80 49q-9 21 -8 47h24q6 -44 73 -44q58 0 86 44h24zM338 427q99 0 154 -70q48 -61 33 -144q-17 -97 -105 -160q-73 -54 -158 -54q-99 0 -154 70q-48 61 -33 144q17 97 105 160q73 54 158 54zM331 390q-90 0 -159 -68
q-49 -48 -60 -109q-15 -83 43 -136q45 -41 114 -41q96 0 163 69q45 46 56 108q16 89 -47 141q-44 36 -110 36z" />
    <glyph glyph-name="Ohungarumlaut" unicode="&#x150;" 
d="M441 799l-199 -175h-46l152 175h93zM623 799l-199 -175h-46l152 175h93zM350 564q100 0 155 -85q53 -83 33 -198q-22 -123 -113 -207q-81 -76 -175 -76q-100 0 -155 85q-53 83 -33 198q22 123 113 207q81 76 175 76zM343 527q-88 0 -163 -81q-64 -70 -81 -165
q-20 -116 40 -190q46 -56 118 -56q88 0 163 81q64 70 81 165q20 116 -40 190q-46 56 -118 56z" />
    <glyph glyph-name="ohungarumlaut" unicode="&#x151;" 
d="M416 662l-199 -175h-46l152 175h93zM598 662l-199 -175h-46l152 175h93zM338 427q99 0 154 -70q48 -61 33 -144q-17 -97 -105 -160q-73 -54 -158 -54q-99 0 -154 70q-48 61 -33 144q17 97 105 160q73 54 158 54zM331 390q-90 0 -159 -68q-49 -48 -60 -109
q-15 -83 43 -136q45 -41 114 -41q96 0 163 69q45 46 56 108q16 89 -47 141q-44 36 -110 36z" />
    <glyph glyph-name="OE" unicode="&#x152;" 
d="M227 37l86 488q-89 0 -163 -80q-64 -69 -81 -164q-20 -116 40 -188q46 -56 118 -56zM502 402l-25 -143h-34l11 62h-140l-51 -287h219l28 87h34l-34 -121h-290q-100 0 -155 85q-53 82 -33 196q22 123 113 207q81 74 175 74h290l-12 -115h-34l6 81h-219l-31 -173h140l8 47
h34z" />
    <glyph glyph-name="oe" unicode="&#x153;" 
d="M557 247q10 94 -20 123q-20 20 -63 20q-95 0 -132 -123q-3 -10 -5 -20h220zM211 428q72 0 105 -73q7 -15 11 -33q50 105 154 105q112 0 118 -113q3 -41 -8 -101h-260q-25 -143 54 -170q16 -6 37 -6q50 0 93 41q-30 -29 20 19l18 -28q-68 -68 -138 -69q-110 0 -125 106
q-49 -83 -120 -103q-18 -5 -35 -5q-73 0 -107 75q-27 61 -13 140q18 102 88 167q51 48 108 48zM204 391q-57 0 -105 -65q-37 -48 -48 -113q-17 -96 29 -149q26 -29 62 -29q51 0 102 67q40 53 50 111q14 79 -22 136q-27 42 -68 42z" />
    <glyph glyph-name="Racute" unicode="&#x154;" 
d="M417 799l-199 -175h-46l152 175h93zM143 281h216q61 0 109 39q41 33 50 84q16 93 -68 117q-22 7 -47 7h-216zM326 247q53 -58 76 -148q6 -22 14 -65h70l-6 -34h-94q-22 110 -39 148q-23 53 -74 99h-137l-38 -213h130l-6 -34h-263l6 34h97l88 494h-97l6 34h350
q80 0 120 -48q35 -42 23 -110q-17 -96 -116 -138q-43 -19 -83 -19h-27z" />
    <glyph glyph-name="racute" unicode="&#x155;" 
d="M484 675l-199 -175h-46l152 175h93zM487 363q-9 15 -53 31q-23 9 -40 9q-65 0 -176 -60q-10 -6 -19 -11l-53 -297h85l-6 -35h-209l6 35h87l63 357h-87l6 34h124l-8 -50l42 21q85 43 151 43q63 0 111 -41q6 -6 11 -12z" />
    <glyph glyph-name="Rcommaaccent" unicode="&#x156;" 
d="M159 8l-19 -54q64 12 92 -29q14 -22 10 -49q-10 -52 -72 -75q-47 -18 -115 -11l11 34q90 -12 128 28q9 9 10 18q9 50 -46 53q-17 0 -38 -4l-26 -6l28 94zM143 281h216q61 0 109 39q41 33 50 84q16 93 -68 117q-22 7 -47 7h-216zM326 247q53 -58 76 -148q6 -22 14 -65h70
l-6 -34h-94q-22 110 -39 148q-23 53 -74 99h-137l-38 -213h130l-6 -34h-263l6 34h97l88 494h-97l6 34h350q80 0 120 -48q35 -42 23 -110q-17 -96 -116 -138q-43 -19 -83 -19h-27z" />
    <glyph glyph-name="rcommaaccent" unicode="&#x157;" 
d="M176 8l-19 -54q64 12 92 -29q14 -22 10 -49q-10 -52 -72 -75q-47 -18 -115 -11l11 34q90 -12 128 28q9 9 10 18q9 50 -46 53q-17 0 -38 -4l-26 -6l28 94zM487 363q-9 15 -53 31q-23 9 -40 9q-65 0 -176 -60q-10 -6 -19 -11l-53 -297h85l-6 -35h-209l6 35h87l63 357h-87
l6 34h124l-8 -50l42 21q85 43 151 43q63 0 111 -41q6 -6 11 -12z" />
    <glyph glyph-name="Rcaron" unicode="&#x158;" 
d="M364 745l-141 -121h-21l-100 121l17 14l103 -93l131 93zM143 281h216q61 0 109 39q41 33 50 84q16 93 -68 117q-22 7 -47 7h-216zM326 247q53 -58 76 -148q6 -22 14 -65h70l-6 -34h-94q-22 110 -39 148q-23 53 -74 99h-137l-38 -213h130l-6 -34h-263l6 34h97l88 494h-97
l6 34h350q80 0 120 -48q35 -42 23 -110q-17 -96 -116 -138q-43 -19 -83 -19h-27z" />
    <glyph glyph-name="rcaron" unicode="&#x159;" 
d="M432 621l-141 -121h-21l-100 121l17 14l103 -93l131 93zM487 363q-9 15 -53 31q-23 9 -40 9q-65 0 -176 -60q-10 -6 -19 -11l-53 -297h85l-6 -35h-209l6 35h87l63 357h-87l6 34h124l-8 -50l42 21q85 43 151 43q63 0 111 -41q6 -6 11 -12z" />
    <glyph glyph-name="Sacute" unicode="&#x15a;" 
d="M615 805l-199 -175h-46l152 175h93zM510 570q-18 -33 -22 -57q-8 -49 11 -75h-32q-2 1 -3 2q-12 47 -56 75q-28 18 -60 18q-83 0 -131 -47q-24 -24 -29 -54q-12 -67 58 -100q12 -6 95 -33q83 -28 105 -68q15 -29 8 -72q-15 -82 -100 -125q-50 -25 -105 -25q-62 0 -106 43
q-6 8 -12 -7q-10 -22 -23 -45h-34l21 42q14 27 17 44q4 25 -9 63q-1 3 -2 5h34l8 -29q23 -60 82 -75q15 -4 31 -4q77 0 127 50q28 28 34 63q11 61 -56 92q-11 5 -94 33q-85 29 -108 71q-16 32 -8 77q14 80 105 118q48 20 98 20q52 0 95 -36q9 -8 12 1q7 22 15 35h34z" />
    <glyph glyph-name="sacute" unicode="&#x15b;" 
d="M590 667l-199 -175h-46l152 175h93zM499 432q-16 -24 -20 -49q-8 -40 13 -62h-34q-14 36 -59 59q-30 15 -62 15q-108 0 -143 -45q-9 -11 -12 -25q-9 -51 60 -75q8 -3 101 -26q92 -23 111 -63q10 -21 5 -49q-12 -64 -96 -98q-49 -19 -103 -19q-63 0 -108 33q-7 6 -12 -5
l-21 -35h-34l20 33q12 20 16 39q3 19 -10 50q-2 4 -4 6h34l10 -22q28 -53 96 -61q10 -1 20 -1q96 0 137 45q14 16 18 35q8 47 -58 69l-137 35q-84 28 -84 89q0 10 2 20q12 64 104 93q46 14 94 14q51 0 96 -27q10 -7 12 0q6 18 14 27h34z" />
    <glyph glyph-name="Scircumflex" unicode="&#x15c;" 
d="M547 644l-17 -14l-99 93l-135 -93l-11 14l142 121h21zM510 570q-18 -33 -22 -57q-8 -49 11 -75h-32q-2 1 -3 2q-12 47 -56 75q-28 18 -60 18q-83 0 -131 -47q-24 -24 -29 -54q-12 -67 58 -100q12 -6 95 -33q83 -28 105 -68q15 -29 8 -72q-15 -82 -100 -125
q-50 -25 -105 -25q-62 0 -106 43q-6 8 -12 -7q-10 -22 -23 -45h-34l21 42q14 27 17 44q4 25 -9 63q-1 3 -2 5h34l8 -29q23 -60 82 -75q15 -4 31 -4q77 0 127 50q28 28 34 63q11 61 -56 92q-11 5 -94 33q-85 29 -108 71q-16 32 -8 77q14 80 105 118q48 20 98 20q52 0 95 -36
q9 -8 12 1q7 22 15 35h34z" />
    <glyph glyph-name="scircumflex" unicode="&#x15d;" 
d="M522 506l-17 -14l-99 93l-135 -93l-11 14l142 121h21zM499 432q-16 -24 -20 -49q-8 -40 13 -62h-34q-14 36 -59 59q-30 15 -62 15q-108 0 -143 -45q-9 -11 -12 -25q-9 -51 60 -75q8 -3 101 -26q92 -23 111 -63q10 -21 5 -49q-12 -64 -96 -98q-49 -19 -103 -19
q-63 0 -108 33q-7 6 -12 -5l-21 -35h-34l20 33q12 20 16 39q3 19 -10 50q-2 4 -4 6h34l10 -22q28 -53 96 -61q10 -1 20 -1q96 0 137 45q14 16 18 35q8 47 -58 69l-137 35q-84 28 -84 89q0 10 2 20q12 64 104 93q46 14 94 14q51 0 96 -27q10 -7 12 0q6 18 14 27h34z" />
    <glyph glyph-name="Scedilla" unicode="&#x15e;" 
d="M176 8l-19 -54q64 12 92 -29q14 -22 10 -49q-10 -52 -72 -75q-47 -18 -115 -11l11 34q90 -12 128 28q9 9 10 18q9 50 -46 53q-17 0 -38 -4l-26 -6l28 94zM510 570q-18 -33 -22 -57q-8 -49 11 -75h-32q-2 1 -3 2q-12 47 -56 75q-28 18 -60 18q-83 0 -131 -47
q-24 -24 -29 -54q-12 -67 58 -100q12 -6 95 -33q83 -28 105 -68q15 -29 8 -72q-15 -82 -100 -125q-50 -25 -105 -25q-62 0 -106 43q-6 8 -12 -7q-10 -22 -23 -45h-34l21 42q14 27 17 44q4 25 -9 63q-1 3 -2 5h34l8 -29q23 -60 82 -75q15 -4 31 -4q77 0 127 50q28 28 34 63
q11 61 -56 92q-11 5 -94 33q-85 29 -108 71q-16 32 -8 77q14 80 105 118q48 20 98 20q52 0 95 -36q9 -8 12 1q7 22 15 35h34z" />
    <glyph glyph-name="scedilla" unicode="&#x15f;" 
d="M174 -4l-19 -54q64 12 92 -29q14 -22 10 -49q-10 -52 -72 -75q-47 -18 -115 -11l11 34q90 -12 128 28q9 9 10 18q9 50 -46 53q-17 0 -38 -4l-26 -6l28 94zM499 432q-16 -24 -20 -49q-8 -40 13 -62h-34q-14 36 -59 59q-30 15 -62 15q-108 0 -143 -45q-9 -11 -12 -25
q-9 -51 60 -75q8 -3 101 -26q92 -23 111 -63q10 -21 5 -49q-12 -64 -96 -98q-49 -19 -103 -19q-63 0 -108 33q-7 6 -12 -5l-21 -35h-34l20 33q12 20 16 39q3 19 -10 50q-2 4 -4 6h34l10 -22q28 -53 96 -61q10 -1 20 -1q96 0 137 45q14 16 18 35q8 47 -58 69l-137 35
q-84 28 -84 89q0 10 2 20q12 64 104 93q46 14 94 14q51 0 96 -27q10 -7 12 0q6 18 14 27h34z" />
    <glyph glyph-name="Scaron" unicode="&#x160;" 
d="M562 751l-141 -121h-21l-100 121l17 14l103 -93l131 93zM510 570q-18 -33 -22 -57q-8 -49 11 -75h-32q-2 1 -3 2q-12 47 -56 75q-28 18 -60 18q-83 0 -131 -47q-24 -24 -29 -54q-12 -67 58 -100q12 -6 95 -33q83 -28 105 -68q15 -29 8 -72q-15 -82 -100 -125
q-50 -25 -105 -25q-62 0 -106 43q-6 8 -12 -7q-10 -22 -23 -45h-34l21 42q14 27 17 44q4 25 -9 63q-1 3 -2 5h34l8 -29q23 -60 82 -75q15 -4 31 -4q77 0 127 50q28 28 34 63q11 61 -56 92q-11 5 -94 33q-85 29 -108 71q-16 32 -8 77q14 80 105 118q48 20 98 20q52 0 95 -36
q9 -8 12 1q7 22 15 35h34z" />
    <glyph glyph-name="scaron" unicode="&#x161;" 
d="M538 613l-141 -121h-21l-100 121l17 14l103 -93l131 93zM499 432q-16 -24 -20 -49q-8 -40 13 -62h-34q-14 36 -59 59q-30 15 -62 15q-108 0 -143 -45q-9 -11 -12 -25q-9 -51 60 -75q8 -3 101 -26q92 -23 111 -63q10 -21 5 -49q-12 -64 -96 -98q-49 -19 -103 -19
q-63 0 -108 33q-7 6 -12 -5l-21 -35h-34l20 33q12 20 16 39q3 19 -10 50q-2 4 -4 6h34l10 -22q28 -53 96 -61q10 -1 20 -1q96 0 137 45q14 16 18 35q8 47 -58 69l-137 35q-84 28 -84 89q0 10 2 20q12 64 104 93q46 14 94 14q51 0 96 -27q10 -7 12 0q6 18 14 27h34z" />
    <glyph glyph-name="uni0162" unicode="&#x162;" 
d="M335 8l-19 -54q64 12 92 -29q14 -22 10 -49q-10 -52 -72 -75q-47 -18 -115 -11l11 34q90 -12 128 28q9 9 10 18q9 50 -46 53q-17 0 -38 -4l-26 -6l28 94zM536 358l20 170h-194l-88 -494h149l-6 -34h-333l6 34h148l88 494h-193l-40 -170h-35l46 204h491l-25 -204h-34z" />
    <glyph glyph-name="uni0163" unicode="&#x163;" 
d="M347 -11l-19 -54q64 12 92 -29q14 -22 10 -49q-10 -52 -72 -75q-47 -18 -115 -11l11 34q90 -12 128 28q9 9 10 18q9 50 -46 53q-17 0 -38 -4l-26 -6l28 94zM81 426h78l23 132h37l-23 -132h252l-6 -34h-252l-45 -251q-9 -53 39 -92q37 -31 88 -31q72 0 207 115l24 -24
q-95 -87 -182 -117q-31 -11 -56 -11q-76 0 -124 54q-42 47 -32 106l45 251h-79z" />
    <glyph glyph-name="Tcaron" unicode="&#x164;" 
d="M478 745l-141 -121h-21l-100 121l17 14l103 -93l131 93zM536 358l20 170h-194l-88 -494h149l-6 -34h-333l6 34h148l88 494h-193l-40 -170h-35l46 204h491l-25 -204h-34z" />
    <glyph glyph-name="tcaron" unicode="&#x165;" 
d="M329 739l-141 -121h-21l-100 121l17 14l103 -93l131 93zM81 426h78l23 132h37l-23 -132h252l-6 -34h-252l-45 -251q-9 -53 39 -92q37 -31 88 -31q72 0 207 115l24 -24q-95 -87 -182 -117q-31 -11 -56 -11q-76 0 -124 54q-42 47 -32 106l45 251h-79z" />
    <glyph glyph-name="Tbar" unicode="&#x166;" 
d="M536 358l20 170h-194l-38 -212h102l-6 -34h-102l-44 -248h149l-6 -34h-333l6 34h148l44 248h-102l6 34h102l38 212h-193l-40 -170h-35l46 204h491l-25 -204h-34z" />
    <glyph glyph-name="tbar" unicode="&#x167;" 
d="M81 426h78l23 132h37l-23 -132h252l-6 -34h-252l-21 -115h60l-6 -34h-60l-18 -102q-9 -53 39 -92q37 -31 88 -31q72 0 207 115l24 -24q-95 -87 -182 -117q-31 -11 -56 -11q-76 0 -124 54q-42 47 -32 106l18 102h-59l6 34h59l21 115h-79z" />
    <glyph glyph-name="Utilde" unicode="&#x168;" 
d="M177 625q9 43 52 67q19 11 37 11q15 1 40 -22q14 -13 23 -12q34 3 59 30h5q-4 -40 -36 -63q-16 -11 -34 -11q-23 1 -43 22q-13 13 -25 13q-40 -1 -68 -35h-10zM616 528h-71l-61 -349q-11 -60 -73 -117q-74 -69 -161 -69q-88 0 -139 75q-39 57 -29 111l61 349h-71l6 34
h204l-6 -34h-100l-61 -349q-7 -39 28 -89q45 -63 112 -63q80 0 147 72q41 43 48 80l61 349h-99l6 34h204z" />
    <glyph glyph-name="utilde" unicode="&#x169;" 
d="M109 488q9 43 52 67q19 11 37 11q15 1 40 -22q14 -13 23 -12q34 3 59 30h5q-4 -40 -36 -63q-16 -11 -34 -11q-23 1 -43 22q-13 13 -25 13q-40 -1 -68 -35h-10zM426 51q-37 -18 -43 -21q-88 -43 -145 -43q-66 0 -113 53q-40 44 -31 91l46 261h-85l6 34h122l-53 -295
q-6 -35 32 -72q37 -35 83 -35q67 0 188 71l53 297h-85l6 34h122l-69 -391h86l-6 -35h-123z" />
    <glyph glyph-name="Umacron" unicode="&#x16a;" 
d="M146 658h347l-6 -34h-347zM616 528h-71l-61 -349q-11 -60 -73 -117q-74 -69 -161 -69q-88 0 -139 75q-39 57 -29 111l61 349h-71l6 34h204l-6 -34h-100l-61 -349q-7 -39 28 -89q45 -63 112 -63q80 0 147 72q41 43 48 80l61 349h-99l6 34h204z" />
    <glyph glyph-name="umacron" unicode="&#x16b;" 
d="M78 521h347l-6 -34h-347zM426 51q-37 -18 -43 -21q-88 -43 -145 -43q-66 0 -113 53q-40 44 -31 91l46 261h-85l6 34h122l-53 -295q-6 -35 32 -72q37 -35 83 -35q67 0 188 71l53 297h-85l6 34h122l-69 -391h86l-6 -35h-123z" />
    <glyph glyph-name="Ubreve" unicode="&#x16c;" 
d="M399 720q-18 -62 -74 -87q-22 -9 -45 -9q-59 0 -80 49q-9 21 -8 47h24q6 -44 73 -44q58 0 86 44h24zM616 528h-71l-61 -349q-11 -60 -73 -117q-74 -69 -161 -69q-88 0 -139 75q-39 57 -29 111l61 349h-71l6 34h204l-6 -34h-100l-61 -349q-7 -39 28 -89q45 -63 112 -63
q80 0 147 72q41 43 48 80l61 349h-99l6 34h204z" />
    <glyph glyph-name="ubreve" unicode="&#x16d;" 
d="M332 583q-18 -62 -74 -87q-22 -9 -45 -9q-59 0 -80 49q-9 21 -8 47h24q6 -44 73 -44q58 0 86 44h24zM426 51q-37 -18 -43 -21q-88 -43 -145 -43q-66 0 -113 53q-40 44 -31 91l46 261h-85l6 34h122l-53 -295q-6 -35 32 -72q37 -35 83 -35q67 0 188 71l53 297h-85l6 34h122
l-69 -391h86l-6 -35h-123z" />
    <glyph glyph-name="Uring" unicode="&#x16e;" 
d="M347 806q49 0 69 -42q11 -22 6 -49q-9 -51 -57 -78q-25 -13 -50 -13q-49 0 -69 42q-11 22 -6 49q9 51 57 78q25 13 50 13zM341 772q-36 0 -58 -34q-7 -11 -9 -23q-6 -34 22 -51q11 -6 25 -6q36 0 58 34q7 11 9 23q6 34 -22 51q-11 6 -25 6zM616 528h-71l-61 -349
q-11 -60 -73 -117q-74 -69 -161 -69q-88 0 -139 75q-39 57 -29 111l61 349h-71l6 34h204l-6 -34h-100l-61 -349q-7 -39 28 -89q45 -63 112 -63q80 0 147 72q41 43 48 80l61 349h-99l6 34h204z" />
    <glyph glyph-name="uring" unicode="&#x16f;" 
d="M279 669q49 0 69 -42q11 -22 6 -49q-9 -51 -57 -78q-25 -13 -50 -13q-49 0 -69 42q-11 22 -6 49q9 51 57 78q25 13 50 13zM273 635q-36 0 -58 -34q-7 -11 -9 -23q-6 -34 22 -51q11 -6 25 -6q36 0 58 34q7 11 9 23q6 34 -22 51q-11 6 -25 6zM426 51q-37 -18 -43 -21
q-88 -43 -145 -43q-66 0 -113 53q-40 44 -31 91l46 261h-85l6 34h122l-53 -295q-6 -35 32 -72q37 -35 83 -35q67 0 188 71l53 297h-85l6 34h122l-69 -391h86l-6 -35h-123z" />
    <glyph glyph-name="Uhungarumlaut" unicode="&#x170;" 
d="M441 799l-199 -175h-46l152 175h93zM623 799l-199 -175h-46l152 175h93zM616 528h-71l-61 -349q-11 -60 -73 -117q-74 -69 -161 -69q-88 0 -139 75q-39 57 -29 111l61 349h-71l6 34h204l-6 -34h-100l-61 -349q-7 -39 28 -89q45 -63 112 -63q80 0 147 72q41 43 48 80
l61 349h-99l6 34h204z" />
    <glyph glyph-name="uhungarumlaut" unicode="&#x171;" 
d="M373 662l-199 -175h-46l152 175h93zM555 662l-199 -175h-46l152 175h93zM426 51q-37 -18 -43 -21q-88 -43 -145 -43q-66 0 -113 53q-40 44 -31 91l46 261h-85l6 34h122l-53 -295q-6 -35 32 -72q37 -35 83 -35q67 0 188 71l53 297h-85l6 34h122l-69 -391h86l-6 -35h-123z
" />
    <glyph glyph-name="Uogonek" unicode="&#x172;" 
d="M293 -1h42q-40 -7 -58 -51q-5 -14 -6 -29q-1 -30 40 -41q8 -2 17 -4q52 -9 91 35l16 -25q-45 -56 -110 -55q-60 1 -85 40q-14 22 -9 50q9 54 62 80zM616 528h-71l-61 -349q-11 -60 -73 -117q-74 -69 -161 -69q-88 0 -139 75q-39 57 -29 111l61 349h-71l6 34h204l-6 -34
h-100l-61 -349q-7 -39 28 -89q45 -63 112 -63q80 0 147 72q41 43 48 80l61 349h-99l6 34h204z" />
    <glyph glyph-name="uogonek" unicode="&#x173;" 
d="M463 -7h42q-40 -7 -58 -51q-5 -14 -6 -29q-1 -30 40 -41q8 -2 17 -4q52 -9 91 35l16 -25q-45 -56 -110 -55q-60 1 -85 40q-14 22 -9 50q9 54 62 80zM426 51q-37 -18 -43 -21q-88 -43 -145 -43q-66 0 -113 53q-40 44 -31 91l46 261h-85l6 34h122l-53 -295q-6 -35 32 -72
q37 -35 83 -35q67 0 188 71l53 297h-85l6 34h122l-69 -391h86l-6 -35h-123z" />
    <glyph glyph-name="Wcircumflex" unicode="&#x174;" 
d="M463 638l-17 -14l-99 93l-135 -93l-11 14l142 121h21zM453 562h198l-6 -34h-24l-238 -543h-22l-44 385l-180 -385h-22l-46 543h-24l6 34h198l-6 -34h-136l38 -444l174 373h26l44 -373l194 444h-136z" />
    <glyph glyph-name="wcircumflex" unicode="&#x175;" 
d="M439 501l-17 -14l-99 93l-135 -93l-11 14l142 121h21zM110 392l46 -336l152 269h28l56 -269l166 336h-125l6 34h201l-6 -34h-37l-204 -416h-24l-59 282l-159 -282h-24l-56 416h-37l6 34h201l-6 -34h-125z" />
    <glyph glyph-name="Ycircumflex" unicode="&#x176;" 
d="M463 638l-17 -14l-99 93l-135 -93l-11 14l142 121h21zM273 34h58l-6 -34h-152l6 34h57l43 239l-141 255h-35l6 34h141l-6 -34h-60l121 -216l199 216h-60l6 34h141l-6 -34h-35l-234 -255z" />
    <glyph glyph-name="ycircumflex" unicode="&#x177;" 
d="M439 501l-17 -14l-99 93l-135 -93l-11 14l142 121h21zM232 -168h-284l6 34h213l89 134l-124 392h-76l6 34h191l-6 -34h-74l112 -350l234 350h-74l6 34h191l-6 -34h-76l-352 -526h30z" />
    <glyph glyph-name="Ydieresis" unicode="&#x178;" 
d="M208 662q5 26 31 36q7 2 14 2q25 0 31 -24q1 -7 0 -14q-5 -26 -31 -36q-7 -2 -14 -2q-25 0 -31 24q-1 7 0 14zM365 662q5 26 31 36q7 2 14 2q25 0 31 -24q1 -7 0 -14q-5 -26 -31 -36q-7 -2 -14 -2q-25 0 -31 24q-1 7 0 14zM273 34h58l-6 -34h-152l6 34h57l43 239
l-141 255h-35l6 34h141l-6 -34h-60l121 -216l199 216h-60l6 34h141l-6 -34h-35l-234 -255z" />
    <glyph glyph-name="Zacute" unicode="&#x179;" 
d="M528 799l-199 -175h-46l152 175h93zM388 34l39 156h35l-48 -190h-339l4 20l377 508h-248l-34 -153h-35l42 187h331l-5 -23l-375 -505h256z" />
    <glyph glyph-name="zacute" unicode="&#x17a;" 
d="M498 662l-199 -175h-46l152 175h93zM531 392l-412 -358h332l7 36h34l-13 -70h-418l6 34l412 358h-330l-7 -36h-34l13 70h416z" />
    <glyph glyph-name="Zdotaccent" unicode="&#x17b;" 
d="M370 721l-18 -97h-74l18 97h74zM388 34l39 156h35l-48 -190h-339l4 20l377 508h-248l-34 -153h-35l42 187h331l-5 -23l-375 -505h256z" />
    <glyph glyph-name="zdotaccent" unicode="&#x17c;" 
d="M340 584l-18 -97h-74l18 97h74zM531 392l-412 -358h332l7 36h34l-13 -70h-418l6 34l412 358h-330l-7 -36h-34l13 70h416z" />
    <glyph glyph-name="Zcaron" unicode="&#x17d;" 
d="M475 745l-141 -121h-21l-100 121l17 14l103 -93l131 93zM388 34l39 156h35l-48 -190h-339l4 20l377 508h-248l-34 -153h-35l42 187h331l-5 -23l-375 -505h256z" />
    <glyph glyph-name="zcaron" unicode="&#x17e;" 
d="M446 608l-141 -121h-21l-100 121l17 14l103 -93l131 93zM531 392l-412 -358h332l7 36h34l-13 -70h-418l6 34l412 358h-330l-7 -36h-34l13 70h416z" />
    <glyph glyph-name="longs" unicode="&#x17f;" 
d="M135 34l64 358h-73l6 34h72l14 79q10 61 82 100q46 25 90 25q82 0 139 -47l-27 -30q-48 40 -119 40q-55 0 -99 -41q-25 -23 -29 -47l-84 -471h167l-6 -34h-276l6 34h73z" />
    <glyph glyph-name="uni0180" unicode="&#x180;" 
d="M357 390q-88 0 -156 -64q-52 -49 -63 -113q-15 -85 46 -138q45 -39 110 -39q92 0 160 69q48 47 59 108q14 83 -43 136q-45 41 -113 41zM167 590l-80 -15v34l125 23l-21 -117h83l-6 -34h-83l-26 -150q71 80 172 94q16 2 32 2q100 0 154 -70q48 -61 33 -144
q-17 -97 -105 -161q-72 -53 -157 -53q-99 0 -153 70q-10 12 -17 26l-17 -95h-118l6 34h81l79 447h-79l6 34h78z" />
    <glyph glyph-name="uni0181" unicode="&#x181;" 
d="M221 361h176q59 0 93 44q14 18 18 39q8 48 -33 72q-21 12 -47 12h-177zM163 34h176q52 0 91 56q27 38 37 94q13 76 -30 121q-21 22 -45 22h-177zM433 562q62 0 94 -44q22 -31 15 -74q-13 -71 -84 -102l-4 -2q50 -42 50 -121q0 -18 -3 -35q-19 -107 -90 -158
q-37 -26 -77 -26h-303l6 34h89l88 494h-88q-40 0 -44 -31q11 3 22 1q29 -8 25 -34q-5 -28 -30 -36q-6 -2 -12 -2q-23 0 -31 32q-5 24 5 49q24 55 86 55h286z" />
    <glyph glyph-name="uni0182" unicode="&#x182;" 
d="M348 347q-81 0 -142 -60q-43 -42 -53 -97q-14 -79 44 -126q40 -32 95 -32q84 0 146 65q39 41 48 93q13 75 -40 122q-40 35 -98 35zM532 532h-319l-42 -237q64 72 156 83q13 2 26 2q91 0 139 -66q39 -53 27 -124q-16 -89 -97 -146q-63 -44 -136 -44q-90 0 -139 64
q-7 9 -13 20l-15 -84h-104l6 30h71l88 502h-54l6 30h437l-12 -146h-31z" />
    <glyph glyph-name="uni0183" unicode="&#x183;" 
d="M335 390q-88 0 -156 -65q-51 -48 -62 -112q-15 -86 46 -138q45 -39 110 -39q92 0 160 69q48 47 59 108q15 83 -43 136q-45 41 -114 41zM544 598h-359l-47 -267q69 80 171 94q16 2 33 2q99 0 154 -70q48 -61 33 -144q-17 -97 -105 -160q-73 -54 -158 -54q-99 0 -153 70
q-10 12 -17 26l-17 -95h-37l106 598h-62l6 34h492l-13 -165h-34z" />
    <glyph glyph-name="uni0184" unicode="&#x184;" 
d="M357 390q-88 0 -156 -64q-52 -49 -63 -113q-15 -85 46 -138q45 -39 110 -39q92 0 160 69q48 47 59 108q14 83 -43 136q-45 41 -113 41zM168 590l-80 -15v34l125 23l-54 -301q71 80 172 94q16 2 32 2q100 0 154 -70q48 -61 33 -144q-17 -97 -105 -161q-72 -53 -157 -53
q-99 0 -153 70q-10 12 -17 26l-17 -95h-37z" />
    <glyph glyph-name="uni0185" unicode="&#x185;" 
d="M357 390q-88 0 -156 -65q-51 -48 -62 -112q-15 -85 46 -138q44 -39 109 -39q92 0 160 69q48 47 59 108q14 83 -43 136q-45 41 -113 41zM167 590l-80 -15v34l125 23l-53 -301q71 80 172 94q16 2 32 2q100 0 154 -70q48 -61 33 -144q-17 -97 -105 -161q-73 -53 -157 -53
q-124 0 -170 86q-29 56 -16 131z" />
    <glyph glyph-name="uni0186" unicode="&#x186;" 
d="M239 -6q-81 0 -117 44q-8 7 -9 4q-1 -1 -2 -5q-6 -21 -19 -40h-34q19 36 25 69q4 23 -7 68h35q6 -59 68 -88q32 -15 67 -15q88 0 163 81q64 70 81 165q20 115 -39 188q-46 57 -119 57q-67 0 -128 -44q-13 -10 -23 -21l-27 22q56 58 142 75q23 5 43 5q101 0 156 -86
q52 -82 32 -196q-22 -124 -113 -208q-81 -75 -175 -75z" />
    <glyph glyph-name="uni0187" unicode="&#x187;" 
d="M499 520q6 21 22 41q21 24 27 28q26 21 60 21q47 0 56 -34q2 -9 0 -20q-4 -24 -31 -27q-28 -3 -37 20q-3 8 -1 20q2 11 9 21q-22 10 -52 -29q-19 -36 -25 -69q-3 -19 8 -66h-35q-7 59 -70 87q-31 14 -66 14q-88 0 -163 -81q-64 -70 -81 -165q-20 -116 40 -190
q46 -56 118 -56q66 0 127 44q13 10 24 21l27 -21q-56 -58 -141 -76q-23 -5 -44 -5q-101 0 -156 86q-52 82 -32 197q22 124 113 208q81 75 175 75q81 0 117 -44q9 -7 11 0z" />
    <glyph glyph-name="uni0188" unicode="&#x188;" 
d="M482 377l6 15q25 28 42 37q22 12 48 12q47 0 56 -34q2 -9 0 -20q-4 -24 -31 -27q-28 -3 -37 20q-3 8 -1 20q2 11 9 21q-23 10 -52 -29l-22 -56q7 -13 13 -36l-37 -12q-22 67 -91 92q-28 10 -61 10q-92 0 -161 -69q-48 -47 -58 -108q-15 -81 45 -134q48 -42 121 -42
q57 0 130 37q14 7 25 14l14 -34q-60 -42 -146 -52q-16 -2 -30 -2q-108 0 -164 72q-47 60 -32 141q17 97 104 160q74 54 158 54q79 0 137 -52q10 -7 15 2z" />
    <glyph glyph-name="uni0189" unicode="&#x189;" 
d="M141 34h162q66 0 133 84q62 77 78 166q12 73 -14 148q-33 96 -109 96h-162l-38 -212h69l-6 -34h-69zM8 34h96l44 248h-66l6 34h66l38 212h-96l6 34h295q101 0 140 -114q26 -80 12 -162q-16 -92 -74 -175q-77 -111 -178 -111h-295z" />
    <glyph glyph-name="uni018A" unicode="&#x18a;" 
d="M141 34h162q66 0 133 84q62 77 78 166q12 73 -14 148q-33 96 -109 96h-162zM397 562q101 0 140 -114q26 -80 12 -162q-16 -92 -74 -175q-77 -111 -178 -111h-295l6 34h96l88 494h-96q-40 0 -44 -31q11 3 22 1q31 -9 25 -38q-6 -26 -31 -33q-6 -2 -12 -2q-26 0 -31 34
q-4 23 6 48q24 55 86 55h280z" />
    <glyph glyph-name="uni018B" unicode="&#x18b;" 
d="M262 347q-84 0 -146 -64q-39 -42 -48 -93q-13 -76 41 -124q39 -34 97 -34q81 0 142 60q43 43 53 98q14 78 -44 125q-40 32 -95 32zM142 532l-34 -116h-31l40 146h437l-6 -30h-54l-88 -502h71l-6 -30h-104l15 84q-64 -73 -158 -83q-12 -1 -24 -1q-90 0 -138 65
q-40 54 -27 125q15 88 96 145q64 45 136 45q90 0 139 -64q8 -10 13 -21l42 237h-319z" />
    <glyph glyph-name="uni018C" unicode="&#x18c;" 
d="M286 390q-92 0 -161 -69q-47 -47 -58 -108q-15 -83 43 -136q45 -41 114 -41q88 0 156 64q52 49 63 113q15 85 -47 138q-45 39 -110 39zM151 598l-39 -131h-34l45 165h492l-6 -34h-62l-106 -598h-37l17 95q-69 -80 -171 -94q-16 -2 -33 -2q-99 0 -154 70q-48 61 -33 144
q17 97 105 160q73 54 158 54q99 0 153 -70q10 -12 17 -26l47 267h-359z" />
    <glyph glyph-name="uni018D" unicode="&#x18d;" 
d="M350 427q99 0 154 -70q48 -61 33 -144q-17 -97 -105 -160q-68 -50 -148 -53l-13 -73q-6 -32 -50 -55q-27 -13 -53 -13q-55 0 -67 45q-1 6 -2 13q-3 49 34 70q8 5 17 7q23 6 29 -17q6 -27 -17 -46q-9 -7 -21 -10q-12 -2 -21 1q-10 -31 29 -43q12 -4 24 -4q39 0 64 26
q11 12 14 27l13 72q-97 4 -148 76q-42 59 -29 137q17 97 105 160q73 54 158 54zM344 390q-91 0 -160 -68q-49 -48 -60 -109q-14 -83 44 -136q45 -41 113 -41q96 0 163 69q45 46 56 108q16 89 -47 141q-44 36 -109 36z" />
    <glyph glyph-name="uni018E" unicode="&#x18e;" 
d="M151 160l25 143h34l-11 -62h193l51 287h-272l-28 -87h-34l34 121h440l-6 -34h-97l-88 -494h97l-6 -34h-440l12 115h34l-6 -81h272l31 173h-193l-8 -47h-34z" />
    <glyph glyph-name="uni018F" unicode="&#x18f;" 
d="M500 257q8 26 12 51q20 113 -48 181q-51 51 -133 51q-108 0 -205 -90q-18 -17 -38 -38l-26 22q105 113 209 136q32 7 67 7q115 0 176 -83q54 -76 35 -186q-30 -172 -139 -261q-81 -66 -191 -66q-92 0 -145 98q-42 76 -34 152q0 5 1 10l3 16h456zM489 220h-413
q-3 -72 40 -136q45 -66 110 -66q156 0 238 148q14 25 25 54z" />
    <glyph glyph-name="uni0190" unicode="&#x190;" 
d="M119 167q15 82 97 136q-41 19 -47 81q-3 22 1 43q11 62 75 106q43 29 82 29q82 0 113 -44q9 -8 11 1q7 22 20 43h34q-18 -33 -26 -71q-3 -22 7 -69h-35q-6 60 -67 89q-30 14 -64 14q-48 0 -89 -45q-22 -26 -27 -53q-8 -47 24 -80q22 -23 53 -23h55l-6 -34h-51
q-37 0 -77 -36q-40 -35 -49 -87q-16 -93 48 -123q20 -10 42 -10q76 0 138 65l27 -21q-71 -74 -159 -81h-13q-55 0 -91 46q-39 49 -26 124z" />
    <glyph glyph-name="uni0191" unicode="&#x191;" 
d="M48 -120q19 -8 52 23q18 16 20 28l106 597h-97l6 34h441l-15 -159h-35l9 125h-272l-31 -173h121l8 47h34l-25 -143h-35l11 62h-120l-64 -362q-8 -45 -55 -76q-31 -19 -62 -19q-52 0 -57 35q-1 7 0 15q5 25 32 28t36 -19q4 -10 2 -22q-2 -11 -10 -21z" />
    <glyph glyph-name="florin" unicode="&#x192;" 
d="M210 -43q-11 -62 -84 -101q-45 -24 -87 -24q-85 0 -140 47l26 30q50 -40 119 -40q55 0 100 41q24 23 29 47l76 435h-73l6 34h73l14 79q11 62 84 101q45 24 87 24q85 0 140 -47l-26 -30q-50 40 -119 40q-55 0 -100 -41q-24 -23 -29 -47l-14 -79h250l-6 -34h-250z" />
    <glyph glyph-name="uni0193" unicode="&#x193;" 
d="M496 520q11 27 22 41q22 28 41 38q20 11 45 11q47 0 56 -34q3 -9 1 -20q-3 -24 -31 -27t-37 20q-3 8 -1 20q2 11 9 21q-22 10 -47 -23q-3 -3 -5 -6q-19 -36 -25 -69q-4 -21 7 -69l-35 1q-7 58 -70 88q-33 15 -69 15q-88 0 -163 -81q-64 -70 -81 -165q-21 -121 36 -193
q42 -53 111 -53q97 0 163 93q37 52 52 120h-110l6 34h145l-6 -34q-28 -133 -119 -203q-62 -47 -138 -47q-103 0 -153 90q-44 81 -24 193q22 123 112 207q82 76 176 76q80 0 115 -38q3 -3 5 -6q6 -10 12 0z" />
    <glyph glyph-name="uni0194" unicode="&#x194;" 
d="M256 -60l-20 -34q-19 -34 7 -34q32 0 15 62q-1 5 -2 6zM449 528l6 34h196l-6 -34h-52l-309 -538l17 -72q8 -38 -17 -65q-18 -18 -47 -18q-45 0 -51 34q-4 19 9 41l49 84l-120 534h-53l6 34h196l-6 -34h-103l109 -488l280 488h-104z" />
    <glyph glyph-name="uni0195" unicode="&#x195;" 
d="M370 296l-29 -165q-14 -78 25 -100q12 -7 29 -7q61 0 91 73q8 21 13 47l44 248h-85l6 34h122l-52 -295q-16 -91 -89 -129q-29 -15 -58 -15q-78 0 -86 84q-3 27 3 60l29 165q18 107 -56 107q-38 0 -120 -65l-8 -6l-53 -298h85l-6 -34h-208l6 34h87l98 556l-91 -23l6 34
l130 31l-45 -256q78 64 126 64q76 0 88 -80q4 -29 -2 -64z" />
    <glyph glyph-name="uni0196" unicode="&#x196;" 
d="M280 -13q-7 -41 16 -76q15 -22 35 -22q35 0 58 21q4 3 7 7q-7 18 -5 28q8 45 39 56q26 8 34 -15q5 -11 1 -28q-5 -28 -55 -64q-47 -34 -83 -34q-44 0 -69 42q-23 39 -12 98l103 589l-169 -40l6 34l208 49z" />
    <glyph glyph-name="uni0197" unicode="&#x197;" 
d="M329 528h-195l6 34h421l-6 -34h-190l-35 -198h102l-6 -34h-102l-47 -262h189l-6 -34h-421l6 34h196l47 262h-99l6 34h99z" />
    <glyph glyph-name="uni0198" unicode="&#x198;" 
d="M204 289q87 -25 141 -118q28 -48 61 -137h118l-6 -34h-139q-56 150 -107 203q-42 44 -106 56q-14 -10 -23 -16l-37 -209h91l-6 -34h-209l6 34h82l87 494h-82l6 34h209l-6 -34h-91l-41 -237q32 24 206 192q17 16 29 28q55 52 118 52q45 0 52 -42q1 -3 1 -7q3 -49 -34 -70
q-8 -5 -17 -7q-23 -6 -28 17q-7 27 17 46q8 7 20 10q12 2 21 -1q5 15 -18 27q-8 4 -13 4h-20q-17 0 -157 -135q-96 -93 -125 -116z" />
    <glyph glyph-name="uni0199" unicode="&#x199;" 
d="M181 254l189 138h-33l6 34h170l-6 -34h-80l-186 -136l142 -222h94l-6 -34h-177l6 34h35l-126 198l-37 -27l-36 -205h-137l6 34h100l89 505q10 53 62 81q27 14 55 14q54 0 57 -37q1 -6 0 -13q-4 -24 -31 -27q-28 -3 -37 20q-4 8 -2 20q2 10 10 21q-19 8 -52 -24
q-18 -17 -20 -29z" />
    <glyph glyph-name="uni019A" unicode="&#x19a;" 
d="M303 589l-170 -40l6 34l209 49l-50 -282h123l-6 -34h-123l-50 -282h216l-6 -34h-416l6 34h163l50 282h-120l6 34h120z" />
    <glyph glyph-name="uni019B" unicode="&#x19b;" 
d="M334 406l-158 -372h71l-6 -34h-181l6 34h72l179 419q-16 40 -35 70l-76 -60l-18 26l77 60q-50 70 -91 61l-1 36q60 15 124 -71l77 60l17 -26l-76 -60q76 -125 89 -299q10 -135 -27 -250h-37q59 188 -1 390q-2 8 -5 16z" />
    <glyph glyph-name="uni019C" unicode="&#x19c;" 
d="M254 54q-44 -45 -101 -64q-11 -3 -17 -3q-80 0 -78 85q1 21 8 59l70 397h-85l6 34h123l-76 -431q-11 -62 -4 -82q9 -25 42 -25q38 0 113 70l7 37l70 397h-85l6 34h122l-75 -431q-10 -55 -10 -65q2 -42 48 -42q39 0 110 68l3 3l77 433h-85l6 34h208l-6 -34h-87l-87 -494
h87l-6 -34h-123l9 51q-22 -31 -83 -56q-20 -8 -30 -8q-71 0 -77 67z" />
    <glyph glyph-name="uni019D" unicode="&#x19d;" 
d="M145 528l-95 -536q-6 -37 -41 -63q-16 -12 -36 -17q-51 -12 -67 22q-3 7 -4 15q-2 23 25 33q29 9 43 -12q5 -7 6 -17q0 -12 -5 -21q31 -4 38 37l99 559h-47l6 34h107l302 -508l84 474h-105l6 34h188l-6 -34h-47l-95 -535h-37z" />
    <glyph glyph-name="uni019E" unicode="&#x19e;" 
d="M189 376q94 47 136 57q28 7 52 7q72 0 118 -55q34 -43 26 -89l-80 -454h85l-6 -34h-208l6 34h87l80 454q6 35 -32 72q-37 35 -83 35q-67 0 -188 -71l-53 -298h85l-6 -34h-208l6 34h87l63 358h-87l6 34h124q-6 -13 -10 -50z" />
    <glyph glyph-name="uni019F" unicode="&#x19f;" 
d="M169 302h268l-6 -34h-268zM350 564q100 0 155 -85q53 -83 33 -198q-22 -123 -113 -207q-81 -76 -175 -76q-100 0 -155 85q-53 83 -33 198q22 123 113 207q81 76 175 76zM343 527q-79 0 -153 -74q-74 -73 -91 -172q-20 -116 40 -190q46 -56 118 -56q84 0 160 82
q68 73 84 164q18 105 -33 180q-46 66 -125 66z" />
    <glyph glyph-name="Ohorn" unicode="&#x1a0;" horiz-adv-x="786" 
d="M648 477q-25 -55 -86 -80q-16 -7 -32 -10l-10 16q28 7 47 33q13 17 6 30q-25 17 -13 53t47 44q9 2 18 1q37 -2 41 -36q3 -29 -18 -51zM350 564q100 0 155 -85q53 -83 33 -198q-22 -123 -113 -207q-81 -76 -175 -76q-100 0 -155 85q-53 83 -33 198q22 123 113 207
q81 76 175 76zM343 527q-88 0 -163 -81q-64 -70 -81 -165q-20 -116 40 -190q46 -56 118 -56q88 0 163 81q64 70 81 165q20 116 -40 190q-46 56 -118 56z" />
    <glyph glyph-name="ohorn" unicode="&#x1a1;" horiz-adv-x="786" 
d="M610 340q-25 -55 -86 -80q-16 -7 -32 -10l-10 16q28 7 47 33q13 17 6 30q-25 17 -13 53t47 44q9 2 18 1q37 -2 41 -36q3 -29 -18 -51zM338 427q99 0 154 -70q48 -61 33 -144q-17 -97 -105 -160q-73 -54 -158 -54q-99 0 -154 70q-48 61 -33 144q17 97 105 160
q73 54 158 54zM331 390q-90 0 -159 -68q-49 -48 -60 -109q-15 -83 43 -136q45 -41 114 -41q96 0 163 69q45 46 56 108q16 89 -47 141q-44 36 -110 36z" />
    <glyph glyph-name="uni01A2" unicode="&#x1a2;" 
d="M297 527q-97 0 -161 -102q-39 -62 -53 -144q-25 -138 33 -205q35 -41 94 -41q97 0 162 102q38 62 53 144q24 138 -34 205q-35 41 -94 41zM399 534q52 30 84 30q93 0 102 -90q2 -26 -3 -53l-92 -522h47l-6 -34h-131l6 34h48l92 521q15 82 -38 102q-14 5 -32 5
q-31 0 -54 -15q63 -76 42 -218q-1 -6 -2 -13q-26 -144 -113 -224q-65 -59 -145 -59q-108 0 -147 102q-30 75 -11 181q25 144 113 224q65 59 145 59q55 0 95 -30z" />
    <glyph glyph-name="uni01A3" unicode="&#x1a3;" 
d="M300 427q62 0 105 -30q56 30 84 30q93 0 102 -91q2 -25 -3 -53l-68 -384h47l-6 -34h-131l6 34h47l68 384q15 85 -40 103q-13 4 -29 4q-30 0 -51 -14q59 -63 42 -163q-18 -103 -103 -166q-66 -48 -145 -48q-104 0 -151 77q-36 58 -22 137q19 108 109 170q64 44 139 44z
M294 390q-88 0 -152 -71q-43 -47 -53 -106q-16 -89 40 -141q39 -36 102 -36q97 0 159 76q36 44 46 101q15 88 -41 140q-40 37 -101 37z" />
    <glyph glyph-name="uni01A4" unicode="&#x1a4;" 
d="M180 245h200q47 0 98 40q53 41 64 101q15 86 -51 125q-29 17 -61 17h-200zM436 562q64 0 107 -46q47 -50 33 -130q-17 -93 -108 -146q-51 -29 -94 -29h-200l-32 -177h136l-6 -34h-269l6 34h96l88 494h-96q-37 0 -42 -25q-1 -3 -1 -6q10 3 21 1q30 -8 24 -40
q-5 -26 -25 -33q-8 -2 -16 0q-36 10 -30 53q2 12 7 24q26 60 79 60h322z" />
    <glyph glyph-name="uni01A5" unicode="&#x1a5;" 
d="M319 36q91 0 160 68q49 48 60 109q14 83 -43 136q-45 41 -113 41q-89 0 -158 -65q-50 -48 -61 -112q-16 -87 47 -140q44 -37 108 -37zM460 415q21 34 30 52q37 59 93 51q43 -6 49 -39q2 -11 -2 -24q-7 -25 -35 -23q-27 2 -32 25q-2 10 1 21q6 13 13 20q-26 17 -60 -22
q-8 -8 -13 -17l-29 -50q78 -35 98 -115q10 -39 3 -81q-17 -97 -105 -161q-73 -53 -157 -53q-101 0 -156 72q-8 11 -15 24l-43 -241h123l-6 -34h-239l6 34h79l95 538h-80l6 34h117l-17 -95q72 80 173 94q16 2 31 2q35 0 72 -12z" />
    <glyph glyph-name="uni01A6" unicode="&#x1a6;" 
d="M137 281h216q60 0 109 39q40 33 50 84q16 93 -68 117q-22 7 -48 7h-216zM320 247q53 -58 76 -148q6 -22 14 -65h70l-6 -34h-94q-22 110 -39 148q-24 53 -74 99h-137l-38 -213h130l-6 -34h-263l6 34h96l100 564h-99l6 34h246l-6 -34h-110l-7 -36h217q81 0 121 -48
q35 -42 23 -110q-17 -96 -116 -138q-43 -19 -83 -19h-27z" />
    <glyph glyph-name="uni01A7" unicode="&#x1a7;" 
d="M194 570h34q5 -12 3 -35q0 -5 1 -6q2 -1 11 5q55 36 107 36q84 0 129 -47q36 -36 26 -91q-15 -87 -112 -128q-18 -8 -117 -37q-90 -28 -117 -67q-12 -18 -16 -41q-11 -61 44 -94q33 -19 77 -19q73 0 130 66q6 6 11 13l18 29h34q-20 -23 -33 -60q-1 -5 -2 -8q-3 -17 1 -44
l7 -42h-34q-6 22 -7 45q-1 15 -10 7q-59 -43 -122 -43q-82 0 -126 51q-36 40 -25 99q14 82 105 120q17 8 116 37q93 27 122 69q14 20 19 47q10 57 -49 86q-33 15 -75 15q-63 0 -122 -58q-17 -18 -28 -35q-3 -2 -26 -1q-6 0 -9 -1q29 26 37 75q4 24 -2 57z" />
    <glyph glyph-name="uni01A8" unicode="&#x1a8;" 
d="M178 432h34q6 -10 5 -27q0 -6 5 -3q1 0 6 3q57 27 107 27q92 0 137 -42q29 -27 22 -65q-13 -75 -111 -106q-14 -5 -119 -28q-91 -20 -113 -56q-6 -10 -8 -23q-9 -51 59 -71q30 -9 69 -9q77 0 130 55l7 7l17 22h34q-17 -16 -31 -48q-2 -5 -2 -8q-3 -17 3 -39l8 -33h-34
q-7 22 -9 35q-2 10 -11 5q-57 -33 -119 -33q-89 0 -135 45q-31 30 -23 72q12 69 106 99q10 3 117 28q94 21 118 59q8 12 10 27q8 46 -62 63q-29 7 -66 7q-68 0 -127 -52q-12 -11 -20 -22h-34q26 21 34 62q4 25 -4 49z" />
    <glyph glyph-name="uni01A9" unicode="&#x1a9;" 
d="M-37 0l6 34h51l203 247l-115 247h-51l6 34h471l13 -131h-34l-19 97h-342l115 -247l-203 -247h342l43 97h34l-49 -131h-471z" />
    <glyph glyph-name="uni01AA" unicode="&#x1aa;" 
d="M398 -125q-9 -44 -63 -49q-6 -1 -12 -1q-53 0 -76 42q-12 24 -7 53l106 601q-33 -32 -76 -32q-50 0 -70 42q-10 23 -5 50q9 52 58 79q24 13 50 13q70 0 87 -52q7 -22 2 -51l-121 -686q-4 -22 22 -38q18 -11 33 -5q-4 10 -2 21q5 31 36 39q28 7 37 -11q3 -6 1 -15z
M361 609q-8 35 -44 44q-9 2 -17 2q-44 0 -72 -40q-11 -16 -14 -34q-8 -44 27 -65q14 -9 32 -9q44 0 73 39l6 10z" />
    <glyph glyph-name="uni01AB" unicode="&#x1ab;" 
d="M344 -64q-16 -65 -62 -66q-22 -1 -22 24q0 28 25 42q10 6 23 6q11 0 20 -6q7 18 13 60q-38 -15 -66 -15q-76 0 -124 54q-42 47 -32 106l44 251h-79l6 34h78l24 132h37l-24 -132h252l-6 -34h-252l-44 -251q-9 -53 39 -92q37 -31 87 -31q72 0 208 115l23 -24
q-79 -72 -155 -107q-7 -40 -13 -66z" />
    <glyph glyph-name="uni01AC" unicode="&#x1ac;" 
d="M326 528h-212q-62 0 -63 -28q10 2 22 1q29 -8 23 -40q-5 -27 -26 -33q-7 -2 -15 0q-36 10 -30 52q2 12 7 25q20 47 65 56q4 1 8 1h491l-26 -204h-35l20 170h-193l-88 -494h149l-6 -34h-333l6 34h148z" />
    <glyph glyph-name="uni01AD" unicode="&#x1ad;" 
d="M185 426h251l-6 -34h-252l-44 -251q-9 -53 38 -92q38 -31 88 -31q72 0 208 115l23 -24q-94 -87 -181 -117q-31 -11 -56 -11q-76 0 -124 54q-43 47 -32 106l44 251h-79l6 34h78l29 166q10 52 63 80q28 15 57 15q54 0 58 -37q0 -6 -1 -13q-3 -24 -31 -27t-37 20q-3 8 -1 20
q2 10 9 21q-17 8 -53 -26q-20 -20 -22 -32z" />
    <glyph glyph-name="uni01AE" unicode="&#x1ae;" 
d="M370 528l-99 -562q-3 -18 22 -37q20 -14 35 -8q-5 10 -3 21q5 31 36 39q28 7 37 -11q3 -6 1 -15q-7 -41 -57 -49q-9 -1 -18 -1q-68 0 -83 54q-5 19 -1 41l93 528h-193l-40 -170h-34l47 204h491l-24 -204h-35l18 170h-193z" />
    <glyph glyph-name="Uhorn" unicode="&#x1af;" horiz-adv-x="786" 
d="M682 477q-25 -55 -86 -80q-16 -7 -32 -10l-10 16q28 7 47 33q13 17 6 30q-25 17 -13 53t47 44q9 2 18 1q37 -2 41 -36q3 -29 -18 -51zM616 528h-71l-61 -349q-11 -60 -73 -117q-74 -69 -161 -69q-88 0 -139 75q-39 57 -29 111l61 349h-71l6 34h204l-6 -34h-100l-61 -349
q-7 -39 28 -89q45 -63 112 -63q80 0 147 72q41 43 48 80l61 349h-99l6 34h204z" />
    <glyph glyph-name="uhorn" unicode="&#x1b0;" horiz-adv-x="786" 
d="M576 340q-25 -55 -86 -80q-16 -7 -32 -10l-10 16q28 7 47 33q13 17 6 30q-25 17 -13 53t47 44q9 2 18 1q37 -2 41 -36q3 -29 -18 -51zM426 51q-37 -18 -43 -21q-88 -43 -145 -43q-66 0 -113 53q-40 44 -31 91l46 261h-85l6 34h122l-53 -295q-6 -35 32 -72q37 -35 83 -35
q67 0 188 71l53 297h-85l6 34h122l-69 -391h86l-6 -35h-123z" />
    <glyph glyph-name="uni01B1" unicode="&#x1b1;" 
d="M454 537l-3 -18q-8 -49 26 -122q35 -75 41 -107q7 -35 1 -69q-22 -122 -123 -182q-65 -39 -146 -39q-121 0 -170 80q-36 57 -21 141q11 62 78 144q59 72 72 95q18 30 23 59l3 18h-82l-43 -79l-29 12l54 101h143l-9 -52q-10 -59 -76 -138q-59 -72 -73 -97q-19 -32 -24 -63
q-20 -110 57 -158q41 -26 103 -26q118 0 182 84q33 42 44 100q9 53 -27 128q-35 73 -41 102q-7 34 -1 68l9 52h143l20 -101l-35 -12l-15 79h-81z" />
    <glyph glyph-name="uni01B2" unicode="&#x1b2;" 
d="M616 528h-71l-61 -349q-11 -60 -73 -117q-74 -69 -161 -69q-88 0 -139 75q-39 57 -29 111l61 349h-71l6 34h204l-6 -34h-100l-61 -349q-7 -39 28 -89q45 -63 112 -63q80 0 147 72q41 43 48 80l61 349h-99l6 34h204z" />
    <glyph glyph-name="uni01B3" unicode="&#x1b3;" 
d="M144 515q-11 20 -32 25q-54 0 -55 -28q10 3 21 1q30 -8 24 -40q-5 -26 -26 -33q-7 -2 -15 0q-36 10 -30 53q1 12 7 24q19 45 87 45q38 0 57 -33l123 -217l199 216h-60l6 34h141l-6 -34h-35l-234 -255l-43 -239h58l-6 -34h-152l6 34h57l43 239z" />
    <glyph glyph-name="uni01B4" unicode="&#x1b4;" 
d="M285 42l234 350h-74l6 34h191l-6 -34h-76l-352 -526h30l-6 -34h-284l6 34h213l89 134l-120 379q-4 13 -24 23q-5 2 -9 2q-53 0 -54 -28q9 3 21 1q30 -8 24 -40q-5 -26 -26 -33q-7 -2 -15 0q-36 10 -30 53q1 12 6 24q20 45 87 45q34 0 52 -22q4 -5 6 -11z" />
    <glyph glyph-name="uni01B5" unicode="&#x1b5;" 
d="M388 34l39 156h35l-48 -190h-339l4 20l198 266h-110l6 34h129l154 208h-248l-34 -153h-35l42 187h331l-5 -23l-162 -219h104l-6 -34h-124l-187 -252h256z" />
    <glyph glyph-name="uni01B6" unicode="&#x1b6;" 
d="M531 392l-158 -137h96l-6 -34h-129l-215 -187h332l7 36h34l-13 -70h-418l6 34l215 187h-104l6 34h137l158 137h-330l-7 -36h-34l13 70h416z" />
    <glyph glyph-name="uni01B7" unicode="&#x1b7;" 
d="M205 346l6 33l220 153h-223l-5 -32h-30l11 62h299l-6 -30l-220 -153h26q92 0 140 -66q39 -53 27 -123q-16 -90 -99 -146q-65 -44 -143 -44q-63 0 -107 31l-8 6l22 30q46 -34 99 -34q88 0 152 64q42 41 51 93q13 74 -41 121q-39 35 -99 35h-72z" />
    <glyph glyph-name="uni01B8" unicode="&#x1b8;" 
d="M349 346h-73q-83 0 -145 -63q-40 -42 -49 -93q-13 -74 43 -122q42 -35 104 -35q55 0 111 34l13 -30q-68 -36 -130 -37q-98 0 -147 68q-38 52 -26 122q15 87 96 144q63 45 136 45h27l-166 153l6 30h299l-11 -62h-30l5 32h-223l166 -153z" />
    <glyph glyph-name="uni01B9" unicode="&#x1b9;" 
d="M365 181h-82q-93 0 -160 -68q-48 -47 -58 -107q-15 -82 46 -135q47 -41 119 -41q61 0 124 38l15 -33q-67 -40 -134 -42h-12q-108 0 -164 72q-46 60 -31 141q17 97 105 160q72 52 156 52q1 0 30 1l-186 173l6 34h336l-13 -70h-34l7 36h-250l186 -173z" />
    <glyph glyph-name="uni01BA" unicode="&#x1ba;" 
d="M230 219h30q93 0 138 -42q29 -27 22 -66q-13 -75 -111 -106q-15 -5 -120 -28q-91 -20 -113 -56q-6 -10 -9 -23q-8 -50 59 -71q30 -9 69 -9q78 0 131 55q3 4 6 7l18 22h34q-17 -16 -31 -47l-3 -9q-2 -15 3 -39l9 -33h-34l-9 35q-2 11 -11 6q-55 -33 -119 -33
q-89 0 -135 44q-31 31 -24 72q12 69 107 99q11 3 117 27q95 22 119 60q7 12 10 27q8 47 -64 64q-29 7 -66 7h-82l7 37l247 173h-250l-6 -36h-34l12 70h336l-6 -34z" />
    <glyph glyph-name="uni01BB" unicode="&#x1bb;" 
d="M251 324h142l9 7l1 1q49 42 59 97q10 58 -46 84q-28 13 -67 13q-112 0 -156 -111q-10 -25 -15 -53h-37l9 47q69 153 211 153q84 0 121 -50q26 -34 17 -83q-11 -61 -54 -105h91l-6 -34h-126q-14 -10 -105 -63l-85 -48q-62 -41 -72 -99l-9 -46h262l16 89h34l-22 -123h-333
l15 80q13 77 109 139q5 3 109 61l18 10h-96z" />
    <glyph glyph-name="uni01BC" unicode="&#x1bc;" 
d="M253 525l-31 -179h116q113 0 148 -73q19 -39 9 -94q-18 -100 -118 -150q-60 -30 -127 -30q-107 0 -190 69q-5 3 -9 7l27 30q69 -60 150 -68q14 -1 29 -1q95 0 156 59q37 36 45 84q17 96 -67 122q-26 8 -60 8h-153l38 216h-79l7 37h419l-7 -37h-303z" />
    <glyph glyph-name="uni01BD" unicode="&#x1bd;" 
d="M241 389l-21 -117h116q160 0 167 -97q1 -15 -2 -33q-14 -78 -111 -118q-60 -25 -128 -25q-107 0 -190 69q-5 3 -9 7l27 30q69 -60 150 -68q14 -1 29 -1q102 0 160 50q29 24 35 56q13 78 -91 91q-19 2 -43 2h-153l27 154h-79l7 37h419l-7 -37h-303z" />
    <glyph glyph-name="uni01BE" unicode="&#x1be;" 
d="M336 568h37l-17 -96h73l-6 -34h-73l-13 -75q-5 -31 35 -72q45 -45 54 -56q34 -46 25 -98q-14 -79 -103 -117q-49 -20 -103 -20q-92 0 -133 48q-25 30 -18 71l3 18h37l-3 -18q-8 -48 53 -70q31 -11 69 -11q84 0 131 45q25 24 30 54q9 50 -40 100l-48 48q-33 38 -26 78
l13 75h-73l6 34h73z" />
    <glyph glyph-name="uni01BF" unicode="&#x1bf;" 
d="M114 -113l-6 -33h123l-6 -34h-239l6 34h79l95 538h-80l6 34h117l-16 -95q71 80 172 94q16 2 32 2q99 0 154 -70q47 -61 33 -144q-18 -102 -158 -178q-37 -19 -179 -79q-92 -39 -133 -69zM121 -76q33 24 162 80q153 66 208 118q47 43 56 91q14 83 -43 136q-45 41 -113 41
q-88 0 -157 -64q-51 -49 -62 -113z" />
    <glyph glyph-name="uni01C0" unicode="&#x1c0;" 
d="M368 562l-124 -705h-37l124 705h37z" />
    <glyph glyph-name="uni01C1" unicode="&#x1c1;" 
d="M315 562l-124 -705h-37l124 705h37zM435 562l-124 -705h-37l124 705h37z" />
    <glyph glyph-name="uni01C2" unicode="&#x1c2;" 
d="M368 562l-38 -214h99l-6 -34h-99l-10 -61h99l-6 -34h-99l-64 -362h-37l64 362h-91l6 34h91l10 61h-91l6 34h91l38 214h37z" />
    <glyph glyph-name="uni01C3" unicode="&#x1c3;" 
d="M352 610l-90 -454h-37l70 454h57zM158 38q6 34 44 50q15 6 30 6q39 0 52 -30q5 -12 3 -26q-7 -34 -44 -50q-15 -6 -30 -6q-40 0 -53 30q-5 12 -2 26z" />
    <glyph glyph-name="uni01C4" unicode="&#x1c4;" 
d="M29 34h52q92 0 140 185q8 31 14 65q23 131 8 184q-17 60 -75 60h-52zM-39 34h31l87 494h-31l6 34h120q138 0 103 -234q-3 -17 -7 -42q-32 -181 -96 -244q-42 -42 -99 -42h-120zM480 34l38 156h34l-47 -190h-253l3 20l292 508h-164l-34 -153h-34l42 187h245l-4 -23
l-290 -505h172zM707 779l-201 -172h-30l-143 172l23 20l148 -133l186 133z" />
    <glyph glyph-name="uni01C5" unicode="&#x1c5;" 
d="M578 392l-245 -358h166l6 36h34l-12 -70h-252l6 34l245 358h-164l-6 -36h-34l12 70h250zM693 684l-202 -173h-29l-142 173l23 20l147 -133l186 133zM37 34h52q92 0 140 185q8 31 14 65q23 131 8 184q-16 60 -75 60h-52zM-31 34h31l87 494h-31l6 34h120q138 0 103 -234
q-2 -17 -7 -42q-31 -181 -96 -244q-42 -42 -99 -42h-120z" />
    <glyph glyph-name="uni01C6" unicode="&#x1c6;" 
d="M578 392l-249 -358h170l6 36h34l-12 -70h-252l6 34l249 358h-168l-6 -36h-34l12 70h250zM693 684l-202 -173h-29l-142 173l23 20l147 -133l186 133zM149 428q45 0 68 -47q3 -5 5 -11l39 221l-126 -26l6 34l165 33l-74 -419l-32 -179h34l-6 -34h-71l10 56q-45 -58 -94 -58
q-60 0 -82 80q-16 59 -2 135q28 160 108 202q24 13 52 13zM142 391q-72 0 -107 -134q-5 -21 -9 -44q-19 -105 18 -157q16 -21 35 -21q33 0 69 48q31 44 42 103l9 54q16 86 -14 128q-16 23 -43 23z" />
    <glyph glyph-name="uni01C7" unicode="&#x1c7;" 
d="M384 227q-17 -96 -17 -121q0 -70 51 -70q69 0 88 107l68 385h-78l6 34h184l-6 -34h-69l-68 -385q-15 -86 -52 -118q-31 -26 -79 -26q-106 0 -80 144l15 84h37zM140 528h-65l6 34h167l-6 -34h-65l-87 -494h109l54 189h34l-59 -223h-247l6 34h66z" />
    <glyph glyph-name="uni01C8" unicode="&#x1c8;" 
d="M157 528h-65l6 34h167l-6 -34h-65l-87 -494h163l54 189h34l-59 -223h-301l6 34h66zM610 562l-17 -97h-74l17 97h74zM237 -134q29 -22 92 -26h13q50 0 94 59q27 35 33 70l75 423h-131l6 34h168l-81 -457q-10 -61 -63 -114q-51 -52 -108 -52q-79 0 -120 30z" />
    <glyph glyph-name="uni01C9" unicode="&#x1c9;" 
d="M613 562l-17 -97h-74l17 97h74zM240 -134q29 -22 92 -26h12q50 0 94 59q27 35 33 70l75 423h-131l6 34h169l-81 -457q-11 -61 -63 -114q-52 -52 -108 -52q-81 0 -120 30zM284 589l-170 -40l6 34l208 49l-105 -598h216l-6 -34h-415l6 34h162z" />
    <glyph glyph-name="uni01CA" unicode="&#x1ca;" 
d="M251 100l75 428h-78l6 34h161l-6 -34h-46l-94 -535h-37l-98 509h-2l-83 -468h81l-6 -34h-164l6 34h46l87 494h-46l6 34h106zM384 227q-17 -96 -17 -121q0 -70 51 -70q69 0 88 107l68 385h-78l6 34h184l-6 -34h-69l-68 -385q-15 -86 -52 -118q-30 -26 -78 -26
q-106 0 -81 144l15 84h37z" />
    <glyph glyph-name="uni01CB" unicode="&#x1cb;" 
d="M256 -134q29 -22 92 -26h13q50 0 94 59q27 35 33 70l75 423h-131l6 34h169l-81 -457q-10 -61 -63 -114q-51 -52 -108 -52q-81 0 -121 30zM630 562l-17 -97h-75l17 97h75zM267 100l76 428h-78l6 34h161l-6 -34h-46l-94 -535h-37l-99 509h-2l-82 -468h81l-6 -34h-164l6 34
h46l87 494h-46l6 34h106z" />
    <glyph glyph-name="uni01CC" unicode="&#x1cc;" 
d="M256 -134q29 -22 92 -26h13q50 0 94 59q27 35 33 70l75 423h-131l6 34h169l-81 -457q-10 -61 -63 -114q-51 -52 -108 -52q-81 0 -121 30zM630 562l-17 -97h-75l17 97h75zM179 376q34 40 52 50q23 14 55 14q79 0 71 -97q-1 -19 -6 -47l-46 -262h50l-6 -34h-135l6 34h48
l46 262q11 65 3 85q-9 22 -37 22q-34 0 -60 -26l-46 -47l-4 -4l-51 -292h54l-6 -34h-158l6 34h67l63 358h-67l6 34h104zM630 562h-75l-17 -97h75z" />
    <glyph glyph-name="uni01CD" unicode="&#x1cd;" 
d="M476 745l-141 -121h-21l-100 121l17 14l103 -93l131 93zM226 283h152l-34 238zM317 34h96l-31 212h-172l-107 -212h95l-6 -34h-213l6 34h79l246 494h-144l6 34h207l73 -528h75l-6 -34h-210z" />
    <glyph glyph-name="uni01CE" unicode="&#x1ce;" 
d="M395 618l-141 -121h-21l-100 121l17 14l103 -93l131 93zM414 239q-100 27 -181 27q-78 0 -130 -53q-30 -31 -37 -70q-11 -64 51 -99q38 -21 89 -21q80 0 143 49q19 15 42 38zM415 34h93l-6 -34h-130l9 54q-74 -63 -164 -68h-18q-87 0 -138 50q-43 43 -32 107
q15 83 98 130q54 30 112 30q84 0 182 -26l3 17q7 42 -43 76q-46 30 -111 30q-62 0 -167 -43l-8 34l63 23q75 23 119 23q96 0 151 -51q42 -40 33 -92z" />
    <glyph glyph-name="uni01CF" unicode="&#x1cf;" 
d="M479 745l-141 -121h-21l-100 121l17 14l103 -93l131 93zM329 528h-195l6 34h421l-6 -34h-190l-88 -494h189l-6 -34h-421l6 34h196z" />
    <glyph glyph-name="uni01D0" unicode="&#x1d0;" 
d="M462 608l-141 -121h-21l-100 121l17 14l103 -93l131 93zM321 392h-186l6 34h223l-70 -392h173l-6 -34h-396l6 34h186z" />
    <glyph glyph-name="uni01D1" unicode="&#x1d1;" 
d="M479 745l-141 -121h-21l-100 121l17 14l103 -93l131 93zM350 564q100 0 155 -85q53 -83 33 -198q-22 -123 -113 -207q-81 -76 -175 -76q-100 0 -155 85q-53 83 -33 198q22 123 113 207q81 76 175 76zM343 527q-88 0 -163 -81q-64 -70 -81 -165q-20 -116 40 -190
q46 -56 118 -56q88 0 163 81q64 70 81 165q20 116 -40 190q-46 56 -118 56z" />
    <glyph glyph-name="uni01D2" unicode="&#x1d2;" 
d="M455 608l-141 -121h-21l-100 121l17 14l103 -93l131 93zM338 427q99 0 154 -70q48 -61 33 -144q-17 -97 -105 -160q-73 -54 -158 -54q-99 0 -154 70q-48 61 -33 144q17 97 105 160q73 54 158 54zM331 390q-90 0 -159 -68q-49 -48 -60 -109q-15 -83 43 -136
q45 -41 114 -41q96 0 163 69q45 46 56 108q16 89 -47 141q-44 36 -110 36z" />
    <glyph glyph-name="uni01D3" unicode="&#x1d3;" 
d="M479 745l-141 -121h-21l-100 121l17 14l103 -93l131 93zM616 528h-71l-61 -349q-11 -60 -73 -117q-74 -69 -161 -69q-88 0 -139 75q-39 57 -29 111l61 349h-71l6 34h204l-6 -34h-100l-61 -349q-7 -39 28 -89q45 -63 112 -63q80 0 147 72q41 43 48 80l61 349h-99l6 34h204
z" />
    <glyph glyph-name="uni01D4" unicode="&#x1d4;" 
d="M412 608l-141 -121h-21l-100 121l17 14l103 -93l131 93zM426 51q-37 -18 -43 -21q-88 -43 -145 -43q-66 0 -113 53q-40 44 -31 91l46 261h-85l6 34h122l-53 -295q-6 -35 32 -72q37 -35 83 -35q67 0 188 71l53 297h-85l6 34h122l-69 -391h86l-6 -35h-123z" />
    <glyph glyph-name="uni01D5" unicode="&#x1d5;" 
d="M170 794h347l-6 -34h-347zM208 662q5 26 31 36q7 2 14 2q25 0 31 -24q1 -7 0 -14q-5 -26 -31 -36q-7 -2 -14 -2q-25 0 -31 24q-1 7 0 14zM365 662q5 26 31 36q7 2 14 2q25 0 31 -24q1 -7 0 -14q-5 -26 -31 -36q-7 -2 -14 -2q-25 0 -31 24q-1 7 0 14zM616 528h-71
l-61 -349q-11 -60 -73 -117q-74 -69 -161 -69q-88 0 -139 75q-39 57 -29 111l61 349h-71l6 34h204l-6 -34h-100l-61 -349q-7 -39 28 -89q45 -63 112 -63q80 0 147 72q41 43 48 80l61 349h-99l6 34h204z" />
    <glyph glyph-name="uni01D6" unicode="&#x1d6;" 
d="M102 657h347l-6 -34h-347zM140 525q5 26 31 36q7 2 14 2q25 0 31 -24q1 -7 0 -14q-5 -26 -31 -36q-7 -2 -14 -2q-25 0 -31 24q-1 7 0 14zM297 525q5 26 31 36q7 2 14 2q25 0 31 -24q1 -7 0 -14q-5 -26 -31 -36q-7 -2 -14 -2q-25 0 -31 24q-1 7 0 14zM426 51
q-37 -18 -43 -21q-88 -43 -145 -43q-66 0 -113 53q-40 44 -31 91l46 261h-85l6 34h122l-53 -295q-6 -35 32 -72q37 -35 83 -35q67 0 188 71l53 297h-85l6 34h122l-69 -391h86l-6 -35h-123z" />
    <glyph glyph-name="uni01D7" unicode="&#x1d7;" 
d="M556 935l-199 -175h-46l152 175h93zM208 662q5 26 31 36q7 2 14 2q25 0 31 -24q1 -7 0 -14q-5 -26 -31 -36q-7 -2 -14 -2q-25 0 -31 24q-1 7 0 14zM365 662q5 26 31 36q7 2 14 2q25 0 31 -24q1 -7 0 -14q-5 -26 -31 -36q-7 -2 -14 -2q-25 0 -31 24q-1 7 0 14zM616 528
h-71l-61 -349q-11 -60 -73 -117q-74 -69 -161 -69q-88 0 -139 75q-39 57 -29 111l61 349h-71l6 34h204l-6 -34h-100l-61 -349q-7 -39 28 -89q45 -63 112 -63q80 0 147 72q41 43 48 80l61 349h-99l6 34h204z" />
    <glyph glyph-name="uni01D8" unicode="&#x1d8;" 
d="M487 798l-199 -175h-46l152 175h93zM140 525q5 26 31 36q7 2 14 2q25 0 31 -24q1 -7 0 -14q-5 -26 -31 -36q-7 -2 -14 -2q-25 0 -31 24q-1 7 0 14zM297 525q5 26 31 36q7 2 14 2q25 0 31 -24q1 -7 0 -14q-5 -26 -31 -36q-7 -2 -14 -2q-25 0 -31 24q-1 7 0 14zM426 51
q-37 -18 -43 -21q-88 -43 -145 -43q-66 0 -113 53q-40 44 -31 91l46 261h-85l6 34h122l-53 -295q-6 -35 32 -72q37 -35 83 -35q67 0 188 71l53 297h-85l6 34h122l-69 -391h86l-6 -35h-123z" />
    <glyph glyph-name="uni01D9" unicode="&#x1d9;" 
d="M503 881l-141 -121h-21l-100 121l17 14l103 -93l131 93zM208 662q5 26 31 36q7 2 14 2q25 0 31 -24q1 -7 0 -14q-5 -26 -31 -36q-7 -2 -14 -2q-25 0 -31 24q-1 7 0 14zM365 662q5 26 31 36q7 2 14 2q25 0 31 -24q1 -7 0 -14q-5 -26 -31 -36q-7 -2 -14 -2q-25 0 -31 24
q-1 7 0 14zM616 528h-71l-61 -349q-11 -60 -73 -117q-74 -69 -161 -69q-88 0 -139 75q-39 57 -29 111l61 349h-71l6 34h204l-6 -34h-100l-61 -349q-7 -39 28 -89q45 -63 112 -63q80 0 147 72q41 43 48 80l61 349h-99l6 34h204z" />
    <glyph glyph-name="uni01DA" unicode="&#x1da;" 
d="M436 744l-141 -121h-21l-100 121l17 14l103 -93l131 93zM140 525q5 26 31 36q7 2 14 2q25 0 31 -24q1 -7 0 -14q-5 -26 -31 -36q-7 -2 -14 -2q-25 0 -31 24q-1 7 0 14zM297 525q5 26 31 36q7 2 14 2q25 0 31 -24q1 -7 0 -14q-5 -26 -31 -36q-7 -2 -14 -2q-25 0 -31 24
q-1 7 0 14zM426 51q-37 -18 -43 -21q-88 -43 -145 -43q-66 0 -113 53q-40 44 -31 91l46 261h-85l6 34h122l-53 -295q-6 -35 32 -72q37 -35 83 -35q67 0 188 71l53 297h-85l6 34h122l-69 -391h86l-6 -35h-123z" />
    <glyph glyph-name="uni01DB" unicode="&#x1db;" 
d="M173 935h93l92 -175h-47zM208 662q5 26 31 36q7 2 14 2q25 0 31 -24q1 -7 0 -14q-5 -26 -31 -36q-7 -2 -14 -2q-25 0 -31 24q-1 7 0 14zM365 662q5 26 31 36q7 2 14 2q25 0 31 -24q1 -7 0 -14q-5 -26 -31 -36q-7 -2 -14 -2q-25 0 -31 24q-1 7 0 14zM616 528h-71l-61 -349
q-11 -60 -73 -117q-74 -69 -161 -69q-88 0 -139 75q-39 57 -29 111l61 349h-71l6 34h204l-6 -34h-100l-61 -349q-7 -39 28 -89q45 -63 112 -63q80 0 147 72q41 43 48 80l61 349h-99l6 34h204z" />
    <glyph glyph-name="uni01DC" unicode="&#x1dc;" 
d="M105 798h93l92 -175h-47zM140 525q5 26 31 36q7 2 14 2q25 0 31 -24q1 -7 0 -14q-5 -26 -31 -36q-7 -2 -14 -2q-25 0 -31 24q-1 7 0 14zM297 525q5 26 31 36q7 2 14 2q25 0 31 -24q1 -7 0 -14q-5 -26 -31 -36q-7 -2 -14 -2q-25 0 -31 24q-1 7 0 14zM426 51
q-37 -18 -43 -21q-88 -43 -145 -43q-66 0 -113 53q-40 44 -31 91l46 261h-85l6 34h122l-53 -295q-6 -35 32 -72q37 -35 83 -35q67 0 188 71l53 297h-85l6 34h122l-69 -391h86l-6 -35h-123z" />
    <glyph glyph-name="uni01DD" unicode="&#x1dd;" 
d="M114 178q3 -77 67 -118q40 -25 92 -25q92 0 160 69q33 33 49 74h-368zM80 212h412q14 80 -45 133q-47 43 -117 43q-80 0 -162 -49q-6 -3 -12 -7l-19 29q73 53 171 63q15 1 29 1q98 0 155 -68q52 -61 37 -145q-17 -97 -105 -160q-73 -54 -158 -54q-100 0 -154 70
q-47 60 -32 144z" />
    <glyph glyph-name="uni01DE" unicode="&#x1de;" 
d="M173 794h347l-6 -34h-347zM209 662q5 26 31 36q7 2 14 2q25 0 31 -24q1 -7 0 -14q-5 -26 -31 -36q-7 -2 -14 -2q-25 0 -31 24q-1 7 0 14zM366 662q5 26 31 36q7 2 14 2q25 0 31 -24q1 -7 0 -14q-5 -26 -31 -36q-7 -2 -14 -2q-25 0 -31 24q-1 7 0 14zM226 283h152l-34 238
zM317 34h96l-31 212h-172l-107 -212h95l-6 -34h-213l6 34h79l246 494h-144l6 34h207l73 -528h75l-6 -34h-210z" />
    <glyph glyph-name="uni01DF" unicode="&#x1df;" 
d="M85 667h347l-6 -34h-347zM124 535q5 26 31 36q7 2 14 2q25 0 31 -24q1 -7 0 -14q-5 -26 -31 -36q-7 -2 -14 -2q-25 0 -31 24q-1 7 0 14zM281 535q5 26 31 36q7 2 14 2q25 0 31 -24q1 -7 0 -14q-5 -26 -31 -36q-7 -2 -14 -2q-25 0 -31 24q-1 7 0 14zM414 239
q-100 27 -181 27q-78 0 -130 -53q-30 -31 -37 -70q-11 -64 51 -99q38 -21 89 -21q80 0 143 49q19 15 42 38zM415 34h93l-6 -34h-130l9 54q-74 -63 -164 -68h-18q-87 0 -138 50q-43 43 -32 107q15 83 98 130q54 30 112 30q84 0 182 -26l3 17q7 42 -43 76q-46 30 -111 30
q-62 0 -167 -43l-8 34l63 23q75 23 119 23q96 0 151 -51q42 -40 33 -92z" />
    <glyph glyph-name="uni01E0" unicode="&#x1e0;" 
d="M173 813h347l-6 -34h-347zM373 721l-18 -97h-74l18 97h74zM226 283h152l-34 238zM317 34h96l-31 212h-172l-107 -212h95l-6 -34h-213l6 34h79l246 494h-144l6 34h207l73 -528h75l-6 -34h-210z" />
    <glyph glyph-name="uni01E1" unicode="&#x1e1;" 
d="M97 677h347l-6 -34h-347zM289 594l-18 -97h-74l18 97h74zM414 239q-100 27 -181 27q-78 0 -130 -53q-30 -31 -37 -70q-11 -64 51 -99q38 -21 89 -21q80 0 143 49q19 15 42 38zM415 34h93l-6 -34h-130l9 54q-74 -63 -164 -68h-18q-87 0 -138 50q-43 43 -32 107
q15 83 98 130q54 30 112 30q84 0 182 -26l3 17q7 42 -43 76q-46 30 -111 30q-62 0 -167 -43l-8 34l63 23q75 23 119 23q96 0 151 -51q42 -40 33 -92z" />
    <glyph glyph-name="uni01E2" unicode="&#x1e2;" 
d="M187 658h347l-6 -34h-347zM312 283l42 238l-125 -238h83zM507 402l-25 -143h-34l11 62h-103l-51 -287h182l28 87h34l-34 -121h-253l44 246h-96l-112 -212h95l-6 -34h-213l6 34h79l261 494h-159l6 34h448l-12 -115h-34l6 81h-182l-31 -173h103l8 47h34z" />
    <glyph glyph-name="uni01E3" unicode="&#x1e3;" 
d="M123 531h347l-6 -34h-347zM548 247q9 90 -17 119q-21 24 -67 24q-95 0 -131 -123l-6 -20h221zM289 239l-61 20q-27 7 -58 7q-69 0 -104 -74q-11 -23 -15 -49q-11 -62 28 -97q24 -23 63 -23q44 0 88 46q10 11 36 41zM287 79q-49 -54 -67 -66q-36 -27 -85 -27
q-92 0 -121 67q-16 37 -7 90q19 109 100 146q32 14 69 14q43 0 97 -19q13 -4 23 -7l3 17q18 106 -93 106q-50 0 -112 -35q-6 -3 -13 -7l-8 34q31 23 97 39q26 6 43 6q108 0 123 -83q50 73 135 73q112 0 119 -113q2 -41 -9 -101h-260q-25 -143 54 -170q16 -6 37 -6
q51 0 94 41q-30 -29 19 19l18 -28q-68 -68 -137 -69q-95 0 -119 79z" />
    <glyph glyph-name="uni01E4" unicode="&#x1e4;" 
d="M368 564q80 0 115 -38q3 -3 5 -6q9 -8 12 0q8 27 19 41h34q-19 -36 -25 -69q-3 -18 8 -66h-35q-8 58 -71 86q-33 15 -69 15q-88 0 -163 -81q-64 -70 -81 -165q-21 -121 36 -193q42 -53 111 -53q94 0 160 88q13 18 24 39h-97l6 34h106q9 23 16 52h-110l6 34h145l-6 -34
q-6 -26 -15 -52h86l-6 -34h-93q-52 -112 -150 -149q-38 -15 -79 -15q-103 0 -153 90q-44 81 -24 193q22 123 113 207q81 76 175 76z" />
    <glyph glyph-name="uni01E5" unicode="&#x1e5;" 
d="M317 390q-92 0 -160 -69q-48 -47 -59 -108q-14 -83 43 -136q45 -41 113 -41q92 0 161 69q48 47 58 108q15 83 -43 136q-45 41 -113 41zM630 426l-6 -34h-82l-75 -423q-4 -26 -25 -55l61 -36l-21 -30l-66 39q-67 -62 -160 -80q-24 -4 -45 -4q-94 0 -183 58l22 33
q40 -31 114 -48q29 -6 53 -6q70 0 146 50q11 7 21 15l-63 37l22 30l69 -40q15 21 18 37l23 127q-68 -78 -166 -94q-19 -3 -38 -3q-100 0 -155 70q-47 61 -33 144q17 97 105 161q73 53 157 53q100 0 154 -71q10 -12 17 -26l17 96h119z" />
    <glyph glyph-name="Gcaron" unicode="&#x1e6;" 
d="M497 745l-141 -121h-21l-100 121l17 14l103 -93l131 93zM368 564q80 0 115 -38q3 -3 5 -6q9 -8 12 0q8 28 20 42h34q-20 -36 -26 -70q-3 -18 8 -66h-35q-8 58 -71 86q-33 15 -69 15q-88 0 -163 -81q-64 -70 -81 -165q-21 -121 36 -193q42 -53 111 -53q97 0 163 93
q37 52 52 120h-110l6 34h145l-6 -34q-28 -133 -119 -203q-62 -47 -138 -47q-103 0 -153 90q-44 81 -24 193q22 123 113 207q81 76 175 76z" />
    <glyph glyph-name="gcaron" unicode="&#x1e7;" 
d="M424 608l-141 -121h-21l-100 121l17 14l103 -93l131 93zM317 390q-92 0 -160 -69q-48 -47 -59 -108q-14 -83 43 -136q45 -41 113 -41q92 0 161 69q48 47 58 108q15 83 -43 136q-45 41 -113 41zM630 426l-6 -34h-82l-75 -423q-11 -63 -95 -116q-81 -50 -161 -50
q-94 0 -183 58l22 33q40 -31 114 -48q29 -6 53 -6q69 0 144 49q62 40 69 80l23 127q-68 -78 -166 -94q-19 -3 -38 -3q-100 0 -155 70q-47 61 -33 144q17 97 105 161q73 53 157 53q100 0 154 -71q10 -12 17 -26l17 96h119z" />
    <glyph glyph-name="uni01E8" unicode="&#x1e8;" 
d="M456 745l-141 -121h-21l-100 121l17 14l103 -93l131 93zM364 562h209l-6 -34h-121q-115 -136 -242 -239q87 -25 141 -118q28 -48 61 -137h118l-6 -34h-139q-56 150 -107 203q-42 44 -106 56q-14 -10 -23 -16l-37 -209h91l-6 -34h-209l6 34h82l88 494h-82l6 34h209l-6 -34
h-91l-42 -237q123 93 248 237h-42z" />
    <glyph glyph-name="uni01E9" unicode="&#x1e9;" 
d="M384 813l-141 -121h-21l-100 121l17 14l103 -93l131 93zM300 34h35l-126 198l-37 -27l-36 -205h-137l6 34h100l97 551l-106 -36l6 34l146 49l-67 -378l189 138h-33l6 34h170l-6 -34h-80l-186 -136l142 -222h94l-6 -34h-177z" />
    <glyph glyph-name="uni01EA" unicode="&#x1ea;" 
d="M294 3h42q-40 -7 -58 -51q-5 -14 -6 -29q-1 -30 40 -41q8 -2 17 -4q52 -9 91 35l16 -25q-45 -56 -110 -55q-60 1 -85 40q-14 22 -9 50q9 54 62 80zM350 564q100 0 155 -85q53 -83 33 -198q-22 -123 -113 -207q-81 -76 -175 -76q-100 0 -155 85q-53 83 -33 198
q22 123 113 207q81 76 175 76zM343 527q-88 0 -163 -81q-64 -70 -81 -165q-20 -116 40 -190q46 -56 118 -56q88 0 163 81q64 70 81 165q20 116 -40 190q-46 56 -118 56z" />
    <glyph glyph-name="uni01EB" unicode="&#x1eb;" 
d="M294 4h42q-40 -7 -58 -51q-5 -14 -6 -29q-1 -30 40 -41q8 -2 17 -4q52 -9 91 35l16 -25q-45 -56 -110 -55q-60 1 -85 40q-14 22 -9 50q9 54 62 80zM338 427q99 0 154 -70q48 -61 33 -144q-17 -97 -105 -160q-73 -54 -158 -54q-99 0 -154 70q-48 61 -33 144q17 97 105 160
q73 54 158 54zM331 390q-90 0 -159 -68q-49 -48 -60 -109q-15 -83 43 -136q45 -41 114 -41q96 0 163 69q45 46 56 108q16 89 -47 141q-44 36 -110 36z" />
    <glyph glyph-name="uni01EC" unicode="&#x1ec;" 
d="M146 658h347l-6 -34h-347zM294 3h42q-40 -7 -58 -51q-5 -14 -6 -29q-1 -30 40 -41q8 -2 17 -4q52 -9 91 35l16 -25q-45 -56 -110 -55q-60 1 -85 40q-14 22 -9 50q9 54 62 80zM350 564q100 0 155 -85q53 -83 33 -198q-22 -123 -113 -207q-81 -76 -175 -76q-100 0 -155 85
q-53 83 -33 198q22 123 113 207q81 76 175 76zM343 527q-88 0 -163 -81q-64 -70 -81 -165q-20 -116 40 -190q46 -56 118 -56q88 0 163 81q64 70 81 165q20 116 -40 190q-46 56 -118 56z" />
    <glyph glyph-name="uni01ED" unicode="&#x1ed;" 
d="M122 521h347l-6 -34h-347zM294 4h42q-40 -7 -58 -51q-5 -14 -6 -29q-1 -30 40 -41q8 -2 17 -4q52 -9 91 35l16 -25q-45 -56 -110 -55q-60 1 -85 40q-14 22 -9 50q9 54 62 80zM338 427q99 0 154 -70q48 -61 33 -144q-17 -97 -105 -160q-73 -54 -158 -54q-99 0 -154 70
q-48 61 -33 144q17 97 105 160q73 54 158 54zM331 390q-90 0 -159 -68q-49 -48 -60 -109q-15 -83 43 -136q45 -41 114 -41q96 0 163 69q45 46 56 108q16 89 -47 141q-44 36 -110 36z" />
    <glyph glyph-name="uni01EE" unicode="&#x1ee;" 
d="M462 745l-141 -121h-21l-100 121l17 14l103 -93l131 93zM205 346l6 33l220 153h-223l-5 -32h-30l11 62h299l-6 -30l-220 -153h26q92 0 140 -66q39 -53 27 -123q-16 -90 -99 -146q-65 -44 -143 -44q-63 0 -107 31l-8 6l22 30q46 -34 99 -34q88 0 152 64q42 41 51 93
q13 74 -41 121q-39 35 -99 35h-72z" />
    <glyph glyph-name="uni01EF" unicode="&#x1ef;" 
d="M413 608l-141 -121h-21l-100 121l17 14l103 -93l131 93zM169 181l6 38l248 173h-250l-7 -36h-34l13 70h336l-6 -34l-248 -173l29 -1h1q95 0 150 -67q51 -61 37 -145q-17 -98 -106 -160q-75 -53 -165 -53q-69 0 -118 33q-6 4 -12 9l25 33q51 -38 112 -38q96 0 167 68
q49 48 60 108q14 83 -45 136q-44 39 -111 39h-82z" />
    <glyph glyph-name="uni01F0" unicode="&#x1f0;" 
d="M463 607l-141 -121h-21l-100 121l17 14l103 -93l131 93zM32 -134q29 -22 92 -26h13q50 0 94 59q27 35 33 70l75 423h-131l6 34h168l-81 -457q-10 -61 -63 -114q-51 -52 -108 -52q-80 0 -120 30z" />
    <glyph glyph-name="uni01F1" unicode="&#x1f1;" 
d="M49 34h52q93 0 141 185q8 31 14 65q23 131 8 184q-17 60 -75 60h-52zM-19 34h31l88 494h-31l6 34h120q138 0 103 -234q-3 -17 -7 -42q-32 -181 -96 -244q-42 -42 -100 -42h-120zM500 34l39 156h34l-48 -190h-253l4 20l292 508h-164l-34 -153h-34l42 187h245l-5 -23
l-290 -505h172z" />
    <glyph glyph-name="uni01F2" unicode="&#x1f2;" 
d="M591 392l-246 -358h166l7 36h34l-13 -70h-252l6 34l246 358h-164l-7 -36h-34l13 70h250zM49 34h52q93 0 141 185q8 31 14 65q23 131 8 184q-17 60 -75 60h-52zM-19 34h31l88 494h-31l6 34h120q138 0 103 -234q-3 -17 -7 -42q-32 -181 -96 -244q-42 -42 -100 -42h-120z
" />
    <glyph glyph-name="uni01F3" unicode="&#x1f3;" 
d="M155 428q46 0 69 -47q2 -5 5 -11l39 221l-127 -26l6 34l165 33l-74 -419l-32 -179h34l-6 -34h-71l10 56q-45 -58 -94 -58q-60 0 -81 80q-16 59 -3 135q28 160 108 202q24 13 52 13zM148 391q-72 0 -107 -134q-5 -21 -9 -44q-18 -105 19 -157q15 -21 35 -21q33 0 68 48
q32 44 42 103l10 54q15 86 -14 128q-16 23 -44 23zM585 392l-250 -358h170l7 36h34l-13 -70h-252l6 34l250 358h-168l-7 -36h-34l13 70h250z" />
    <glyph glyph-name="uni01F4" unicode="&#x1f4;" 
d="M550 799l-199 -175h-46l152 175h93zM368 564q80 0 115 -38q3 -3 5 -6q9 -8 12 0q8 28 20 42h34q-20 -36 -26 -70q-3 -18 8 -66h-35q-8 58 -71 86q-33 15 -69 15q-88 0 -163 -81q-64 -70 -81 -165q-21 -121 36 -193q42 -53 111 -53q97 0 163 93q37 52 52 120h-110l6 34
h145l-6 -34q-28 -133 -119 -203q-62 -47 -138 -47q-103 0 -153 90q-44 81 -24 193q22 123 113 207q81 76 175 76z" />
    <glyph glyph-name="uni01F5" unicode="&#x1f5;" 
d="M475 662l-199 -175h-46l152 175h93zM317 390q-92 0 -160 -69q-48 -47 -59 -108q-14 -83 43 -136q45 -41 113 -41q92 0 161 69q48 47 58 108q15 83 -43 136q-45 41 -113 41zM630 426l-6 -34h-82l-75 -423q-11 -63 -95 -116q-81 -50 -161 -50q-94 0 -183 58l22 33
q40 -31 114 -48q29 -6 53 -6q69 0 144 49q62 40 69 80l23 127q-68 -78 -166 -94q-19 -3 -38 -3q-100 0 -155 70q-47 61 -33 144q17 97 105 161q73 53 157 53q100 0 154 -71q10 -12 17 -26l17 96h119z" />
    <glyph glyph-name="uni01F6" unicode="&#x1f6;" 
d="M350 330h-191l-52 -296h69l-6 -34h-187l6 34h81l87 494h-81l6 34h187l-6 -34h-69l-29 -162h191l29 162h-71l6 34h187l-6 -34h-79l-68 -385q-13 -73 22 -98q13 -9 32 -9q63 0 92 75q9 20 13 45l44 248h-85l6 34h123l-52 -295q-16 -89 -88 -128q-30 -16 -59 -16
q-78 0 -88 82q-3 29 3 62z" />
    <glyph glyph-name="uni01F7" unicode="&#x1f7;" 
d="M543 213q15 85 -41 138q-43 39 -109 39q-79 0 -151 -72q-60 -61 -73 -132l-50 -285q230 104 325 179q88 69 99 133zM75 -139l94 531h-80l6 34h117l-20 -114q48 65 128 98q42 17 79 17q104 0 155 -73q41 -59 26 -141q-24 -139 -346 -294q-39 -19 -121 -56l-5 -24l-124 -47
l6 34z" />
    <glyph glyph-name="uni01F8" unicode="&#x1f8;" 
d="M149 799h93l92 -175h-47zM469 54l83 474h-105l6 34h188l-6 -34h-46l-94 -535h-37l-320 535h-2l-87 -494h104l-6 -34h-187l6 34h47l87 494h-47l6 34h107z" />
    <glyph glyph-name="uni01F9" unicode="&#x1f9;" 
d="M126 675h93l92 -175h-47zM173 376l42 21q88 43 145 43q67 0 113 -53q40 -44 31 -91l-46 -262h85l-6 -34h-208l6 34h87l46 262q7 35 -32 72q-37 35 -83 35q-67 0 -188 -71l-53 -298h85l-6 -34h-208l6 34h87l63 358h-87l6 34h124q-5 -13 -9 -50z" />
    <glyph glyph-name="Aringacute" unicode="&#x1fa;" 
d="M545 974l-199 -175h-46l152 175h93zM343 785q49 0 69 -42q11 -22 6 -49q-9 -51 -57 -78q-25 -13 -50 -13q-49 0 -69 42q-11 22 -6 49q9 51 57 78q25 13 50 13zM337 751q-36 0 -58 -34q-7 -11 -9 -23q-6 -34 22 -51q11 -6 25 -6q36 0 58 34q7 11 9 23q6 34 -22 51
q-11 6 -25 6zM226 283h152l-34 238zM317 34h96l-31 212h-172l-107 -212h95l-6 -34h-213l6 34h79l246 494h-144l6 34h207l73 -528h75l-6 -34h-210z" />
    <glyph glyph-name="aringacute" unicode="&#x1fb;" 
d="M489 914l-199 -175h-46l152 175h93zM261 679q49 0 69 -42q11 -22 6 -49q-9 -51 -57 -78q-25 -13 -50 -13q-49 0 -69 42q-11 22 -6 49q9 51 57 78q25 13 50 13zM255 645q-36 0 -58 -34q-7 -11 -9 -23q-6 -34 22 -51q11 -6 25 -6q36 0 58 34q7 11 9 23q6 34 -22 51
q-11 6 -25 6zM414 239q-100 27 -181 27q-78 0 -130 -53q-30 -31 -37 -70q-11 -64 51 -99q38 -21 89 -21q80 0 143 49q19 15 42 38zM415 34h93l-6 -34h-130l9 54q-74 -63 -164 -68h-18q-87 0 -138 50q-43 43 -32 107q15 83 98 130q54 30 112 30q84 0 182 -26l3 17
q7 42 -43 76q-46 30 -111 30q-62 0 -167 -43l-8 34l63 23q75 23 119 23q96 0 151 -51q42 -40 33 -92z" />
    <glyph glyph-name="AEacute" unicode="&#x1fc;" 
d="M573 799l-199 -175h-46l152 175h93zM312 283l42 238l-125 -238h83zM507 402l-25 -143h-34l11 62h-103l-51 -287h182l28 87h34l-34 -121h-253l44 246h-96l-112 -212h95l-6 -34h-213l6 34h79l261 494h-159l6 34h448l-12 -115h-34l6 81h-182l-31 -173h103l8 47h34z" />
    <glyph glyph-name="aeacute" unicode="&#x1fd;" 
d="M383 672l-199 -175h-46l152 175h93zM548 247q9 90 -17 119q-21 24 -67 24q-95 0 -131 -123l-6 -20h221zM289 239l-61 20q-27 7 -58 7q-69 0 -104 -74q-11 -23 -15 -49q-11 -62 28 -97q24 -23 63 -23q44 0 88 46q10 11 36 41zM287 79q-49 -54 -67 -66q-36 -27 -85 -27
q-92 0 -121 67q-16 37 -7 90q19 109 100 146q32 14 69 14q43 0 97 -19q13 -4 23 -7l3 17q18 106 -93 106q-50 0 -112 -35q-6 -3 -13 -7l-8 34q31 23 97 39q26 6 43 6q108 0 123 -83q50 73 135 73q112 0 119 -113q2 -41 -9 -101h-260q-25 -143 54 -170q16 -6 37 -6
q51 0 94 41q-30 -29 19 19l18 -28q-68 -68 -137 -69q-95 0 -119 79z" />
    <glyph glyph-name="Oslashacute" unicode="&#x1fe;" 
d="M502 829l-199 -175h-46l152 175h93zM350 564q75 0 127 -52l71 82l24 -20l-74 -85q61 -86 40 -208q-22 -124 -114 -208q-81 -75 -174 -75q-78 0 -132 55l-70 -81l-24 20l75 86q-58 84 -37 203q22 124 113 208q81 75 175 75zM145 84q45 -49 111 -49q89 0 163 81
q65 70 82 165q18 103 -30 176zM343 527q-89 0 -163 -81q-65 -70 -81 -165q-18 -101 27 -172l324 373q-45 45 -107 45z" />
    <glyph glyph-name="oslashacute" unicode="&#x1ff;" 
d="M504 674l-199 -175h-46l152 175h93zM338 427q69 0 121 -39l71 67l22 -22l-70 -66q59 -63 43 -154q-17 -97 -105 -160q-73 -54 -158 -54q-72 0 -125 41l-72 -69l-22 22l72 68q-56 64 -40 152q17 97 105 160q73 54 158 54zM167 68q43 -32 102 -32q92 0 161 69q47 47 58 108
q13 74 -35 126zM331 390q-92 0 -161 -69q-47 -47 -58 -108q-13 -72 32 -124l286 271q-42 30 -99 30z" />
    <glyph glyph-name="uni0200" unicode="&#x200;" 
d="M270 773h80l77 -149h-39zM89 773h79l78 -149h-40zM226 283h152l-34 238zM317 34h96l-31 212h-172l-107 -212h95l-6 -34h-213l6 34h79l246 494h-144l6 34h207l73 -528h75l-6 -34h-210z" />
    <glyph glyph-name="uni0201" unicode="&#x201;" 
d="M172 646h80l77 -149h-39zM-9 646h79l78 -149h-40zM414 239q-100 27 -181 27q-78 0 -130 -53q-30 -31 -37 -70q-11 -64 51 -99q38 -21 89 -21q80 0 143 49q19 15 42 38zM415 34h93l-6 -34h-130l9 54q-74 -63 -164 -68h-18q-87 0 -138 50q-43 43 -32 107q15 83 98 130
q54 30 112 30q84 0 182 -26l3 17q7 42 -43 76q-46 30 -111 30q-62 0 -167 -43l-8 34l63 23q75 23 119 23q96 0 151 -51q42 -40 33 -92z" />
    <glyph glyph-name="uni0202" unicode="&#x202;" 
d="M381 624h-24q-13 44 -73 44q-66 0 -86 -44h-24q17 60 72 85q24 11 48 11q59 0 79 -50q9 -20 8 -46zM226 283h152l-34 238zM317 34h96l-31 212h-172l-107 -212h95l-6 -34h-213l6 34h79l246 494h-144l6 34h207l73 -528h75l-6 -34h-210z" />
    <glyph glyph-name="uni0203" unicode="&#x203;" 
d="M298 497h-24q-13 44 -73 44q-66 0 -86 -44h-24q17 60 72 85q24 11 48 11q59 0 79 -50q9 -20 8 -46zM414 239q-100 27 -181 27q-78 0 -130 -53q-30 -31 -37 -70q-11 -64 51 -99q38 -21 89 -21q80 0 143 49q19 15 42 38zM415 34h93l-6 -34h-130l9 54q-74 -63 -164 -68h-18
q-87 0 -138 50q-43 43 -32 107q15 83 98 130q54 30 112 30q84 0 182 -26l3 17q7 42 -43 76q-46 30 -111 30q-62 0 -167 -43l-8 34l63 23q75 23 119 23q96 0 151 -51q42 -40 33 -92z" />
    <glyph glyph-name="uni0204" unicode="&#x204;" 
d="M252 773h80l77 -149h-39zM71 773h79l78 -149h-40zM456 402l-25 -143h-34l11 62h-194l-51 -287h273l28 87h34l-34 -121h-440l6 34h97l88 494h-97l6 34h440l-12 -115h-34l6 81h-273l-31 -173h194l8 47h34z" />
    <glyph glyph-name="uni0205" unicode="&#x205;" 
d="M228 636h80l77 -149h-39zM47 636h79l78 -149h-40zM484 247q-3 77 -67 118q-40 25 -92 25q-92 0 -160 -69q-33 -33 -49 -74h368zM519 213h-413q-14 -81 45 -134q47 -42 117 -42q81 0 164 49l10 6l19 -28q-73 -53 -171 -63q-15 -1 -29 -1q-98 0 -155 68q-52 61 -37 145
q17 97 105 160q73 54 158 54q101 0 155 -70q47 -60 32 -144z" />
    <glyph glyph-name="uni0206" unicode="&#x206;" 
d="M377 624h-24q-13 44 -73 44q-66 0 -86 -44h-24q17 60 72 85q24 11 48 11q59 0 79 -50q9 -20 8 -46zM456 402l-25 -143h-34l11 62h-194l-51 -287h273l28 87h34l-34 -121h-440l6 34h97l88 494h-97l6 34h440l-12 -115h-34l6 81h-273l-31 -173h194l8 47h34z" />
    <glyph glyph-name="uni0207" unicode="&#x207;" 
d="M353 487h-24q-13 44 -73 44q-66 0 -86 -44h-24q17 60 72 85q24 11 48 11q59 0 79 -50q9 -20 8 -46zM484 247q-3 77 -67 118q-40 25 -92 25q-92 0 -160 -69q-33 -33 -49 -74h368zM519 213h-413q-14 -81 45 -134q47 -42 117 -42q81 0 164 49l10 6l19 -28q-73 -53 -171 -63
q-15 -1 -29 -1q-98 0 -155 68q-52 61 -37 145q17 97 105 160q73 54 158 54q101 0 155 -70q47 -60 32 -144z" />
    <glyph glyph-name="uni0208" unicode="&#x208;" 
d="M258 773h80l77 -149h-39zM77 773h79l78 -149h-40zM329 528h-195l6 34h421l-6 -34h-190l-88 -494h189l-6 -34h-421l6 34h196z" />
    <glyph glyph-name="uni0209" unicode="&#x209;" 
d="M241 636h80l77 -149h-39zM60 636h79l78 -149h-40zM321 392h-186l6 34h223l-70 -392h173l-6 -34h-396l6 34h186z" />
    <glyph glyph-name="uni020A" unicode="&#x20a;" 
d="M384 624h-24q-13 44 -73 44q-66 0 -86 -44h-24q17 60 72 85q24 11 48 11q59 0 79 -50q9 -20 8 -46zM329 528h-195l6 34h421l-6 -34h-190l-88 -494h189l-6 -34h-421l6 34h196z" />
    <glyph glyph-name="uni020B" unicode="&#x20b;" 
d="M366 487h-24q-13 44 -73 44q-66 0 -86 -44h-24q17 60 72 85q24 11 48 11q59 0 79 -50q9 -20 8 -46zM321 392h-186l6 34h223l-70 -392h173l-6 -34h-396l6 34h186z" />
    <glyph glyph-name="uni020C" unicode="&#x20c;" 
d="M258 773h80l77 -149h-39zM77 773h79l78 -149h-40zM350 564q100 0 155 -85q53 -83 33 -198q-22 -123 -113 -207q-81 -76 -175 -76q-100 0 -155 85q-53 83 -33 198q22 123 113 207q81 76 175 76zM343 527q-88 0 -163 -81q-64 -70 -81 -165q-20 -116 40 -190q46 -56 118 -56
q88 0 163 81q64 70 81 165q20 116 -40 190q-46 56 -118 56z" />
    <glyph glyph-name="uni020D" unicode="&#x20d;" 
d="M234 636h80l77 -149h-39zM53 636h79l78 -149h-40zM338 427q99 0 154 -70q48 -61 33 -144q-17 -97 -105 -160q-73 -54 -158 -54q-99 0 -154 70q-48 61 -33 144q17 97 105 160q73 54 158 54zM331 390q-90 0 -159 -68q-49 -48 -60 -109q-15 -83 43 -136q45 -41 114 -41
q96 0 163 69q45 46 56 108q16 89 -47 141q-44 36 -110 36z" />
    <glyph glyph-name="uni020E" unicode="&#x20e;" 
d="M383 624h-24q-13 44 -73 44q-66 0 -86 -44h-24q17 60 72 85q24 11 48 11q59 0 79 -50q9 -20 8 -46zM350 564q100 0 155 -85q53 -83 33 -198q-22 -123 -113 -207q-81 -76 -175 -76q-100 0 -155 85q-53 83 -33 198q22 123 113 207q81 76 175 76zM343 527q-88 0 -163 -81
q-64 -70 -81 -165q-20 -116 40 -190q46 -56 118 -56q88 0 163 81q64 70 81 165q20 116 -40 190q-46 56 -118 56z" />
    <glyph glyph-name="uni020F" unicode="&#x20f;" 
d="M359 487h-24q-13 44 -73 44q-66 0 -86 -44h-24q17 60 72 85q24 11 48 11q59 0 79 -50q9 -20 8 -46zM338 427q99 0 154 -70q48 -61 33 -144q-17 -97 -105 -160q-73 -54 -158 -54q-99 0 -154 70q-48 61 -33 144q17 97 105 160q73 54 158 54zM331 390q-90 0 -159 -68
q-49 -48 -60 -109q-15 -83 43 -136q45 -41 114 -41q96 0 163 69q45 46 56 108q16 89 -47 141q-44 36 -110 36z" />
    <glyph glyph-name="uni0210" unicode="&#x210;" 
d="M142 773h80l77 -149h-39zM-39 773h79l78 -149h-40zM143 281h216q61 0 109 39q41 33 50 84q16 93 -68 117q-22 7 -47 7h-216zM326 247q53 -58 76 -148q6 -22 14 -65h70l-6 -34h-94q-22 110 -39 148q-23 53 -74 99h-137l-38 -213h130l-6 -34h-263l6 34h97l88 494h-97l6 34
h350q80 0 120 -48q35 -42 23 -110q-17 -96 -116 -138q-43 -19 -83 -19h-27z" />
    <glyph glyph-name="uni0211" unicode="&#x211;" 
d="M210 649h80l77 -149h-39zM29 649h79l78 -149h-40zM487 363q-9 15 -53 31q-23 9 -40 9q-65 0 -176 -60q-10 -6 -19 -11l-53 -297h85l-6 -35h-209l6 35h87l63 357h-87l6 34h124l-8 -50l42 21q85 43 151 43q63 0 111 -41q6 -6 11 -12z" />
    <glyph glyph-name="uni0212" unicode="&#x212;" 
d="M267 624h-24q-13 44 -73 44q-66 0 -86 -44h-24q17 60 72 85q24 11 48 11q59 0 79 -50q9 -20 8 -46zM143 281h216q61 0 109 39q41 33 50 84q16 93 -68 117q-22 7 -47 7h-216zM326 247q53 -58 76 -148q6 -22 14 -65h70l-6 -34h-94q-22 110 -39 148q-23 53 -74 99h-137
l-38 -213h130l-6 -34h-263l6 34h97l88 494h-97l6 34h350q80 0 120 -48q35 -42 23 -110q-17 -96 -116 -138q-43 -19 -83 -19h-27z" />
    <glyph glyph-name="uni0213" unicode="&#x213;" 
d="M335 500h-24q-13 44 -73 44q-66 0 -86 -44h-24q17 60 72 85q24 11 48 11q59 0 79 -50q9 -20 8 -46zM487 363q-9 15 -53 31q-23 9 -40 9q-65 0 -176 -60q-10 -6 -19 -11l-53 -297h85l-6 -35h-209l6 35h87l63 357h-87l6 34h124l-8 -50l42 21q85 43 151 43q63 0 111 -41
q6 -6 11 -12z" />
    <glyph glyph-name="uni0214" unicode="&#x214;" 
d="M258 773h80l77 -149h-39zM77 773h79l78 -149h-40zM616 528h-71l-61 -349q-11 -60 -73 -117q-74 -69 -161 -69q-88 0 -139 75q-39 57 -29 111l61 349h-71l6 34h204l-6 -34h-100l-61 -349q-7 -39 28 -89q45 -63 112 -63q80 0 147 72q41 43 48 80l61 349h-99l6 34h204z" />
    <glyph glyph-name="uni0215" unicode="&#x215;" 
d="M190 636h80l77 -149h-39zM9 636h79l78 -149h-40zM426 51q-37 -18 -43 -21q-88 -43 -145 -43q-66 0 -113 53q-40 44 -31 91l46 261h-85l6 34h122l-53 -295q-6 -35 32 -72q37 -35 83 -35q67 0 188 71l53 297h-85l6 34h122l-69 -391h86l-6 -35h-123z" />
    <glyph glyph-name="uni0216" unicode="&#x216;" 
d="M383 624h-24q-13 44 -73 44q-66 0 -86 -44h-24q17 60 72 85q24 11 48 11q59 0 79 -50q9 -20 8 -46zM616 528h-71l-61 -349q-11 -60 -73 -117q-74 -69 -161 -69q-88 0 -139 75q-39 57 -29 111l61 349h-71l6 34h204l-6 -34h-100l-61 -349q-7 -39 28 -89q45 -63 112 -63
q80 0 147 72q41 43 48 80l61 349h-99l6 34h204z" />
    <glyph glyph-name="uni0217" unicode="&#x217;" 
d="M315 487h-24q-13 44 -73 44q-66 0 -86 -44h-24q17 60 72 85q24 11 48 11q59 0 79 -50q9 -20 8 -46zM426 51q-37 -18 -43 -21q-88 -43 -145 -43q-66 0 -113 53q-40 44 -31 91l46 261h-85l6 34h122l-53 -295q-6 -35 32 -72q37 -35 83 -35q67 0 188 71l53 297h-85l6 34h122
l-69 -391h86l-6 -35h-123z" />
    <glyph glyph-name="Scommaaccent" unicode="&#x218;" 
d="M72 -147q-25 -55 -86 -80q-16 -7 -32 -10l-10 16q26 5 46 31q15 18 7 32q-25 17 -13 53t47 44q9 2 18 1q37 -2 41 -36q3 -29 -18 -51zM510 570q-18 -33 -22 -57q-8 -49 11 -75h-32q-2 1 -3 2q-12 47 -56 75q-28 18 -60 18q-83 0 -131 -47q-24 -24 -29 -54
q-12 -67 58 -100q12 -6 95 -33q83 -28 105 -68q15 -29 8 -72q-15 -82 -100 -125q-50 -25 -105 -25q-62 0 -106 43q-6 8 -12 -7q-10 -22 -23 -45h-34l21 42q14 27 17 44q4 25 -9 63q-1 3 -2 5h34l8 -29q23 -60 82 -75q15 -4 31 -4q77 0 127 50q28 28 34 63q11 61 -56 92
q-11 5 -94 33q-85 29 -108 71q-16 32 -8 77q14 80 105 118q48 20 98 20q52 0 95 -36q9 -8 12 1q7 22 15 35h34z" />
    <glyph glyph-name="scommaaccent" unicode="&#x219;" 
d="M70 -159q-25 -55 -86 -80q-16 -7 -32 -10l-10 16q26 5 46 31q15 18 7 32q-25 17 -13 53t47 44q9 2 18 1q37 -2 41 -36q3 -29 -18 -51zM499 432q-16 -24 -20 -49q-8 -40 13 -62h-34q-14 36 -59 59q-30 15 -62 15q-108 0 -143 -45q-9 -11 -12 -25q-9 -51 60 -75
q8 -3 101 -26q92 -23 111 -63q10 -21 5 -49q-12 -64 -96 -98q-49 -19 -103 -19q-63 0 -108 33q-7 6 -12 -5l-21 -35h-34l20 33q12 20 16 39q3 19 -10 50q-2 4 -4 6h34l10 -22q28 -53 96 -61q10 -1 20 -1q96 0 137 45q14 16 18 35q8 47 -58 69l-137 35q-84 28 -84 89
q0 10 2 20q12 64 104 93q46 14 94 14q51 0 96 -27q10 -7 12 0q6 18 14 27h34z" />
    <glyph glyph-name="Tcommaaccent" unicode="&#x21a;" 
d="M232 -147q-25 -55 -86 -80q-16 -7 -32 -10l-10 16q26 5 46 31q15 18 7 32q-25 17 -13 53t47 44q9 2 18 1q37 -2 41 -36q3 -29 -18 -51zM536 358l20 170h-194l-88 -494h149l-6 -34h-333l6 34h148l88 494h-193l-40 -170h-35l46 204h491l-25 -204h-34z" />
    <glyph glyph-name="tcommaaccent" unicode="&#x21b;" 
d="M244 -166q-25 -55 -86 -80q-16 -7 -32 -10l-10 16q26 5 46 31q15 18 7 32q-25 17 -13 53t47 44q9 2 18 1q37 -2 41 -36q3 -29 -18 -51zM81 426h78l23 132h37l-23 -132h252l-6 -34h-252l-45 -251q-9 -53 39 -92q37 -31 88 -31q72 0 207 115l24 -24q-95 -87 -182 -117
q-31 -11 -56 -11q-76 0 -124 54q-42 47 -32 106l45 251h-79z" />
    <glyph glyph-name="uni021C" unicode="&#x21c;" 
d="M442 167q-17 -100 -101 -147q-38 -21 -77 -23q-80 -4 -139 -48l6 36q33 33 140 49q100 14 130 104q5 14 7 29q13 69 -35 101q-24 16 -47 11l-54 -13l6 34l59 13q55 12 92 66q16 25 20 48q8 45 -29 78q-24 20 -53 20q-71 0 -128 -51q-26 -23 -40 -52h-35q28 47 32 69
q5 33 -1 69h34q6 -16 4 -41q0 -5 2 -6t10 5q45 44 128 44q51 0 87 -45q32 -41 23 -90q-14 -83 -87 -122q-8 -4 -16 -7q32 -3 52 -47q18 -40 10 -84z" />
    <glyph glyph-name="uni021D" unicode="&#x21d;" 
d="M449 133q-19 -103 -130 -128q-16 -4 -42 -8q-77 -11 -158 -84l7 40q45 46 118 71q22 8 39 10q64 8 88 24q34 23 44 75q10 57 -45 74q-28 10 -49 2l-49 -17l6 34l60 20q68 23 87 42q15 15 18 37q10 53 -61 62q-13 2 -27 2q-71 0 -128 -51q-26 -23 -39 -52h-35q27 48 31 69
q6 33 -1 69h34q6 -22 5 -41q-1 -5 1 -6q1 -1 10 5q45 44 128 44q74 0 104 -41q19 -25 12 -60q-11 -64 -75 -87q-5 -2 -9 -3q70 -21 56 -102z" />
    <glyph glyph-name="uni021E" unicode="&#x21e;" 
d="M479 745l-141 -121h-21l-100 121l17 14l103 -93l131 93zM179 367h273l29 161h-98l6 34h230l-6 -34h-95l-88 -494h94l-6 -34h-230l6 34h99l53 296h-273l-53 -296h97l-6 -34h-230l6 34h96l88 494h-96l6 34h230l-6 -34h-97z" />
    <glyph glyph-name="uni021F" unicode="&#x21f;" 
d="M490 813l-141 -121h-21l-100 121l17 14l103 -93l131 93zM157 376q86 43 114 52q39 12 72 12q72 0 118 -55q35 -43 26 -89l-46 -261h85l-6 -35h-208l6 35h87l46 261q7 35 -32 72q-36 35 -83 35q-66 0 -188 -71l-53 -297h85l-6 -35h-208l6 35h87l98 555l-91 -22l6 34
l130 30z" />
    <glyph glyph-name="uni0222" unicode="&#x222;" 
d="M372 562l6 34q71 0 126 -49t44 -111t-89 -100q-12 -6 -25 -10q64 -33 78 -98q5 -24 1 -49q-32 -179 -265 -179q-194 0 -208 124q-3 26 2 55q13 72 87 123q23 15 48 25q-72 28 -78 85q-1 12 1 24q14 79 133 108q45 11 93 11l-6 -33q-107 0 -160 -45q-22 -18 -26 -41
q-7 -41 43 -69q38 -22 91 -22h85q82 0 134 46q23 22 27 45q7 40 -43 84q-48 42 -99 42zM76 179q-24 -137 157 -145h21q186 0 220 124q3 10 5 21q10 54 -37 96q-39 36 -95 36h-85q-86 0 -146 -61q-33 -34 -40 -71z" />
    <glyph glyph-name="uni0223" unicode="&#x223;" 
d="M416 178q15 80 -33 116q-21 16 -46 16h-58q-59 0 -97 -56q-22 -32 -30 -76q-15 -89 19 -119q27 -23 88 -23q132 0 157 142zM431 502l25 30q29 -17 35 -61q3 -17 0 -34q-11 -63 -71 -101q-8 -4 -15 -8q54 -38 52 -120q-1 -15 -4 -30q-23 -135 -131 -168q-32 -10 -69 -10
q-141 0 -143 117q-1 26 5 61q18 102 94 148q3 1 6 3q-48 30 -48 88q0 9 2 19q11 63 71 97l13 -31q-40 -24 -47 -66q-9 -48 32 -75q20 -14 47 -14h58q53 0 89 44q18 21 22 46q7 41 -23 65z" />
    <glyph glyph-name="uni0224" unicode="&#x224;" 
d="M433 34l-37 -146h-35l28 112h-304l4 20l376 508h-248l-34 -153h-35l42 187h331l-4 -23l-375 -505h291z" />
    <glyph glyph-name="uni0225" unicode="&#x225;" 
d="M534 392l-411 -358h366l-13 -72h-34l7 38h-384l6 34l411 358h-330l-6 -36h-34l12 70h416z" />
    <glyph glyph-name="uni0226" unicode="&#x226;" 
d="M373 721l-18 -97h-74l18 97h74zM226 283h152l-34 238zM317 34h96l-31 212h-172l-107 -212h95l-6 -34h-213l6 34h79l246 494h-144l6 34h207l73 -528h75l-6 -34h-210z" />
    <glyph glyph-name="uni0227" unicode="&#x227;" 
d="M289 594l-18 -97h-74l18 97h74zM414 239q-100 27 -181 27q-78 0 -130 -53q-30 -31 -37 -70q-11 -64 51 -99q38 -21 89 -21q80 0 143 49q19 15 42 38zM415 34h93l-6 -34h-130l9 54q-74 -63 -164 -68h-18q-87 0 -138 50q-43 43 -32 107q15 83 98 130q54 30 112 30
q84 0 182 -26l3 17q7 42 -43 76q-46 30 -111 30q-62 0 -167 -43l-8 34l63 23q75 23 119 23q96 0 151 -51q42 -40 33 -92z" />
    <glyph glyph-name="uni0228" unicode="&#x228;" 
d="M329 8l-19 -54q64 12 92 -29q14 -22 10 -49q-10 -52 -72 -75q-47 -18 -115 -11l11 34q90 -12 128 28q9 9 10 18q9 50 -46 53q-17 0 -38 -4l-26 -6l28 94zM456 402l-25 -143h-34l11 62h-194l-51 -287h273l28 87h34l-34 -121h-440l6 34h97l88 494h-97l6 34h440l-12 -115
h-34l6 81h-273l-31 -173h194l8 47h34z" />
    <glyph glyph-name="uni0229" unicode="&#x229;" 
d="M334 8l-19 -54q64 12 92 -29q14 -22 10 -49q-10 -52 -72 -75q-47 -18 -115 -11l11 34q90 -12 128 28q9 9 10 18q9 50 -46 53q-17 0 -38 -4l-26 -6l28 94zM484 247q-3 77 -67 118q-40 25 -92 25q-92 0 -160 -69q-33 -33 -49 -74h368zM519 213h-413q-14 -81 45 -134
q47 -42 117 -42q81 0 164 49l10 6l19 -28q-73 -53 -171 -63q-15 -1 -29 -1q-98 0 -155 68q-52 61 -37 145q17 97 105 160q73 54 158 54q101 0 155 -70q47 -60 32 -144z" />
    <glyph glyph-name="uni022A" unicode="&#x22a;" 
d="M170 794h347l-6 -34h-347zM208 662q5 26 31 36q7 2 14 2q25 0 31 -24q1 -7 0 -14q-5 -26 -31 -36q-7 -2 -14 -2q-25 0 -31 24q-1 7 0 14zM365 662q5 26 31 36q7 2 14 2q25 0 31 -24q1 -7 0 -14q-5 -26 -31 -36q-7 -2 -14 -2q-25 0 -31 24q-1 7 0 14zM350 564
q100 0 155 -85q53 -83 33 -198q-22 -123 -113 -207q-81 -76 -175 -76q-100 0 -155 85q-53 83 -33 198q22 123 113 207q81 76 175 76zM343 527q-88 0 -163 -81q-64 -70 -81 -165q-20 -116 40 -190q46 -56 118 -56q88 0 163 81q64 70 81 165q20 116 -40 190q-46 56 -118 56z
" />
    <glyph glyph-name="uni022B" unicode="&#x22b;" 
d="M146 657h347l-6 -34h-347zM184 525q5 26 31 36q7 2 14 2q25 0 31 -24q1 -7 0 -14q-5 -26 -31 -36q-7 -2 -14 -2q-25 0 -31 24q-1 7 0 14zM341 525q5 26 31 36q7 2 14 2q25 0 31 -24q1 -7 0 -14q-5 -26 -31 -36q-7 -2 -14 -2q-25 0 -31 24q-1 7 0 14zM338 427
q99 0 154 -70q48 -61 33 -144q-17 -97 -105 -160q-73 -54 -158 -54q-99 0 -154 70q-48 61 -33 144q17 97 105 160q73 54 158 54zM331 390q-90 0 -159 -68q-49 -48 -60 -109q-15 -83 43 -136q45 -41 114 -41q96 0 163 69q45 46 56 108q16 89 -47 141q-44 36 -110 36z" />
    <glyph glyph-name="uni022C" unicode="&#x22c;" 
d="M144 796h347l-6 -34h-347zM177 625q9 43 52 67q19 11 37 11q15 1 40 -22q14 -13 23 -12q34 3 59 30h5q-4 -40 -36 -63q-16 -11 -34 -11q-23 1 -43 22q-13 13 -25 13q-40 -1 -68 -35h-10zM350 564q100 0 155 -85q53 -83 33 -198q-22 -123 -113 -207q-81 -76 -175 -76
q-100 0 -155 85q-53 83 -33 198q22 123 113 207q81 76 175 76zM343 527q-88 0 -163 -81q-64 -70 -81 -165q-20 -116 40 -190q46 -56 118 -56q88 0 163 81q64 70 81 165q20 116 -40 190q-46 56 -118 56z" />
    <glyph glyph-name="uni022D" unicode="&#x22d;" 
d="M120 659h347l-6 -34h-347zM153 488q9 43 52 67q19 11 37 11q15 1 40 -22q14 -13 23 -12q34 3 59 30h5q-4 -40 -36 -63q-16 -11 -34 -11q-23 1 -43 22q-13 13 -25 13q-40 -1 -68 -35h-10zM338 427q99 0 154 -70q48 -61 33 -144q-17 -97 -105 -160q-73 -54 -158 -54
q-99 0 -154 70q-48 61 -33 144q17 97 105 160q73 54 158 54zM331 390q-90 0 -159 -68q-49 -48 -60 -109q-15 -83 43 -136q45 -41 114 -41q96 0 163 69q45 46 56 108q16 89 -47 141q-44 36 -110 36z" />
    <glyph glyph-name="uni022E" unicode="&#x22e;" 
d="M374 721l-18 -97h-74l18 97h74zM350 564q100 0 155 -85q53 -83 33 -198q-22 -123 -113 -207q-81 -76 -175 -76q-100 0 -155 85q-53 83 -33 198q22 123 113 207q81 76 175 76zM343 527q-88 0 -163 -81q-64 -70 -81 -165q-20 -116 40 -190q46 -56 118 -56q88 0 163 81
q64 70 81 165q20 116 -40 190q-46 56 -118 56z" />
    <glyph glyph-name="uni022F" unicode="&#x22f;" 
d="M349 584l-18 -97h-74l18 97h74zM338 427q99 0 154 -70q48 -61 33 -144q-17 -97 -105 -160q-73 -54 -158 -54q-99 0 -154 70q-48 61 -33 144q17 97 105 160q73 54 158 54zM331 390q-90 0 -159 -68q-49 -48 -60 -109q-15 -83 43 -136q45 -41 114 -41q96 0 163 69
q45 46 56 108q16 89 -47 141q-44 36 -110 36z" />
    <glyph glyph-name="uni0230" unicode="&#x230;" 
d="M174 815h347l-6 -34h-347zM374 721l-18 -97h-74l18 97h74zM350 564q100 0 155 -85q53 -83 33 -198q-22 -123 -113 -207q-81 -76 -175 -76q-100 0 -155 85q-53 83 -33 198q22 123 113 207q81 76 175 76zM343 527q-88 0 -163 -81q-64 -70 -81 -165q-20 -116 40 -190
q46 -56 118 -56q88 0 163 81q64 70 81 165q20 116 -40 190q-46 56 -118 56z" />
    <glyph glyph-name="uni0231" unicode="&#x231;" 
d="M149 678h347l-6 -34h-347zM349 584l-18 -97h-74l18 97h74zM338 427q99 0 154 -70q48 -61 33 -144q-17 -97 -105 -160q-73 -54 -158 -54q-99 0 -154 70q-48 61 -33 144q17 97 105 160q73 54 158 54zM331 390q-90 0 -159 -68q-49 -48 -60 -109q-15 -83 43 -136
q45 -41 114 -41q96 0 163 69q45 46 56 108q16 89 -47 141q-44 36 -110 36z" />
    <glyph glyph-name="uni0232" unicode="&#x232;" 
d="M146 658h347l-6 -34h-347zM273 34h58l-6 -34h-152l6 34h57l43 239l-141 255h-35l6 34h141l-6 -34h-60l121 -216l199 216h-60l6 34h141l-6 -34h-35l-234 -255z" />
    <glyph glyph-name="uni0233" unicode="&#x233;" 
d="M122 521h347l-6 -34h-347zM232 -168h-284l6 34h213l89 134l-124 392h-76l6 34h191l-6 -34h-74l112 -350l234 350h-74l6 34h191l-6 -34h-76l-352 -526h30z" />
    <glyph glyph-name="uni0250" unicode="&#x250;" 
d="M167 188q69 -22 158 -26q12 -1 22 -1q78 0 130 53q30 30 37 69q11 64 -51 99q-38 21 -89 21q-81 0 -143 -50q-19 -15 -41 -37zM166 392h-94l6 34h131l-9 -54q73 63 164 68h17q87 0 137 -50q44 -43 33 -107q-15 -83 -98 -129q-54 -30 -112 -30q-90 0 -181 25l-3 -17
q-7 -43 43 -76q46 -29 110 -29q65 0 167 42l8 -34l-63 -23q-72 -22 -119 -22q-96 0 -151 51q-41 39 -32 91z" />
    <glyph glyph-name="uni0251" unicode="&#x251;" 
d="M544 0h-117l17 95q-71 -80 -172 -94q-16 -2 -32 -2q-100 0 -154 70q-48 61 -33 144q17 97 105 161q72 53 157 53q99 0 153 -70q10 -12 17 -26l17 95h37l-70 -392h81zM465 213q15 85 -46 138q-45 39 -110 39q-92 0 -161 -69q-47 -47 -58 -108q-15 -83 43 -136
q45 -41 113 -41q88 0 156 64q52 49 63 113z" />
    <glyph glyph-name="uni0252" unicode="&#x252;" 
d="M62 426h117l-16 -95q71 80 172 94q16 2 32 2q99 0 154 -70q47 -61 33 -144q-17 -96 -105 -160q-73 -53 -158 -53q-100 0 -154 71q-9 11 -16 24l-17 -95h-37l69 392h-80zM142 213q-15 -86 47 -138q44 -38 109 -38q92 0 161 68q47 48 58 108q14 83 -43 136q-45 41 -114 41
q-88 0 -156 -65q-51 -48 -62 -112z" />
    <glyph glyph-name="uni0253" unicode="&#x253;" 
d="M357 390q-88 0 -157 -64q-51 -49 -62 -113q-15 -85 46 -138q45 -39 110 -39q92 0 160 69q48 47 59 108q14 83 -43 136q-45 41 -113 41zM69 34l90 507q12 68 66 88q15 5 33 5q52 0 58 -35q1 -7 -1 -15q-3 -24 -30 -27q-29 -3 -38 20q-4 9 -2 20t11 21q-24 10 -44 -15
q-7 -9 -9 -20l-44 -252q71 80 172 94q16 2 31 2q100 0 155 -70q47 -61 33 -144q-17 -97 -105 -161q-73 -53 -157 -53q-99 0 -153 70q-10 12 -17 26l-17 -95h-118l6 34h80z" />
    <glyph glyph-name="uni0254" unicode="&#x254;" 
d="M96 51l-8 -23l-31 8l21 56q-9 14 -12 35l37 12q22 -67 91 -91q29 -10 61 -10q91 0 159 68q48 48 59 109q14 81 -45 133q-47 43 -120 43q-58 0 -130 -37q-14 -7 -25 -14l-14 33q59 42 145 53q16 2 31 2q108 0 164 -72q45 -60 31 -141q-17 -97 -105 -161q-72 -53 -157 -53
q-81 0 -137 51q-11 10 -15 -1z" />
    <glyph glyph-name="uni0255" unicode="&#x255;" 
d="M147 103q53 -62 140 -65q86 0 147 49q34 27 39 58q8 45 -62 63q-32 8 -67 8q-110 0 -197 -113zM85 214q18 97 105 161q73 53 157 53q80 0 137 -51q11 -10 15 1l8 22l32 -7l-22 -56q10 -17 13 -35l-37 -13q-22 68 -92 92q-28 10 -60 10q-91 0 -160 -68q-48 -48 -59 -109
q-7 -43 8 -79q99 118 220 118q113 0 149 -50q17 -24 11 -58q-12 -71 -101 -114q-63 -30 -128 -30q-102 0 -159 66q-33 -55 -44 -118h-38q13 76 61 149q-27 52 -16 116z" />
    <glyph glyph-name="uni0256" unicode="&#x256;" 
d="M574 -75q-6 -35 -47 -46q-13 -4 -27 -4q-53 0 -76 41q-14 24 -9 54l22 125q-71 -80 -172 -94q-16 -2 -32 -2q-100 0 -154 70q-48 61 -33 144q17 97 105 161q72 53 157 53q99 0 153 -70q10 -12 17 -26l45 258l-165 -30l6 34l204 39l-116 -656q-7 -38 19 -70q16 -21 32 -15
q-5 12 -3 21q7 41 46 44q34 0 28 -31zM458 213q15 85 -47 138q-44 39 -109 39q-92 0 -161 -69q-47 -47 -58 -108q-15 -83 43 -136q45 -41 113 -41q88 0 156 64q52 49 63 113z" />
    <glyph glyph-name="uni0257" unicode="&#x257;" 
d="M679 584q-4 -24 -31 -27q-28 -3 -37 20q-4 8 -2 20q2 10 10 21q-21 9 -52 -15q-18 -14 -21 -29l-95 -540h81l-6 -34h-117l17 95q-71 -80 -172 -94q-16 -2 -32 -2q-100 0 -154 70q-48 61 -33 144q17 97 104 161q73 53 157 53q100 0 154 -70q9 -12 17 -26l36 208
q9 52 62 80q28 15 57 15q54 0 58 -37q0 -6 -1 -13zM447 213q15 85 -47 138q-44 39 -109 39q-92 0 -161 -69q-48 -47 -58 -108q-15 -83 43 -136q45 -41 113 -41q88 0 156 64q51 49 63 113z" />
    <glyph glyph-name="uni0258" unicode="&#x258;" 
d="M117 247h368q-3 77 -67 117q-40 25 -92 25q-92 0 -160 -68q-33 -33 -49 -74zM70 213q18 100 108 163q71 50 155 50q99 0 154 -71q46 -60 32 -142q-17 -95 -105 -159q-75 -54 -162 -54q-91 0 -157 48q-11 8 -19 16l29 28q55 -46 133 -54q11 -1 21 -1q91 0 161 67
q51 48 62 109h-412z" />
    <glyph glyph-name="uni0259" unicode="&#x259;" 
d="M114 178q3 -77 67 -118q40 -25 92 -25q92 0 160 69q33 33 49 74h-368zM80 212h412q14 80 -45 133q-47 43 -117 43q-80 0 -162 -49q-6 -3 -12 -7l-19 29q73 53 171 63q15 1 29 1q98 0 155 -68q52 -61 37 -145q-17 -97 -105 -160q-73 -54 -158 -54q-100 0 -154 70
q-47 60 -32 144z" />
    <glyph glyph-name="uni025A" unicode="&#x25a;" 
d="M72 169q5 -62 60 -103q45 -34 105 -34q87 0 153 63q48 46 58 104q5 28 2 50zM99 362q95 54 162 62q18 2 37 2q98 0 152 -72q22 -28 31 -63q24 10 36 46q5 16 7 19q-3 -96 10 -112q9 -10 25 0l20 15l18 -24q-89 -72 -103 27l-6 -3q2 -30 -3 -60q-17 -95 -106 -156
q-69 -48 -148 -48q-100 0 -158 72q-50 61 -38 129l409 86q-23 69 -90 96q-29 11 -62 11q-74 0 -157 -46q-11 -6 -23 -13z" />
    <glyph glyph-name="uni025B" unicode="&#x25b;" 
d="M126 133q14 81 92 102q-55 17 -55 73q0 8 2 17q12 68 92 92q29 9 60 9q83 0 112 -44q9 -8 12 1q7 25 19 41h34q-19 -36 -25 -69q-3 -22 7 -69h-35q-8 61 -69 89q-29 14 -62 14q-90 0 -109 -54l-2 -10q-9 -53 51 -66q14 -3 32 -3h56l-6 -34h-51q-50 0 -87 -31
q-28 -23 -34 -58q-17 -99 97 -99q76 0 138 65l27 -21q-69 -71 -154 -80q-9 -1 -18 -1q-100 0 -122 67q-9 29 -2 69z" />
    <glyph glyph-name="uni025C" unicode="&#x25c;" 
d="M426 133q-19 -110 -128 -132q-21 -4 -44 -4q-80 0 -131 64q-7 8 -13 17l35 21q39 -63 116 -65q114 0 131 99q11 63 -55 83q-18 6 -34 6h-51l6 34h56q79 0 101 51q4 8 6 18q9 53 -62 62q-12 2 -27 2q-71 0 -127 -51q-26 -23 -39 -52h-35q27 51 30 69q6 33 -1 69h34
q7 -16 5 -41q0 -5 2 -6q1 -1 10 5q44 44 128 44q73 0 104 -41q18 -25 12 -60q-11 -64 -76 -87q-4 -2 -9 -3q70 -21 56 -102z" />
    <glyph glyph-name="uni025D" unicode="&#x25d;" 
d="M443 375q44 18 69 52q-7 -39 0 -87q6 -40 23 -40q24 0 54 42l27 -16q-41 -60 -87 -60q-51 0 -51 92q-13 -10 -27 -15q-1 -14 -2 -21q-11 -65 -116 -82q-6 -1 -13 -2q99 -6 111 -72q2 -15 -1 -30q-22 -126 -187 -136q-16 -1 -35 -1q-65 0 -128 38l22 34q61 -36 114 -36
q137 0 169 71q5 14 8 30q8 43 -71 71q-43 16 -76 16h-35l6 37h35q55 0 116 26q41 18 44 36q8 46 -62 62q-29 7 -63 7q-60 0 -103 -21q-10 -6 -27 -15q-5 -3 -18 -25q-6 -9 -12 -17l-34 12q13 23 25 36l-2 56l34 7l1 -22q0 -9 7 -5l7 3q50 22 82 26q20 2 47 2q120 0 149 -53z
" />
    <glyph glyph-name="uni025E" unicode="&#x25e;" 
d="M112 213q-13 -75 42 -130q47 -47 115 -47q110 0 168 44q29 23 35 54q7 39 -66 66q-63 24 -119 24h-35l6 37h35q81 0 147 24q48 18 52 43q11 60 -141 61h-20q-92 0 -161 -69q-48 -47 -58 -107zM509 134q-28 -132 -247 -134q-96 0 -151 68q-51 62 -36 145q17 97 105 160
q73 54 158 54q179 0 192 -72q2 -13 -1 -27q-12 -70 -125 -86q-19 -3 -42 -4q123 -2 145 -67q5 -17 2 -37z" />
    <glyph glyph-name="uni025F" unicode="&#x25f;" 
d="M32 -134q29 -22 92 -26h13q50 0 94 59q27 35 33 70l10 56h-111l6 34h111l59 333h-131l6 34h168l-65 -367h105l-6 -34h-105l-10 -56q-10 -61 -63 -114q-51 -52 -108 -52q-80 0 -120 30z" />
    <glyph glyph-name="uni0260" unicode="&#x260;" 
d="M317 390q-92 0 -160 -69q-48 -47 -59 -108q-14 -83 43 -136q45 -41 113 -41q92 0 161 69q48 47 58 108q15 83 -43 136q-45 41 -113 41zM630 426l-6 -34h-82l-75 -423q-11 -63 -95 -116q-81 -50 -161 -50q-94 0 -183 58l22 33q40 -31 114 -48q29 -6 53 -6q69 0 144 49
q62 40 69 80l23 127q-68 -78 -166 -94q-19 -3 -38 -3q-100 0 -155 70q-47 61 -33 144q17 97 105 161q73 53 157 53q100 0 154 -71q10 -12 17 -26l17 96h119z" />
    <glyph glyph-name="uni0261" unicode="&#x261;" 
d="M317 390q-92 0 -160 -69q-48 -47 -59 -108q-14 -83 43 -136q45 -41 113 -41q92 0 161 69q48 47 58 108q15 83 -43 136q-45 41 -113 41zM510 211l-43 -242q-11 -63 -95 -116q-81 -50 -161 -50q-94 0 -183 58l22 33q40 -31 114 -48q29 -6 53 -6q69 0 144 49q62 40 69 80
l23 127q-68 -78 -166 -94q-19 -3 -38 -3q-100 0 -155 70q-47 61 -33 144q17 97 105 161q73 53 157 53q126 0 172 -86q28 -54 15 -130z" />
    <glyph glyph-name="uni0262" unicode="&#x262;" 
d="M356 426q76 0 114 -51q9 -8 12 1q7 26 19 40h34q-19 -36 -25 -69q-4 -23 7 -68h-35q-8 59 -65 92q-32 18 -68 18q-104 0 -173 -63q-51 -46 -63 -114q-16 -90 53 -142q46 -35 110 -35q78 0 146 57q47 41 57 87h-110l6 34h145l-6 -34q-16 -77 -98 -133q-71 -48 -147 -48
q-107 0 -162 69q-46 59 -31 145q22 123 134 180q66 34 146 34z" />
    <glyph glyph-name="uni0263" unicode="&#x263;" 
d="M250 -60l-20 -36q-19 -34 7 -34q32 0 15 65q-1 4 -2 5zM458 598l6 34h196l-6 -34h-52l-324 -608l16 -74q9 -39 -18 -66q-17 -17 -45 -17q-46 0 -51 35q-3 19 9 40l49 86l-109 604h-53l6 34h196l-6 -34h-103l98 -558l295 558h-104z" />
    <glyph glyph-name="uni0264" unicode="&#x264;" 
d="M268 -60l-23 -34q-21 -31 10 -34q35 0 16 59q-2 7 -3 9zM437 392l6 34h196l-6 -34h-52l-285 -402l20 -72q9 -35 -17 -62q-19 -21 -50 -21q-45 0 -53 33q-5 20 8 42l52 84l-144 398h-53l6 34h196l-6 -34h-103l131 -361l258 361h-104z" />
    <glyph glyph-name="uni0265" unicode="&#x265;" 
d="M446 257q-3 -2 -42 -22q-90 -42 -145 -42q-66 0 -113 52q-41 45 -32 91l46 262h-84l6 34h208l-6 -34h-87l-46 -262q-7 -35 32 -71q37 -35 83 -35q67 0 183 68l4 2l53 298h-84l6 34h208l-6 -34h-87l-98 -557l91 23l-6 -34l-130 -31z" />
    <glyph glyph-name="uni0266" unicode="&#x266;" 
d="M67 34l90 508q10 60 58 84q19 9 41 9q54 0 58 -37q0 -6 -1 -13q-4 -24 -31 -27q-28 -3 -37 20q-4 8 -2 20q2 10 10 21q-24 11 -43 -14q-7 -10 -9 -21l-37 -211l43 22q89 42 144 42q67 0 114 -53q39 -44 31 -91l-46 -259h85l-6 -34h-208l6 34h86l46 259q6 35 -31 71
t-83 36q-68 0 -180 -66q-5 -2 -9 -5l-52 -295h85l-6 -34h-208l6 34h86z" />
    <glyph glyph-name="uni0267" unicode="&#x267;" 
d="M464 293q6 35 -31 71q-36 36 -83 36q-67 0 -180 -66q-4 -2 -8 -5l-52 -295h85l-6 -34h-208l6 34h86l89 508q11 60 58 84q19 9 42 9q53 0 57 -37q1 -6 0 -13q-4 -24 -31 -27q-29 -3 -38 20q-3 8 -1 20q2 11 10 21q-24 11 -43 -14q-7 -10 -9 -21l-38 -211l43 22
q90 42 145 42q66 0 113 -53q39 -44 31 -91l-46 -261q-9 -53 -62 -81q-27 -14 -56 -14q-53 0 -57 37q-1 6 0 13q4 24 31 27q29 3 38 -20q3 -8 1 -20q-2 -11 -10 -21q20 -8 51 20q20 19 24 38z" />
    <glyph glyph-name="uni0268" unicode="&#x268;" 
d="M309 392h-186l6 34h223l-35 -198h150l-6 -34h-150l-29 -160h173l-6 -34h-396l6 34h186l29 160h-134l6 34h134zM376 562l-18 -97h-74l18 97h74z" />
    <glyph glyph-name="uni0269" unicode="&#x269;" 
d="M364 426l-53 -300q-7 -41 16 -76q14 -22 34 -22q35 0 59 21q4 3 6 7q-7 17 -5 28q8 43 39 53q26 8 35 -14q4 -10 1 -26q-6 -28 -56 -64q-47 -34 -83 -34q-48 0 -72 45q-19 38 -9 95l45 253h-186l6 34h223z" />
    <glyph glyph-name="uni026A" unicode="&#x26a;" 
d="M317 392h-195l6 34h421l-6 -34h-190l-64 -358h189l-6 -34h-421l6 34h196z" />
    <glyph glyph-name="uni026B" unicode="&#x26b;" 
d="M303 589l-170 -40l6 34l209 49l-52 -292q3 -2 8 -2q29 0 55 27h4q-4 -38 -35 -58q-14 -9 -29 -9q-7 0 -10 1l-47 -265h216l-6 -34h-416l6 34h163l51 287q-9 9 -19 9q-36 0 -61 -32h-9q7 39 45 61q18 10 35 10q7 0 17 -4z" />
    <glyph glyph-name="uni026C" unicode="&#x26c;" 
d="M254 311l19 107q-88 -7 -96 -52q-7 -41 52 -52q11 -2 25 -3zM303 589l-170 -40l6 34l209 49l-57 -322h85l-6 -34h-85l-43 -242h216l-6 -34h-416l6 34h163l43 243q-105 6 -107 71q0 9 2 18q11 65 109 83q13 2 27 3z" />
    <glyph glyph-name="uni026D" unicode="&#x26d;" 
d="M296 -79q-4 10 -3 21q6 31 37 39q28 7 36 -11q3 -6 2 -15q-9 -44 -63 -49q-6 -1 -12 -1q-53 0 -77 41q-14 24 -8 54l104 589l-171 -40l6 34l209 49l-113 -641q-4 -23 20 -53q18 -23 33 -17z" />
    <glyph glyph-name="uni026E" unicode="&#x26e;" 
d="M479 296q6 34 -31 71q-37 36 -83 36q-68 0 -188 -71l-53 -298h85l-6 -34h-209l6 34h87l98 556l-91 -23l6 34l129 31l-45 -256q39 19 43 21q85 43 144 43q67 0 114 -55q39 -44 31 -89q-4 -26 -69 -153q-40 -81 -44 -104q-4 -20 20 -48q28 -33 27 -60q0 -5 -1 -11
q-18 -103 -196 -109h-75q-129 0 -158 51q-15 28 -8 72h37q-10 -59 42 -75q31 -10 93 -10q94 0 106 1q111 9 122 70q3 18 -20 46q-29 33 -27 62q0 5 1 11q6 32 68 154q41 79 45 103z" />
    <glyph glyph-name="uni026F" unicode="&#x26f;" 
d="M259 55q-44 -45 -101 -63q-11 -4 -18 -4q-78 0 -77 81q1 22 8 63l46 260h-85l6 34h122l-51 -294q-11 -62 -4 -82q9 -25 42 -25q40 0 113 70l6 36v1l46 260h-84l6 34h122l-52 -294q-19 -107 39 -107q41 0 112 71l53 296h-84l6 34h208l-6 -34h-87l-64 -358h87l-6 -34h-124
l10 52q-21 -31 -80 -55q-22 -9 -32 -9q-71 0 -77 67z" />
    <glyph glyph-name="uni0270" unicode="&#x270;" 
d="M272 55q-44 -45 -101 -63q-11 -4 -18 -4q-78 0 -77 81q1 22 8 63l46 260h-85l6 34h122l-52 -294q-11 -64 -3 -84q10 -23 42 -23q40 0 113 70l6 36v1l46 260h-84l6 34h122l-52 -294q-10 -56 -9 -68q4 -39 48 -39q41 0 112 71l53 296h-84l6 34h208l-6 -34h-87l-92 -517h87
l-6 -34h-124l38 211q-21 -31 -80 -55q-22 -9 -32 -9q-71 0 -77 67z" />
    <glyph glyph-name="uni0271" unicode="&#x271;" 
d="M396 -119q44 22 58 52q3 6 4 11l61 352q11 62 3 82q-9 25 -42 25q-38 0 -113 -70l-6 -37l-46 -262h85l-6 -34h-122l52 296q10 56 8 68q-3 39 -47 39q-40 0 -111 -68l-3 -3l-52 -298h85l-6 -34h-208l6 34h87l63 358h-87l6 34h124l-9 -50q20 31 80 55q21 9 31 9
q72 0 77 -67q45 45 101 63q12 4 18 4q80 0 77 -85q-1 -21 -7 -59l-58 -325q-10 -57 -63 -91q-30 -19 -60 -20q-46 -1 -51 32q-5 29 20 48q12 9 27 9q27 1 30 -23q3 -19 -16 -37q-13 -12 -19 -15q13 0 29 7z" />
    <glyph glyph-name="uni0272" unicode="&#x272;" 
d="M13 -116q41 20 56 51q3 6 4 12l78 445h-87l6 34h124l-8 -50q22 12 41 21q88 43 145 43q66 0 114 -52q40 -45 31 -92l-46 -262h84l-6 -34h-208l6 34h87l46 262q7 35 -32 72q-36 35 -83 35q-66 0 -188 -71l-63 -358q-16 -87 -91 -106q-15 -4 -31 -5q-46 -1 -50 32
q-4 29 20 48q12 9 27 9q26 1 29 -23q3 -20 -16 -37q-12 -12 -18 -15q14 0 29 7z" />
    <glyph glyph-name="uni0273" unicode="&#x273;" 
d="M519 -130q-5 3 -13 15q-17 24 3 46q12 14 31 14q30 0 34 -28q5 -30 -24 -49q-18 -12 -44 -12q-55 0 -76 47q-13 28 -7 64l58 329q6 35 -32 72q-37 35 -83 35q-67 0 -189 -71l-52 -298h85l-6 -34h-208l6 34h87l63 358h-87l6 34h123l-9 -50q36 18 43 21q87 43 144 43
q67 0 114 -53q39 -44 31 -91l-62 -352q0 -42 31 -64q15 -9 33 -10z" />
    <glyph glyph-name="uni0274" unicode="&#x274;" 
d="M455 47l61 345h-104l6 34h187l-6 -34h-46l-70 -392h-37l-308 392l-64 -358h103l-6 -34h-186l6 34h46l64 358h-46l6 34h106q90 -131 288 -379z" />
    <glyph glyph-name="uni0275" unicode="&#x275;" 
d="M338 427q99 0 154 -70q48 -61 33 -144q-17 -97 -105 -160q-73 -54 -158 -54q-99 0 -154 70q-48 61 -33 144q17 97 105 160q73 54 158 54zM110 196q-6 -79 55 -127q43 -33 104 -33q91 0 160 68q41 41 55 92h-374zM331 390q-91 0 -160 -68q-41 -41 -55 -92h374
q6 79 -55 127q-43 33 -104 33z" />
    <glyph glyph-name="uni0276" unicode="&#x276;" 
d="M239 37l62 352q-133 0 -196 -87q-27 -38 -36 -90q-21 -120 79 -160q39 -15 91 -15zM501 325l-22 -125h-34l9 52h-140l-39 -218h219l26 79h34l-32 -113h-290q-130 0 -180 79q-34 53 -20 133q23 130 139 185q61 29 137 29h290l-10 -108h-34l4 74h-219l-19 -106h140l7 39h34
z" />
    <glyph glyph-name="uni0277" unicode="&#x277;" 
d="M83 181q-13 -77 26 -126q27 -32 68 -32q50 0 80 39q12 16 15 34l38 213h37l-38 -213q-6 -36 29 -59q18 -12 41 -12q68 0 117 73q29 42 38 94q17 96 -49 159q-55 51 -140 51q-98 0 -179 -76q-68 -63 -83 -145zM282 38q-49 -48 -112 -52q-82 0 -114 79q-21 53 -10 116
q20 111 116 187q88 71 190 71q109 0 174 -73q63 -72 45 -174q-16 -92 -80 -153q-53 -51 -119 -51q-53 0 -84 41q-3 5 -6 9z" />
    <glyph glyph-name="uni0278" unicode="&#x278;" 
d="M257 123l53 297q-82 -7 -135 -72q-29 -35 -37 -77q-12 -71 39 -116q33 -28 80 -32zM347 420l-53 -297q81 10 131 75q26 34 33 73q13 73 -40 118q-29 26 -71 31zM329 528h-195l6 34h421l-6 -34h-189l-13 -71q86 -10 125 -78q28 -48 17 -108q-15 -86 -94 -142
q-53 -36 -113 -43l-10 -52h188l-6 -34h-421l6 34h196l10 52q-87 6 -129 73q-32 50 -21 112q15 85 94 142q56 40 121 44z" />
    <glyph glyph-name="uni0279" unicode="&#x279;" 
d="M40 63q11 -15 54 -31q23 -9 40 -9q64 0 171 57q13 7 24 14l53 298h-85l6 34h208l-6 -34h-86l-63 -358h86l-6 -34h-123l8 50l-42 -21q-88 -43 -152 -43q-61 0 -109 40q-7 6 -13 13z" />
    <glyph glyph-name="uni027A" unicode="&#x27a;" 
d="M23 73q11 -15 53 -31q23 -9 40 -9q65 0 171 57q14 7 25 14l87 494h-85l6 34h208l-6 -34h-86l-98 -554h86l-6 -34h-123l9 50q-39 -19 -42 -21q-88 -43 -152 -43q-61 0 -109 40q-8 6 -14 13z" />
    <glyph glyph-name="uni027B" unicode="&#x27b;" 
d="M426 392l-76 -428q-3 -22 22 -38q19 -11 34 -5q-4 10 -2 21q5 31 36 39q28 7 37 -11q3 -6 1 -15q-9 -44 -63 -49q-6 -1 -12 -1q-53 0 -76 42q-12 24 -7 53l9 50q-39 -19 -43 -21q-88 -43 -152 -43q-61 0 -109 40q-7 6 -13 13l35 24q11 -15 54 -31q23 -9 40 -9
q64 0 171 57q13 7 24 14l53 298h-85l6 34h208l-6 -34h-86z" />
    <glyph glyph-name="uni027C" unicode="&#x27c;" 
d="M506 364q-13 15 -55 31q-23 8 -39 8q-64 0 -170 -57q-13 -7 -25 -14l-87 -495h84l-6 -34h-208l6 34h87l98 555h-87l6 34h124l-9 -50q5 3 42 22q89 42 151 42q63 0 111 -41l12 -12z" />
    <glyph glyph-name="uni027D" unicode="&#x27d;" 
d="M205 -79q-4 11 -3 21q6 32 38 39q28 7 36 -12q2 -6 1 -14q-7 -41 -57 -49q-9 -1 -18 -1q-54 0 -77 42q-12 24 -7 53l69 392h-86l6 34h123l-9 -51l42 21q88 43 152 43q61 0 109 -40q8 -6 14 -13l-35 -24q-12 15 -54 31q-23 9 -40 9q-64 0 -174 -59q-12 -6 -22 -12
l-60 -343q-5 -24 20 -52q17 -21 32 -15z" />
    <glyph glyph-name="uni027E" unicode="&#x27e;" 
d="M280 333q9 53 62 81q27 14 55 14q59 0 58 -41q0 -5 -1 -9q-4 -24 -31 -27q-29 -3 -37 20q-4 8 -2 20q2 10 10 21q-19 9 -50 -15q-18 -14 -21 -28l-59 -335h87l-6 -34h-208l6 34h84z" />
    <glyph glyph-name="uni027F" unicode="&#x27f;" 
d="M343 333l-53 -299h84l-6 -34h-208l6 34h87l59 335q4 22 -22 38q-19 11 -33 5q4 -10 2 -21q-5 -32 -37 -39q-28 -7 -36 12q-2 6 -1 14q7 42 58 49q8 1 17 1q53 0 75 -42q13 -24 8 -53z" />
    <glyph glyph-name="uni0280" unicode="&#x280;" 
d="M143 212h239q114 0 130 90q13 76 -56 87q-16 3 -42 3h-239zM340 178q75 -81 88 -144h70l-6 -34h-94q-16 81 -79 147q-14 15 -32 31h-151l-26 -144h130l-6 -34h-263l6 34h97l64 358h-97l6 34h373q123 0 128 -85q1 -18 -2 -39q-17 -97 -123 -119q-23 -5 -47 -5h-36z" />
    <glyph glyph-name="uni0281" unicode="&#x281;" 
d="M143 214l-32 -180h239q77 0 106 33q18 21 24 57q7 86 -98 90h-239zM352 248h36q92 0 120 -55q13 -28 6 -69q-29 -121 -170 -124h-373l6 34h97l64 358h-97l6 34h263l-6 -34h-130l-26 -144h151q108 74 156 148q10 14 19 30h94l-6 -34h-70q-34 -61 -140 -144z" />
    <glyph glyph-name="uni0282" unicode="&#x282;" 
d="M150 23q-6 -13 -21 -35q-13 -20 4 -61q18 -44 48 -36q-4 10 -3 21q6 31 36 40q29 8 37 -11q3 -7 2 -16q-8 -42 -59 -49q-8 -1 -16 -1q-50 0 -78 41q-25 38 -5 72l20 33q12 20 16 39q3 19 -10 50q-2 4 -4 6h34l10 -22q28 -53 96 -61q10 -1 20 -1q96 0 137 45q14 16 18 35
q8 47 -58 69l-137 35q-84 28 -84 89q0 10 2 20q11 64 104 93q46 14 94 14q50 0 96 -27q10 -7 12 0q6 18 14 27h34q-16 -24 -21 -49q-7 -40 14 -62h-34q-22 46 -73 65q-23 9 -48 9q-108 0 -143 -45q-9 -11 -12 -25q-9 -51 60 -75q8 -3 101 -26q92 -23 111 -63q10 -21 5 -49
q-12 -64 -96 -98q-49 -19 -103 -19q-63 0 -108 33q-7 6 -12 -5z" />
    <glyph glyph-name="uni0283" unicode="&#x283;" 
d="M315 505q10 62 83 101q45 24 88 24q84 0 139 -47l-26 -30q-50 40 -119 40q-55 0 -99 -41q-25 -23 -29 -47l-100 -563q-10 -62 -83 -101q-45 -24 -88 -24q-84 0 -139 47l26 30q50 -40 119 -40q55 0 99 41q25 23 29 47z" />
    <glyph glyph-name="uni0284" unicode="&#x284;" 
d="M315 505q10 62 83 101q45 24 88 24q84 0 139 -47l-26 -30q-50 40 -119 40q-55 0 -99 -41q-25 -23 -29 -47l-11 -63h90l-6 -34h-90l-64 -358h90l-6 -34h-90l-13 -74q-10 -62 -83 -101q-45 -24 -88 -24q-84 0 -139 47l26 30q50 -40 119 -40q55 0 99 41q25 23 29 47l13 74
h-90l6 34h90l64 358h-90l6 34h90z" />
    <glyph glyph-name="uni0285" unicode="&#x285;" 
d="M366 505l-100 -563q-7 -39 35 -68q28 -20 62 -20q71 0 133 40l17 -30q-72 -47 -157 -47q-60 0 -100 42q-35 36 -27 83l100 563q7 39 -35 68q-28 20 -63 20q-69 0 -133 -40l-17 30q74 47 157 47q61 0 101 -42q35 -36 27 -83z" />
    <glyph glyph-name="uni0286" unicode="&#x286;" 
d="M226 7q-57 12 -102 -15q-31 -18 -37 -51q-10 -55 29 -72q10 -5 21 -5q42 0 65 42q9 17 13 37zM314 505q11 62 83 101q45 24 88 24q84 0 139 -47l-26 -30q-50 40 -119 40q-55 0 -99 -41q-25 -23 -29 -47l-83 -470q65 -29 79 -113q6 -34 0 -69h-37q13 74 -28 122
q-10 11 -21 19l-10 -52q-13 -76 -74 -104q-22 -10 -44 -10q-55 0 -76 45q-14 28 -7 68q12 69 91 95q45 16 92 9z" />
    <glyph glyph-name="uni0287" unicode="&#x287;" 
d="M507 125h-78l-23 -132h-37l23 132h-252l6 34h252l45 251q9 53 -39 92q-37 30 -88 30q-73 0 -207 -114l-23 24q87 82 174 114q35 13 63 13q77 0 126 -54q41 -46 31 -105l-45 -251h78z" />
    <glyph glyph-name="uni0288" unicode="&#x288;" 
d="M187 -112q-5 3 -13 15q-17 24 3 46q12 14 31 14q29 0 33 -28q4 -30 -25 -50q-18 -11 -42 -11q-52 0 -75 47q-14 29 -8 64l72 407h-79l6 34h78l23 132h37l-23 -132h252l-6 -34h-252l-78 -441q-1 -36 36 -55q14 -7 30 -8z" />
    <glyph glyph-name="uni0289" unicode="&#x289;" 
d="M156 273l-26 -142q-6 -35 32 -72q37 -35 83 -35q67 0 188 71l32 178h-309zM426 51q-37 -18 -43 -21q-88 -43 -145 -43q-66 0 -113 53q-40 44 -31 91l25 142h-83l6 34h83l15 85h-85l6 34h122l-21 -119h309l15 85h-85l6 34h122l-21 -119h88l-6 -34h-88l-42 -239h86l-6 -34
h-123z" />
    <glyph glyph-name="uni028A" unicode="&#x28a;" 
d="M388 426h140l28 -65l-32 -18l-21 49h-85q-4 -52 27 -118q26 -55 25 -88q0 -10 -2 -20q-14 -79 -90 -130q-56 -37 -117 -37q-82 0 -126 55q-34 44 -24 104q10 52 63 115q47 57 59 83q8 18 12 36h-84l-39 -49l-26 18l52 65h141q-13 -70 -41 -112q-13 -19 -39 -50
q-49 -57 -58 -96q-2 -5 -3 -10q-10 -58 39 -96q34 -26 81 -26q71 0 123 55q33 34 40 75q5 32 -18 82q-29 65 -31 115q0 29 6 63z" />
    <glyph glyph-name="uni028B" unicode="&#x28b;" 
d="M238 -13q-137 0 -148 125q-4 50 17 171q6 30 33 109h-85l6 34h126l-35 -112q-6 -21 -8 -34q-22 -124 -10 -175q18 -81 111 -81q82 0 155 83q59 67 73 144l16 141h-88l6 34h122l-13 -138q-2 -14 -4 -24q-24 -137 -121 -217q-71 -60 -153 -60z" />
    <glyph glyph-name="uni028C" unicode="&#x28c;" 
d="M-25 34h76l272 406h28l129 -406h75l-6 -34h-191l6 34h74l-111 352l-235 -352h74l-6 -34h-191z" />
    <glyph glyph-name="uni028D" unicode="&#x28d;" 
d="M491 34l-46 336l-153 -270h-27l-56 270l-166 -336h125l-6 -34h-201l6 34h37l204 415h23l60 -281l159 281h24l55 -415h38l-6 -34h-201l6 34h125z" />
    <glyph glyph-name="uni028E" unicode="&#x28e;" 
d="M366 594h284l-6 -34h-212l-90 -134l125 -392h75l-6 -34h-191l6 34h74l-111 350l-235 -350h74l-6 -34h-191l6 34h76l352 526h-30z" />
    <glyph glyph-name="uni028F" unicode="&#x28f;" 
d="M285 34h58l-6 -34h-152l6 34h57l30 170l-152 188h-35l6 34h141l-6 -34h-60l132 -156l188 156h-60l6 34h141l-6 -34h-35l-223 -188z" />
    <glyph glyph-name="uni0290" unicode="&#x290;" 
d="M554 -102q-47 0 -79 41q-23 30 -18 61h-387l6 34l412 358h-330l-7 -36h-34l13 70h416l-6 -34l-412 -358h332l7 36h34l-14 -77q-6 -32 24 -64q17 -18 32 -18q6 0 14 3q-4 10 -2 21q5 31 36 39q28 7 37 -11q3 -6 1 -15q-9 -44 -62 -49q-6 -1 -13 -1z" />
    <glyph glyph-name="uni0291" unicode="&#x291;" 
d="M242 34h84q52 0 83 18q13 8 15 18q6 31 -63 35q-10 1 -18 1q-50 0 -101 -72zM124 34h80q50 78 111 100q18 6 34 6q96 0 109 -47q2 -10 0 -23q-10 -57 -107 -68q-16 -2 -31 -2h-98q-15 -26 -19 -50h-34q4 23 17 50h-120l6 34l411 358h-330l-6 -36h-34l12 70h416l-6 -34z
" />
    <glyph glyph-name="uni0292" unicode="&#x292;" 
d="M169 181l6 38l248 173h-250l-7 -36h-34l13 70h336l-6 -34l-248 -173l29 -1h1q95 0 150 -67q51 -61 37 -145q-17 -98 -106 -160q-75 -53 -165 -53q-69 0 -118 33q-6 4 -12 9l25 33q51 -38 112 -38q96 0 167 68q49 48 60 108q14 83 -45 136q-44 39 -111 39h-82z" />
    <glyph glyph-name="uni0293" unicode="&#x293;" 
d="M359 -89q-75 57 -162 57q-58 0 -92 -40q-15 -17 -18 -37q-7 -39 44 -55q21 -7 49 -7q97 0 168 71q6 5 11 11zM407 6q15 83 -45 136q-44 39 -111 39h-82l6 38l248 173h-250l-6 -36h-34l12 70h336l-6 -34l-248 -173l29 -1h1q97 0 152 -68q49 -61 35 -144q-8 -46 -33 -85
q32 -30 57 -56l-29 -28q-42 43 -53 52q-73 -83 -181 -95q-16 -2 -32 -2q-76 0 -109 39q-21 24 -14 60q11 65 81 98q36 16 73 16q95 0 179 -62q18 29 24 63z" />
    <glyph glyph-name="uni0294" unicode="&#x294;" 
d="M234 0l36 205q8 45 71 92q68 50 69 50q47 40 54 84q11 61 -58 87q-31 11 -69 11q-85 0 -128 -41q-18 -17 -22 -39l-3 -18h-37l3 18q13 70 100 100q43 15 92 15q98 0 140 -52q28 -33 19 -81q-11 -63 -88 -121l-70 -53q-31 -27 -36 -52l-36 -205h-37z" />
    <glyph glyph-name="uni0295" unicode="&#x295;" 
d="M263 0h-37l36 205q6 31 -35 72q-45 45 -53 56q-35 46 -26 98q15 82 109 116q46 17 98 17q95 0 134 -48q23 -28 16 -67l-3 -18h-37l3 18q9 49 -54 70q-30 10 -66 10q-88 0 -135 -46q-23 -23 -28 -52q-9 -50 40 -100l48 -48q34 -38 26 -78z" />
    <glyph glyph-name="uni0296" unicode="&#x296;" 
d="M335 562h37l-36 -205q-6 -31 35 -72q45 -45 53 -56q35 -46 26 -98q-15 -82 -109 -116q-46 -17 -98 -17q-95 0 -134 48q-23 28 -16 67l3 18h37l-3 -18q-9 -49 54 -70q30 -10 66 -10q88 0 135 46q23 23 28 52q9 50 -40 100l-48 48q-34 38 -26 78z" />
    <glyph glyph-name="uni0297" unicode="&#x297;" 
d="M363 633q62 0 104 -44q9 -7 12 1q6 19 20 41h34q-20 -39 -26 -70q-4 -23 7 -68h-35q-8 66 -68 92q-25 11 -55 11q-127 0 -154 -102q-2 -7 -3 -14l-54 -304q-16 -93 25 -122q28 -19 88 -19q73 0 139 65l27 -21q-69 -72 -156 -80q-8 -1 -17 -1q-128 0 -145 87q-7 35 2 91
l54 306q16 91 100 130q44 21 101 21z" />
    <glyph glyph-name="uni0298" unicode="&#x298;" 
d="M338 427q99 0 154 -70q48 -61 33 -144q-17 -97 -105 -160q-73 -54 -158 -54q-99 0 -154 70q-48 61 -33 144q17 97 105 160q73 54 158 54zM331 390q-90 0 -159 -68q-49 -48 -60 -109q-15 -83 43 -136q45 -41 114 -41q96 0 163 69q45 46 56 108q15 85 -45 137
q-44 40 -112 40zM228 212q6 37 47 55q17 7 35 7q42 0 57 -33q6 -14 3 -29q-7 -36 -47 -54q-17 -8 -35 -8q-43 0 -57 33q-6 14 -3 29z" />
    <glyph glyph-name="uni0299" unicode="&#x299;" 
d="M221 293h151q95 0 104 49q7 40 -48 48q-16 2 -38 2h-151zM175 34h151q100 0 121 116q12 67 -39 97q-20 12 -42 12h-151zM429 272q50 -21 54 -83q2 -19 -2 -39q-24 -138 -141 -149q-10 -1 -20 -1h-277l6 34h89l64 358h-89l6 34h277q104 0 114 -52q3 -14 0 -32
q-11 -59 -70 -69q-5 0 -11 -1z" />
    <glyph glyph-name="uni029A" unicode="&#x29a;" 
d="M488 213q15 83 -44 136q-44 40 -112 40q-140 0 -172 -39q-9 -10 -11 -22q-6 -36 75 -55q52 -12 100 -12h35l-6 -37h-35q-56 0 -130 -24q-80 -27 -87 -66q-13 -72 91 -92q34 -6 78 -6q91 0 159 68q48 48 59 109zM64 134q10 58 82 86q43 17 101 18q-135 6 -136 77q0 6 1 13
q18 99 227 99q99 0 153 -70q48 -61 33 -144q-18 -99 -105 -162q-71 -51 -157 -51q-204 0 -201 114q0 9 2 20z" />
    <glyph glyph-name="uni029B" unicode="&#x29b;" 
d="M570 445q-21 9 -38 -29q-19 -36 -25 -69q-4 -23 7 -68h-35q-8 59 -65 92q-32 18 -68 18q-104 0 -174 -63q-50 -46 -62 -114q-16 -90 53 -142q46 -35 110 -35q78 0 146 57q47 41 57 87h-110l6 34h145l-6 -34q-16 -77 -98 -133q-71 -48 -147 -48q-107 0 -162 69
q-46 59 -31 145q22 123 134 180q66 34 146 34q76 0 114 -51q9 -8 12 1q7 26 19 40l20 23q24 22 55 22q54 0 57 -37q1 -6 0 -13q-4 -24 -31 -27q-28 -3 -37 20q-4 8 -2 20q2 10 10 21z" />
    <glyph glyph-name="uni029C" unicode="&#x29c;" 
d="M176 283h273l20 109h-98l6 34h230l-6 -34h-95l-64 -358h94l-6 -34h-230l6 34h99l38 212h-273l-38 -212h97l-6 -34h-230l6 34h96l64 358h-96l6 34h230l-6 -34h-97z" />
    <glyph glyph-name="uni029D" unicode="&#x29d;" 
d="M250 -39q-59 31 -119 31q-56 0 -105 -26q-38 -21 -44 -51q-8 -49 64 -65q23 -5 49 -5q50 0 105 47q41 35 50 69zM-55 -85q14 74 116 103q39 11 76 11q63 0 121 -27l68 390h-130l5 34h168l-78 -443l78 -45l-22 -33q-11 6 -66 38q-19 -54 -85 -98q-56 -37 -107 -37
q-105 0 -135 52q-14 23 -9 55zM392 562l-17 -97h-74l17 97h74z" />
    <glyph glyph-name="uni029E" unicode="&#x29e;" 
d="M296 598h-36l126 -198l37 26l37 206h137l-6 -34h-100l-97 -551l106 36l-6 -34l-146 -49l67 378l-189 -138h33l-6 -34h-170l6 34h79l186 136l-142 222h-93l6 34h177z" />
    <glyph glyph-name="uni029F" unicode="&#x29f;" 
d="M215 392h-84l6 34h208l-6 -34h-87l-64 -358h247l39 131h34l-44 -165h-404l6 34h85z" />
    <glyph glyph-name="uni02A0" unicode="&#x2a0;" 
d="M663 471q-4 -23 -31 -26q-28 -3 -37 18q-4 9 -2 21q2 11 11 21q-19 8 -54 -29q-20 -22 -23 -36l-103 -586h80l-6 -34h-239l6 34h123l43 241q-71 -80 -173 -94q-16 -2 -31 -2q-100 0 -155 70q-47 61 -33 144q18 97 105 161q73 53 157 53q99 0 154 -70q9 -12 16 -26l17 95
q8 44 55 75q31 20 63 20q41 4 54 -24q5 -12 3 -26zM451 213q16 85 -46 138q-45 39 -109 39q-93 0 -161 -69q-48 -47 -59 -108q-14 -83 44 -136q44 -41 112 -41q88 0 157 64q51 49 62 113z" />
    <glyph glyph-name="uni02A1" unicode="&#x2a1;" 
d="M236 0l17 96h-73l6 34h73l13 75q8 45 71 92l68 50q47 40 55 84q11 61 -57 87q-30 11 -68 11q-86 0 -129 -41q-19 -17 -23 -39l-3 -18h-37l3 18q12 68 96 100q44 17 95 17q96 0 140 -51q29 -34 20 -84q-11 -63 -88 -121l-70 -53q-31 -27 -36 -52l-13 -75h73l-6 -34h-73
l-17 -96h-37z" />
    <glyph glyph-name="uni02A2" unicode="&#x2a2;" 
d="M261 0h-37l17 96h-73l6 34h73l13 75q6 31 -35 72q-45 45 -54 56q-34 46 -25 98q14 81 108 117q47 18 100 18q91 0 131 -47q25 -29 18 -70l-3 -18h-37l3 18q9 49 -54 70q-29 10 -66 10q-90 0 -136 -47q-22 -22 -27 -51q-9 -50 40 -100l48 -48q33 -38 26 -78l-13 -75h73
l-6 -34h-73z" />
    <glyph glyph-name="uni02A3" unicode="&#x2a3;" 
d="M227 56l294 336h-234zM171 428q49 0 73 -54l2 -4l39 221l-126 -26l6 34l164 33l-36 -206h282l-6 -34l-315 -358h4h231l7 36h34l-13 -70h-337l10 56q-43 -58 -95 -58q-59 0 -82 78q-17 61 -4 137q19 106 78 171q41 44 84 44zM164 391q-40 0 -78 -63q-28 -49 -40 -115
q-18 -103 20 -156q16 -22 36 -22q32 0 67 47q34 44 44 104l10 54q18 101 -23 138q-14 13 -36 13z" />
    <glyph glyph-name="uni02A4" unicode="&#x2a4;" 
d="M201 428q49 0 74 -58l39 221l-127 -26l6 34l166 33l-36 -206h236l-6 -34l-184 -173l29 -1h1q78 0 111 -75q26 -58 12 -137q-18 -101 -94 -166q-55 -47 -113 -47q-62 0 -109 35l26 33q43 -31 90 -31q62 0 114 67q38 48 49 109q15 89 -27 142q-27 33 -66 33h-82l6 35
q1 2 2 3l183 173h-184l-63 -358h33l-6 -34h-71l9 56q-45 -58 -94 -58q-60 0 -81 80q-15 59 -2 135q19 109 78 173q39 42 81 42zM194 391q-39 0 -75 -63q-28 -48 -40 -115q-19 -106 19 -157q15 -21 34 -21q33 0 68 48q32 44 42 103l10 54q22 126 -36 147q-10 4 -22 4z" />
    <glyph glyph-name="uni02A5" unicode="&#x2a5;" 
d="M171 391q-39 0 -76 -63q-27 -48 -39 -115q-19 -106 18 -157q15 -21 35 -21q33 0 68 48q32 44 42 103l10 54q22 126 -36 147q-10 4 -22 4zM233 56l293 336h-234zM352 34q166 0 173 38q2 13 -23 23q-20 8 -51 8q-47 0 -99 -69zM177 428q49 0 73 -54l2 -4l39 221l-126 -26
l6 34l164 33l-37 -206h282l-6 -34l-314 -358h53q72 103 142 103q72 0 96 -32q11 -14 8 -33q-13 -73 -203 -72h-27q-13 -21 -38 -69l-30 10q13 30 31 59h-106l10 56q-43 -58 -95 -58q-60 0 -82 78q-18 61 -4 137q19 106 78 171q41 44 84 44z" />
    <glyph glyph-name="uni02A6" unicode="&#x2a6;" 
d="M251 0q-81 0 -128 56q-38 45 -28 103l41 233h-79l6 34h79l23 132h37l-23 -132h79l-6 -34h-79l-41 -233q-10 -53 39 -92q37 -30 86 -30h84q98 0 139 45q14 16 17 35q9 46 -50 63l-125 25q-77 21 -78 81q-1 12 2 26q12 69 98 95q37 12 79 12q44 0 89 -28q9 -5 12 1
q4 16 14 27h34q-17 -24 -21 -49q-6 -34 9 -58q2 -2 3 -4h-34q-16 44 -63 64q-23 10 -50 10q-121 0 -133 -70q-9 -51 54 -70q6 -2 92 -19q84 -17 101 -55q10 -21 4 -51q-11 -64 -95 -97q-49 -20 -104 -20h-84z" />
    <glyph glyph-name="uni02A7" unicode="&#x2a7;" 
d="M332 19l66 373h-224l-45 -251q-9 -53 39 -92q38 -30 88 -30h76zM418 505q11 62 83 101q45 24 88 24q84 0 139 -47l-27 -30q-48 40 -119 40q-54 0 -98 -41q-25 -23 -29 -47l-100 -563q-10 -61 -82 -100q-46 -25 -90 -25q-82 0 -139 47l27 30q50 -40 119 -40q55 0 99 41
q25 23 29 47l7 39h-76q-76 0 -124 54q-42 47 -32 106l45 251h-79l6 34h78l23 132h37l-23 -132h224z" />
    <glyph glyph-name="uni02A8" unicode="&#x2a8;" 
d="M36 426h79l24 132h37l-24 -132h79l-6 -34h-79l-44 -251q-15 -86 17 -100q9 -4 21 -4q42 0 72 23l13 -30q-41 -30 -92 -30q-69 0 -74 69q-2 28 6 72l44 251h-79zM314 98q24 -43 71 -57q15 -4 31 -4q67 0 101 49q11 16 14 32q8 43 -47 59q-18 6 -37 6q-61 0 -116 -62
q-10 -11 -17 -23zM257 214q17 97 97 164q60 50 119 50q49 0 73 -16q8 -5 17 -14q10 -10 15 2l8 22l32 -7q0 -2 -24 -56q8 -18 12 -36l-38 -12q-34 78 -102 80q-59 0 -115 -62q-46 -51 -57 -115q-10 -55 2 -84q28 47 93 75q34 15 64 15q69 0 101 -41q20 -26 14 -61
q-11 -66 -74 -98q-37 -20 -85 -20q-65 0 -116 58l-4 4q-28 -45 -40 -113h-37q15 81 56 144q-24 46 -11 121z" />
    <glyph glyph-name="uni02A9" unicode="&#x2a9;" 
d="M203 426h134l-9 -51q82 64 134 64q69 0 100 -61q19 -39 11 -83l-58 -327q-12 -71 -69 -123q-47 -43 -102 -43q-79 0 -120 30l23 33q30 -23 94 -26h11q50 0 93 58q26 35 32 71l58 327q8 47 -20 81q-21 26 -59 26q-42 0 -97 -41l-39 -30l-52 -297h85l-6 -34h-329l6 34h73
l63 358h-73l6 34h73l14 79q11 62 83 101q45 24 88 24q95 0 167 -60l-27 -30q-57 48 -133 53h-14q-55 0 -99 -42q-24 -22 -28 -46zM134 34h97l63 358h-97z" />
    <glyph glyph-name="uni02AA" unicode="&#x2aa;" 
d="M220 247l-24 -137q22 -64 97 -76h60q92 10 116 61q3 8 5 17q8 47 -57 69l-138 34q-39 13 -59 32zM243 588l-149 -39l6 34l188 49l-43 -240q61 40 150 40q51 0 97 -27q9 -7 12 0q6 18 13 27h34q-16 -24 -20 -49q-7 -40 13 -62h-35q-14 37 -60 60q-28 14 -60 14
q-107 0 -143 -45q-9 -11 -11 -25q-9 -51 59 -75q8 -3 102 -26q91 -23 110 -63q10 -21 5 -49q-12 -66 -97 -98q-36 -14 -64 -14h-353l6 34h142z" />
    <glyph glyph-name="uni02AB" unicode="&#x2ab;" 
d="M175 58l318 334h-260zM545 392l-343 -358h264l7 36h34l-13 -70h-500l6 34h133l98 555l-140 -40l6 34l179 49l-37 -206h312z" />
    <glyph glyph-name="uni02AC" unicode="&#x2ac;" 
d="M143 255l31 -222l100 178h18l38 -178l109 222h-83l4 22h133l-4 -22h-25l-134 -275h-16l-39 186l-105 -186h-16l-36 275h-25l4 22h133l-4 -22h-83zM206 614l31 -222l100 178h18l38 -178l109 222h-83l4 22h133l-4 -22h-25l-134 -275h-16l-39 186l-105 -186h-16l-36 275h-25
l4 22h133l-4 -22h-83z" />
    <glyph glyph-name="uni02AD" unicode="&#x2ad;" 
d="M100 0l26 146h326l-26 -146h-24l14 80h-278l-14 -80h-24zM148 274l26 146h326l-26 -146h-24l14 80h-278l-14 -80h-24z" />
    <glyph glyph-name="uni02B0" unicode="&#x2b0;" 
d="M132 508l26 13q53 25 87 25q45 0 73 -38q18 -24 14 -48l-28 -156h51l-4 -21h-125l4 21h52l28 156q4 25 -25 48q-20 16 -44 16q-42 0 -113 -42l-32 -178h51l-4 -21h-125l4 21h52l59 333l-54 -13l3 20l78 19z" />
    <glyph glyph-name="uni02B1" unicode="&#x2b1;" 
d="M63 307l54 306q7 40 40 52q9 3 19 3q37 0 34 -30q-2 -17 -22 -16q-19 0 -20 19q0 2 1 5q1 7 5 13q-16 7 -27 -11q-3 -5 -4 -10l-22 -127q14 8 25 13q53 25 87 25q45 0 73 -38q18 -24 14 -48l-28 -156h51l-4 -21h-125l4 21h52l28 156q4 25 -25 48q-20 16 -44 16
q-43 0 -113 -42l-31 -178h51l-4 -21h-125l4 21h52z" />
    <glyph glyph-name="uni02B2" unicode="&#x2b2;" 
d="M243 582l-10 -58h-44l10 58h44zM20 165q21 -16 63 -16q33 0 60 42q12 18 15 35l45 254h-78l4 21h101l-49 -275q-7 -42 -46 -75q-27 -24 -56 -24q-51 0 -72 18z" />
    <glyph glyph-name="uni02B3" unicode="&#x2b3;" 
d="M318 462q-8 12 -39 21q-10 3 -18 3q-42 0 -111 -40q-3 -2 -5 -3l-32 -178h50l-3 -20h-124l3 20h51l38 215h-51l4 20h74l-6 -30q3 1 26 13q52 25 90 25q43 0 74 -31z" />
    <glyph glyph-name="uni02B4" unicode="&#x2b4;" 
d="M39 282q8 -12 37 -21q11 -3 19 -3q44 0 113 41l4 2l32 178h-51l3 20h125l-3 -20h-52l-38 -214h52l-4 -21h-74l6 30q-3 -1 -27 -13q-52 -25 -90 -25q-42 0 -71 29l-3 3z" />
    <glyph glyph-name="uni02B5" unicode="&#x2b5;" 
d="M277 459l-45 -257q-3 -14 15 -23q10 -5 18 -2q-2 6 -1 12q4 21 25 24q19 3 20 -11v-5q-7 -30 -46 -30q-34 0 -47 29q-5 13 -2 28l5 30q-2 -1 -25 -13q-53 -25 -91 -25q-43 0 -73 31l20 15q8 -12 39 -21q10 -3 18 -3q43 0 116 42l32 179h-51l4 20h125l-4 -20h-52z" />
    <glyph glyph-name="uni02B6" unicode="&#x2b6;" 
d="M102 370l-19 -108h144q56 0 72 34q3 9 5 20q4 52 -58 54h-144zM228 391h22q64 0 74 -44q4 -13 0 -31q-13 -74 -101 -74h-224l4 20h58l38 215h-58l4 21h158l-4 -21h-78l-15 -86h90q70 48 99 97l6 10h56l-4 -21h-42q-22 -39 -83 -86z" />
    <glyph glyph-name="uni02B7" unicode="&#x2b7;" 
d="M102 478l29 -202l91 162h16l35 -162l98 202h-75l4 20h121l-4 -20h-23l-122 -250h-14l-35 169l-96 -169h-14l-34 250h-22l4 20h120l-4 -20h-75z" />
    <glyph glyph-name="uni02B8" unicode="&#x2b8;" 
d="M171 123h-171l3 21h128l55 81l-75 234h-46l3 21h115l-3 -21h-45l67 -209l141 209h-44l3 21h114l-3 -21h-45l-212 -315h18z" />
    <glyph glyph-name="uni02B9" unicode="&#x2b9;" 
d="M65 661h52l-61 -151h-24z" />
    <glyph glyph-name="uni02BA" unicode="&#x2ba;" 
d="M65 661h52l-61 -151h-24zM154 661h52l-61 -151h-24z" />
    <glyph glyph-name="uni02BB" unicode="&#x2bb;" 
d="M179 453l174 204h46l-127 -204h-93z" />
    <glyph glyph-name="afii57929" unicode="&#x2bc;" horiz-adv-x="0" 
d="M370 541q-25 -55 -86 -80q-16 -7 -32 -10l-10 16q26 5 46 31q15 18 7 32q-25 17 -13 53t47 44q9 2 18 1q37 -2 41 -36q3 -29 -18 -51z" />
    <glyph glyph-name="afii64937" unicode="&#x2bd;" 
d="M-185 672q-16 27 5 59q17 26 50 28q39 3 47 -32q8 -33 -19 -58q-6 -5 -12 -8q-19 -21 8 -48q11 -12 23 -15l-16 -16q-54 11 -77 58q-7 15 -9 32z" />
    <glyph glyph-name="uni02BE" unicode="&#x2be;" 
d="M315 537l7 33q35 0 47 33q12 31 -9 46q-9 6 -22 6l5 29q50 -1 60 -43q9 -40 -24 -75q-25 -27 -64 -29z" />
    <glyph glyph-name="uni02BF" unicode="&#x2bf;" 
d="M379 537q-50 2 -60 45q-10 41 21 75q25 27 63 27l-5 -29q-34 0 -47 -33q-12 -31 10 -46q9 -6 23 -6z" />
    <glyph glyph-name="uni02C0" unicode="&#x2c0;" 
d="M147 281l22 123q5 28 49 59q44 33 56 49q9 13 12 28q7 41 -44 55q-50 13 -93 -10q-26 -13 -30 -35l-1 -10h-23l1 10q9 46 69 64q61 18 108 -7q43 -22 35 -67q-7 -39 -61 -78q-42 -31 -50 -43q-5 -7 -6 -15l-22 -123h-22z" />
    <glyph glyph-name="uni02C1" unicode="&#x2c1;" 
d="M160 281h-22l22 123q3 19 -26 47q-35 34 -41 56q-4 16 -1 33q9 53 74 73q61 19 108 -5q38 -19 31 -58l-1 -10h-22l1 10q6 33 -39 45q-51 13 -95 -11q-30 -16 -35 -44q-6 -31 28 -65q31 -30 37 -43q5 -13 3 -28z" />
    <glyph glyph-name="uni02C2" unicode="&#x2c2;" 
d="M579 440l-431 -188l363 -199l-7 -38l-442 237l524 229z" />
    <glyph glyph-name="uni02C3" unicode="&#x2c3;" 
d="M86 440l7 41l444 -229l-526 -237l7 38l433 199z" />
    <glyph glyph-name="uni02C4" unicode="&#x2c4;" 
d="M440 99l-118 398l-269 -398h-38l323 483l143 -483h-41z" />
    <glyph glyph-name="uni02C5" unicode="&#x2c5;" 
d="M526 505h41l-315 -484l-151 484h38l127 -399z" />
    <glyph glyph-name="circumflex" unicode="&#x2c6;" 
d="M422 400l-17 -14l-99 93l-135 -93l-11 14l142 121h21z" />
    <glyph glyph-name="caron" unicode="&#x2c7;" 
d="M440 521l-141 -121h-21l-100 121l17 14l103 -93l131 93z" />
    <glyph glyph-name="uni02C8" unicode="&#x2c8;" 
d="M63 661h52l-36 -122h-24z" />
    <glyph glyph-name="uni02C9" unicode="&#x2c9;" 
d="M74 562h347l-6 -34h-347z" />
    <glyph glyph-name="uni02CA" unicode="&#x2ca;" 
d="M331 715l-174 -153h-40l132 153h82z" />
    <glyph glyph-name="uni02CB" unicode="&#x2cb;" 
d="M132 715h79l77 -149h-39z" />
    <glyph glyph-name="uni02CC" unicode="&#x2cc;" 
d="M84 -1h52l-36 -122h-24z" />
    <glyph glyph-name="uni02CD" unicode="&#x2cd;" 
d="M74 -127h347l-6 -34h-347z" />
    <glyph glyph-name="uni02CE" unicode="&#x2ce;" 
d="M132 -93h79l77 -148h-39z" />
    <glyph glyph-name="uni02CF" unicode="&#x2cf;" 
d="M331 -91l-174 -153h-40l132 153h82z" />
    <glyph glyph-name="uni02D0" unicode="&#x2d0;" 
d="M84 462h112l-66 -56zM2 0l66 56l46 -56h-112z" />
    <glyph glyph-name="uni02D1" unicode="&#x2d1;" 
d="M48 462h112l-66 -56z" />
    <glyph glyph-name="uni02D2" unicode="&#x2d2;" 
d="M315 166l7 33q35 0 47 33q12 31 -9 46q-9 6 -22 6l5 29q50 -1 60 -43q9 -40 -24 -75q-25 -27 -64 -29z" />
    <glyph glyph-name="uni02D3" unicode="&#x2d3;" 
d="M379 154q-50 2 -60 45q-10 41 21 75q25 27 63 27l-5 -29q-34 0 -47 -33q-12 -31 10 -46q9 -6 23 -6z" />
    <glyph glyph-name="uni02D4" unicode="&#x2d4;" 
d="M180 302h98l-5 -27h-223l5 27h98l17 96h27z" />
    <glyph glyph-name="uni02D5" unicode="&#x2d5;" 
d="M192 384l-17 -96h-27l17 96h-98l5 27h223l-5 -27h-98z" />
    <glyph glyph-name="uni02D6" unicode="&#x2d6;" 
d="M289 424l-24 -138h141l-5 -29h-141l-25 -140h-29l25 140h-137l5 29h137l24 138h29z" />
    <glyph glyph-name="uni02D7" unicode="&#x2d7;" 
d="M80 290h385l-6 -37h-385z" />
    </font>
</defs>
</svg>
